<svg xmlns="http://www.w3.org/2000/svg" version="1.1" xmlns:xlink="http://www.w3.org/1999/xlink" xmlns:svgjs="http://svgjs.dev/svgjs" width="2000" height="717" viewBox="0 0 2000 717"><g transform="matrix(1,0,0,1,-1.2121212121212466,-1.6542894621410937)"><svg viewBox="0 0 396 142" data-background-color="#000000" preserveAspectRatio="xMidYMid meet" height="717" width="2000" xmlns="http://www.w3.org/2000/svg" xmlns:xlink="http://www.w3.org/1999/xlink"><g id="tight-bounds" transform="matrix(1,0,0,1,0.2400000000000091,0.3276277595872159)"><svg viewBox="0 0 395.52 141.34474448082557" height="141.34474448082557" width="395.52"><g><svg viewBox="0 0 683.9836306776514 244.43135999999998" height="141.34474448082557" width="395.52"><g transform="matrix(1,0,0,1,0,0.41682367362166417)"><svg viewBox="0 0 395.52 243.59771265275666" height="243.59771265275666" width="395.52"><g id="textblocktransform"><svg viewBox="0 0 395.52 243.59771265275666" height="243.59771265275666" width="395.52" id="textblock"><g><svg viewBox="0 0 395.52 186.51735321528423" height="186.51735321528423" width="395.52"><g transform="matrix(1,0,0,1,0,0)"><svg width="395.52" viewBox="3 -24.78 53.65 25.310000000000002" height="186.51735321528423" data-palette-color="url(#64633a02-6df3-4ba4-8a7e-79cc5f93bb04)"></svg></g></svg></g><g transform="matrix(1,0,0,1,163.310208,230.54962389293567)"><svg viewBox="0 0 232.209792 13.048088759820985" height="13.048088759820985" width="232.209792"><g transform="matrix(1,0,0,1,0,0)"><svg width="232.209792" viewBox="2.25 -5.18 100.53 5.66" height="13.048088759820985" data-palette-color="url(#b73895ea-7d2f-4397-872a-b9a73399bee0)"></svg></g></svg></g></svg></g></svg></g><g transform="matrix(1,0,0,1,439.55227067765145,0)"><svg viewBox="0 0 244.43135999999998 244.43135999999998" height="244.43135999999998" width="244.43135999999998"><g data-palette-color="url(#52ffcc30-b5d9-41ea-a90b-740d343cc0ec)"></g></svg></g></svg></g><defs></defs><mask id="51e36ff1-893f-4e77-b4b6-aff368ae8b89"><g id="SvgjsG9708"><svg viewBox="0 0 395.52 141.34474448082557" height="141.34474448082557" width="395.52"><g><svg viewBox="0 0 683.9836306776514 244.43135999999998" height="141.34474448082557" width="395.52"><g transform="matrix(1,0,0,1,0,0.41682367362166417)"><svg viewBox="0 0 395.52 243.59771265275666" height="243.59771265275666" width="395.52"><g id="SvgjsG9707"><svg viewBox="0 0 395.52 243.59771265275666" height="243.59771265275666" width="395.52" id="SvgjsSvg9706"><g><svg viewBox="0 0 395.52 186.51735321528423" height="186.51735321528423" width="395.52"><g transform="matrix(1,0,0,1,0,0)"><svg width="395.52" viewBox="3 -24.78 53.65 25.310000000000002" height="186.51735321528423" data-palette-color="url(#64633a02-6df3-4ba4-8a7e-79cc5f93bb04)"><path d="M3-8.78L3-24.4 7.03-24.4 7.03-9.22Q7.03-7.3 7.56-5.86 8.1-4.42 9.33-3.64 10.55-2.85 12.63-2.85L12.63-2.85Q14.58-2.85 15.98-3.56 17.38-4.28 18.26-5.53 19.15-6.78 19.48-8.35L19.48-8.35 20.2-5.48 19.33-5.48Q18.95-3.83 17.95-2.46 16.95-1.1 15.26-0.29 13.58 0.53 11.1 0.53L11.1 0.53Q8.22 0.53 6.44-0.56 4.65-1.65 3.83-3.74 3-5.83 3-8.78L3-8.78ZM19.3-6.1L19.3-24.4 23.35-24.4 23.35 0 19.3 0 19.48-5.85 19.3-6.1ZM45.82-14.93L45.82-14.93 44.9-18.05 45.9-18.1Q46.7-21.2 48.65-22.99 50.59-24.78 53.82-24.78L53.82-24.78Q54.62-24.78 55.26-24.65 55.9-24.53 56.4-24.35L56.4-24.35 56.65-20.43Q56.02-20.63 55.26-20.75 54.5-20.88 53.57-20.88L53.57-20.88Q50.82-20.88 48.78-19.35 46.75-17.82 45.82-14.93ZM46.02-16.9L46.02 0 41.97 0 41.97-24.4 45.92-24.4 45.72-17.2 46.02-16.9Z" opacity="1" transform="matrix(1,0,0,1,0,0)" fill="white" class="wordmark-text-0" id="SvgjsPath9705"></path></svg></g></svg></g><g transform="matrix(1,0,0,1,163.310208,230.54962389293567)"><svg viewBox="0 0 232.209792 13.048088759820985" height="13.048088759820985" width="232.209792"><g transform="matrix(1,0,0,1,0,0)"><svg width="232.209792" viewBox="2.25 -5.18 100.53 5.66" height="13.048088759820985" data-palette-color="url(#b73895ea-7d2f-4397-872a-b9a73399bee0)"><path d="M4.78 0.48L4.78 0.48Q3.48 0.48 2.86-0.24 2.25-0.95 2.25-2.25L2.25-2.25 2.25-2.5Q2.25-3.78 2.86-4.48 3.48-5.18 4.78-5.18L4.78-5.18Q6.05-5.18 6.68-4.48 7.3-3.78 7.3-2.5L7.3-2.5 7.3-2.25Q7.3-0.95 6.68-0.24 6.05 0.48 4.78 0.48ZM14.32 0.48L14.32 0.48Q13.02 0.48 12.41-0.24 11.8-0.95 11.8-2.25L11.8-2.25 11.8-2.5Q11.8-3.78 12.41-4.48 13.02-5.18 14.32-5.18L14.32-5.18Q15.6-5.18 16.22-4.48 16.85-3.78 16.85-2.5L16.85-2.5 16.85-2.25Q16.85-0.95 16.22-0.24 15.6 0.48 14.32 0.48ZM23.87 0.48L23.87 0.48Q22.57 0.48 21.96-0.24 21.35-0.95 21.35-2.25L21.35-2.25 21.35-2.5Q21.35-3.78 21.96-4.48 22.57-5.18 23.87-5.18L23.87-5.18Q25.15-5.18 25.77-4.48 26.4-3.78 26.4-2.5L26.4-2.5 26.4-2.25Q26.4-0.95 25.77-0.24 25.15 0.48 23.87 0.48ZM33.42 0.48L33.42 0.48Q32.12 0.48 31.51-0.24 30.89-0.95 30.89-2.25L30.89-2.25 30.89-2.5Q30.89-3.78 31.51-4.48 32.12-5.18 33.42-5.18L33.42-5.18Q34.69-5.18 35.32-4.48 35.94-3.78 35.94-2.5L35.94-2.5 35.94-2.25Q35.94-0.95 35.32-0.24 34.69 0.48 33.42 0.48ZM42.97 0.48L42.97 0.48Q41.67 0.48 41.05-0.24 40.44-0.95 40.44-2.25L40.44-2.25 40.44-2.5Q40.44-3.78 41.05-4.48 41.67-5.18 42.97-5.18L42.97-5.18Q44.24-5.18 44.87-4.48 45.49-3.78 45.49-2.5L45.49-2.5 45.49-2.25Q45.49-0.95 44.87-0.24 44.24 0.48 42.97 0.48ZM52.51 0.48L52.51 0.48Q51.21 0.48 50.6-0.24 49.99-0.95 49.99-2.25L49.99-2.25 49.99-2.5Q49.99-3.78 50.6-4.48 51.21-5.18 52.51-5.18L52.51-5.18Q53.79-5.18 54.41-4.48 55.04-3.78 55.04-2.5L55.04-2.5 55.04-2.25Q55.04-0.95 54.41-0.24 53.79 0.48 52.51 0.48ZM62.06 0.48L62.06 0.48Q60.76 0.48 60.15-0.24 59.54-0.95 59.54-2.25L59.54-2.25 59.54-2.5Q59.54-3.78 60.15-4.48 60.76-5.18 62.06-5.18L62.06-5.18Q63.34-5.18 63.96-4.48 64.59-3.78 64.59-2.5L64.59-2.5 64.59-2.25Q64.59-0.95 63.96-0.24 63.34 0.48 62.06 0.48ZM71.61 0.48L71.61 0.48Q70.31 0.48 69.7-0.24 69.08-0.95 69.08-2.25L69.08-2.25 69.08-2.5Q69.08-3.78 69.7-4.48 70.31-5.18 71.61-5.18L71.61-5.18Q72.88-5.18 73.51-4.48 74.13-3.78 74.13-2.5L74.13-2.5 74.13-2.25Q74.13-0.95 73.51-0.24 72.88 0.48 71.61 0.48ZM81.16 0.48L81.16 0.48Q79.86 0.48 79.24-0.24 78.63-0.95 78.63-2.25L78.63-2.25 78.63-2.5Q78.63-3.78 79.24-4.48 79.86-5.18 81.16-5.18L81.16-5.18Q82.43-5.18 83.06-4.48 83.68-3.78 83.68-2.5L83.68-2.5 83.68-2.25Q83.68-0.95 83.06-0.24 82.43 0.48 81.16 0.48ZM90.7 0.48L90.7 0.48Q89.4 0.48 88.79-0.24 88.18-0.95 88.18-2.25L88.18-2.25 88.18-2.5Q88.18-3.78 88.79-4.48 89.4-5.18 90.7-5.18L90.7-5.18Q91.98-5.18 92.6-4.48 93.23-3.78 93.23-2.5L93.23-2.5 93.23-2.25Q93.23-0.95 92.6-0.24 91.98 0.48 90.7 0.48ZM100.25 0.48L100.25 0.48Q98.95 0.48 98.34-0.24 97.73-0.95 97.73-2.25L97.73-2.25 97.73-2.5Q97.73-3.78 98.34-4.48 98.95-5.18 100.25-5.18L100.25-5.18Q101.53-5.18 102.15-4.48 102.78-3.78 102.78-2.5L102.78-2.5 102.78-2.25Q102.78-0.95 102.15-0.24 101.53 0.48 100.25 0.48Z" opacity="1" transform="matrix(1,0,0,1,0,0)" fill="black" class="slogan-text-1" id="SvgjsPath9704"></path></svg></g></svg></g></svg></g></svg></g><g transform="matrix(1,0,0,1,439.55227067765145,0)"><svg viewBox="0 0 244.43135999999998 244.43135999999998" height="244.43135999999998" width="244.43135999999998"><g data-palette-color="url(#52ffcc30-b5d9-41ea-a90b-740d343cc0ec)"><rect width="66.8112384" height="244.43135999999998" fill="black" stroke="transparent" x="0" fill-opacity="1"></rect><rect width="66.8112384" height="244.43135999999998" fill="black" stroke="transparent" x="81.47711999999999" fill-opacity="0.75"></rect><rect width="66.8112384" height="244.43135999999998" fill="black" stroke="transparent" x="162.95423999999997" fill-opacity="0.5"></rect></g></svg></g></svg></g><defs><mask></mask></defs></svg><rect width="395.52" height="141.34474448082557" fill="black" stroke="none" visibility="hidden"></rect></g></mask><linearGradient x1="0" x2="1" y1="0.548" y2="0.55" id="64633a02-6df3-4ba4-8a7e-79cc5f93bb04"><stop stop-color="#ff6cab" offset="0"></stop><stop stop-color="#7366ff" offset="1"></stop></linearGradient><rect width="395.52" height="141.34474448082557" fill="url(#64633a02-6df3-4ba4-8a7e-79cc5f93bb04)" mask="url(#51e36ff1-893f-4e77-b4b6-aff368ae8b89)" data-fill-palette-color="primary"></rect><mask id="e2652665-bdb0-4e70-a158-e7f22af0a8fc"><g id="SvgjsG9717"><svg viewBox="0 0 395.52 141.34474448082557" height="141.34474448082557" width="395.52"><g><svg viewBox="0 0 683.9836306776514 244.43135999999998" height="141.34474448082557" width="395.52"><g transform="matrix(1,0,0,1,0,0.41682367362166417)"><svg viewBox="0 0 395.52 243.59771265275666" height="243.59771265275666" width="395.52"><g id="SvgjsG9716"><svg viewBox="0 0 395.52 243.59771265275666" height="243.59771265275666" width="395.52" id="SvgjsSvg9715"><g><svg viewBox="0 0 395.52 186.51735321528423" height="186.51735321528423" width="395.52"><g transform="matrix(1,0,0,1,0,0)"><svg width="395.52" viewBox="3 -24.78 53.65 25.310000000000002" height="186.51735321528423" data-palette-color="url(#64633a02-6df3-4ba4-8a7e-79cc5f93bb04)"></svg></g></svg></g><g transform="matrix(1,0,0,1,163.310208,230.54962389293567)"><svg viewBox="0 0 232.209792 13.048088759820985" height="13.048088759820985" width="232.209792"><g transform="matrix(1,0,0,1,0,0)"><svg width="232.209792" viewBox="2.25 -5.18 100.53 5.66" height="13.048088759820985" data-palette-color="url(#b73895ea-7d2f-4397-872a-b9a73399bee0)"><path d="M4.78 0.48L4.78 0.48Q3.48 0.48 2.86-0.24 2.25-0.95 2.25-2.25L2.25-2.25 2.25-2.5Q2.25-3.78 2.86-4.48 3.48-5.18 4.78-5.18L4.78-5.18Q6.05-5.18 6.68-4.48 7.3-3.78 7.3-2.5L7.3-2.5 7.3-2.25Q7.3-0.95 6.68-0.24 6.05 0.48 4.78 0.48ZM14.32 0.48L14.32 0.48Q13.02 0.48 12.41-0.24 11.8-0.95 11.8-2.25L11.8-2.25 11.8-2.5Q11.8-3.78 12.41-4.48 13.02-5.18 14.32-5.18L14.32-5.18Q15.6-5.18 16.22-4.48 16.85-3.78 16.85-2.5L16.85-2.5 16.85-2.25Q16.85-0.95 16.22-0.24 15.6 0.48 14.32 0.48ZM23.87 0.48L23.87 0.48Q22.57 0.48 21.96-0.24 21.35-0.95 21.35-2.25L21.35-2.25 21.35-2.5Q21.35-3.78 21.96-4.48 22.57-5.18 23.87-5.18L23.87-5.18Q25.15-5.18 25.77-4.48 26.4-3.78 26.4-2.5L26.4-2.5 26.4-2.25Q26.4-0.95 25.77-0.24 25.15 0.48 23.87 0.48ZM33.42 0.48L33.42 0.48Q32.12 0.48 31.51-0.24 30.89-0.95 30.89-2.25L30.89-2.25 30.89-2.5Q30.89-3.78 31.51-4.48 32.12-5.18 33.42-5.18L33.42-5.18Q34.69-5.18 35.32-4.48 35.94-3.78 35.94-2.5L35.94-2.5 35.94-2.25Q35.94-0.95 35.32-0.24 34.69 0.48 33.42 0.48ZM42.97 0.48L42.97 0.48Q41.67 0.48 41.05-0.24 40.44-0.95 40.44-2.25L40.44-2.25 40.44-2.5Q40.44-3.78 41.05-4.48 41.67-5.18 42.97-5.18L42.97-5.18Q44.24-5.18 44.87-4.48 45.49-3.78 45.49-2.5L45.49-2.5 45.49-2.25Q45.49-0.95 44.87-0.24 44.24 0.48 42.97 0.48ZM52.51 0.48L52.51 0.48Q51.21 0.48 50.6-0.24 49.99-0.95 49.99-2.25L49.99-2.25 49.99-2.5Q49.99-3.78 50.6-4.48 51.21-5.18 52.51-5.18L52.51-5.18Q53.79-5.18 54.41-4.48 55.04-3.78 55.04-2.5L55.04-2.5 55.04-2.25Q55.04-0.95 54.41-0.24 53.79 0.48 52.51 0.48ZM62.06 0.48L62.06 0.48Q60.76 0.48 60.15-0.24 59.54-0.95 59.54-2.25L59.54-2.25 59.54-2.5Q59.54-3.78 60.15-4.48 60.76-5.18 62.06-5.18L62.06-5.18Q63.34-5.18 63.96-4.48 64.59-3.78 64.59-2.5L64.59-2.5 64.59-2.25Q64.59-0.95 63.96-0.24 63.34 0.48 62.06 0.48ZM71.61 0.48L71.61 0.48Q70.31 0.48 69.7-0.24 69.08-0.95 69.08-2.25L69.08-2.25 69.08-2.5Q69.08-3.78 69.7-4.48 70.31-5.18 71.61-5.18L71.61-5.18Q72.88-5.18 73.51-4.48 74.13-3.78 74.13-2.5L74.13-2.5 74.13-2.25Q74.13-0.95 73.51-0.24 72.88 0.48 71.61 0.48ZM81.16 0.48L81.16 0.48Q79.86 0.48 79.24-0.24 78.63-0.95 78.63-2.25L78.63-2.25 78.63-2.5Q78.63-3.78 79.24-4.48 79.86-5.18 81.16-5.18L81.16-5.18Q82.43-5.18 83.06-4.48 83.68-3.78 83.68-2.5L83.68-2.5 83.68-2.25Q83.68-0.95 83.06-0.24 82.43 0.48 81.16 0.48ZM90.7 0.48L90.7 0.48Q89.4 0.48 88.79-0.24 88.18-0.95 88.18-2.25L88.18-2.25 88.18-2.5Q88.18-3.78 88.79-4.48 89.4-5.18 90.7-5.18L90.7-5.18Q91.98-5.18 92.6-4.48 93.23-3.78 93.23-2.5L93.23-2.5 93.23-2.25Q93.23-0.95 92.6-0.24 91.98 0.48 90.7 0.48ZM100.25 0.48L100.25 0.48Q98.95 0.48 98.34-0.24 97.73-0.95 97.73-2.25L97.73-2.25 97.73-2.5Q97.73-3.78 98.34-4.48 98.95-5.18 100.25-5.18L100.25-5.18Q101.53-5.18 102.15-4.48 102.78-3.78 102.78-2.5L102.78-2.5 102.78-2.25Q102.78-0.95 102.15-0.24 101.53 0.48 100.25 0.48Z" opacity="1" transform="matrix(1,0,0,1,0,0)" fill="white" class="slogan-text-1" id="SvgjsPath9714"></path></svg></g></svg></g></svg></g></svg></g><g transform="matrix(1,0,0,1,439.55227067765145,0)"><svg viewBox="0 0 244.43135999999998 244.43135999999998" height="244.43135999999998" width="244.43135999999998"><g data-palette-color="url(#52ffcc30-b5d9-41ea-a90b-740d343cc0ec)"><rect width="66.8112384" height="244.43135999999998" fill="black" stroke="transparent" x="0" fill-opacity="1"></rect><rect width="66.8112384" height="244.43135999999998" fill="black" stroke="transparent" x="81.47711999999999" fill-opacity="0.75"></rect><rect width="66.8112384" height="244.43135999999998" fill="black" stroke="transparent" x="162.95423999999997" fill-opacity="0.5"></rect></g></svg></g></svg></g><defs><mask></mask></defs><mask><g id="SvgjsG9713"><svg viewBox="0 0 395.52 141.34474448082557" height="141.34474448082557" width="395.52"><g><svg viewBox="0 0 683.9836306776514 244.43135999999998" height="141.34474448082557" width="395.52"><g transform="matrix(1,0,0,1,0,0.41682367362166417)"><svg viewBox="0 0 395.52 243.59771265275666" height="243.59771265275666" width="395.52"><g id="SvgjsG9712"><svg viewBox="0 0 395.52 243.59771265275666" height="243.59771265275666" width="395.52" id="SvgjsSvg9711"><g><svg viewBox="0 0 395.52 186.51735321528423" height="186.51735321528423" width="395.52"><g transform="matrix(1,0,0,1,0,0)"><svg width="395.52" viewBox="3 -24.78 53.65 25.310000000000002" height="186.51735321528423" data-palette-color="url(#64633a02-6df3-4ba4-8a7e-79cc5f93bb04)"><path d="M3-8.78L3-24.4 7.03-24.4 7.03-9.22Q7.03-7.3 7.56-5.86 8.1-4.42 9.33-3.64 10.55-2.85 12.63-2.85L12.63-2.85Q14.58-2.85 15.98-3.56 17.38-4.28 18.26-5.53 19.15-6.78 19.48-8.35L19.48-8.35 20.2-5.48 19.33-5.48Q18.95-3.83 17.95-2.46 16.95-1.1 15.26-0.29 13.58 0.53 11.1 0.53L11.1 0.53Q8.22 0.53 6.44-0.56 4.65-1.65 3.83-3.74 3-5.83 3-8.78L3-8.78ZM19.3-6.1L19.3-24.4 23.35-24.4 23.35 0 19.3 0 19.48-5.85 19.3-6.1ZM45.82-14.93L45.82-14.93 44.9-18.05 45.9-18.1Q46.7-21.2 48.65-22.99 50.59-24.78 53.82-24.78L53.82-24.78Q54.62-24.78 55.26-24.65 55.9-24.53 56.4-24.35L56.4-24.35 56.65-20.43Q56.02-20.63 55.26-20.75 54.5-20.88 53.57-20.88L53.57-20.88Q50.82-20.88 48.78-19.35 46.75-17.82 45.82-14.93ZM46.02-16.9L46.02 0 41.97 0 41.97-24.4 45.92-24.4 45.72-17.2 46.02-16.9Z" opacity="1" transform="matrix(1,0,0,1,0,0)" fill="black" class="wordmark-text-0" id="SvgjsPath9710"></path></svg></g></svg></g><g transform="matrix(1,0,0,1,163.310208,230.54962389293567)"><svg viewBox="0 0 232.209792 13.048088759820985" height="13.048088759820985" width="232.209792"><g transform="matrix(1,0,0,1,0,0)"><svg width="232.209792" viewBox="2.25 -5.18 100.53 5.66" height="13.048088759820985" data-palette-color="url(#b73895ea-7d2f-4397-872a-b9a73399bee0)"><path d="M4.78 0.48L4.78 0.48Q3.48 0.48 2.86-0.24 2.25-0.95 2.25-2.25L2.25-2.25 2.25-2.5Q2.25-3.78 2.86-4.48 3.48-5.18 4.78-5.18L4.78-5.18Q6.05-5.18 6.68-4.48 7.3-3.78 7.3-2.5L7.3-2.5 7.3-2.25Q7.3-0.95 6.68-0.24 6.05 0.48 4.78 0.48ZM14.32 0.48L14.32 0.48Q13.02 0.48 12.41-0.24 11.8-0.95 11.8-2.25L11.8-2.25 11.8-2.5Q11.8-3.78 12.41-4.48 13.02-5.18 14.32-5.18L14.32-5.18Q15.6-5.18 16.22-4.48 16.85-3.78 16.85-2.5L16.85-2.5 16.85-2.25Q16.85-0.95 16.22-0.24 15.6 0.48 14.32 0.48ZM23.87 0.48L23.87 0.48Q22.57 0.48 21.96-0.24 21.35-0.95 21.35-2.25L21.35-2.25 21.35-2.5Q21.35-3.78 21.96-4.48 22.57-5.18 23.87-5.18L23.87-5.18Q25.15-5.18 25.77-4.48 26.4-3.78 26.4-2.5L26.4-2.5 26.4-2.25Q26.4-0.95 25.77-0.24 25.15 0.48 23.87 0.48ZM33.42 0.48L33.42 0.48Q32.12 0.48 31.51-0.24 30.89-0.95 30.89-2.25L30.89-2.25 30.89-2.5Q30.89-3.78 31.51-4.48 32.12-5.18 33.42-5.18L33.42-5.18Q34.69-5.18 35.32-4.48 35.94-3.78 35.94-2.5L35.94-2.5 35.94-2.25Q35.94-0.95 35.32-0.24 34.69 0.48 33.42 0.48ZM42.97 0.48L42.97 0.48Q41.67 0.48 41.05-0.24 40.44-0.95 40.44-2.25L40.44-2.25 40.44-2.5Q40.44-3.78 41.05-4.48 41.67-5.18 42.97-5.18L42.97-5.18Q44.24-5.18 44.87-4.48 45.49-3.78 45.49-2.5L45.49-2.5 45.49-2.25Q45.49-0.95 44.87-0.24 44.24 0.48 42.97 0.48ZM52.51 0.48L52.51 0.48Q51.21 0.48 50.6-0.24 49.99-0.95 49.99-2.25L49.99-2.25 49.99-2.5Q49.99-3.78 50.6-4.48 51.21-5.18 52.51-5.18L52.51-5.18Q53.79-5.18 54.41-4.48 55.04-3.78 55.04-2.5L55.04-2.5 55.04-2.25Q55.04-0.95 54.41-0.24 53.79 0.48 52.51 0.48ZM62.06 0.48L62.06 0.48Q60.76 0.48 60.15-0.24 59.54-0.95 59.54-2.25L59.54-2.25 59.54-2.5Q59.54-3.78 60.15-4.48 60.76-5.18 62.06-5.18L62.06-5.18Q63.34-5.18 63.96-4.48 64.59-3.78 64.59-2.5L64.59-2.5 64.59-2.25Q64.59-0.95 63.96-0.24 63.34 0.48 62.06 0.48ZM71.61 0.48L71.61 0.48Q70.31 0.48 69.7-0.24 69.08-0.95 69.08-2.25L69.08-2.25 69.08-2.5Q69.08-3.78 69.7-4.48 70.31-5.18 71.61-5.18L71.61-5.18Q72.88-5.18 73.51-4.48 74.13-3.78 74.13-2.5L74.13-2.5 74.13-2.25Q74.13-0.95 73.51-0.24 72.88 0.48 71.61 0.48ZM81.16 0.48L81.16 0.48Q79.86 0.48 79.24-0.24 78.63-0.95 78.63-2.25L78.63-2.25 78.63-2.5Q78.63-3.78 79.24-4.48 79.86-5.18 81.16-5.18L81.16-5.18Q82.43-5.18 83.06-4.48 83.68-3.78 83.68-2.5L83.68-2.5 83.68-2.25Q83.68-0.95 83.06-0.24 82.43 0.48 81.16 0.48ZM90.7 0.48L90.7 0.48Q89.4 0.48 88.79-0.24 88.18-0.95 88.18-2.25L88.18-2.25 88.18-2.5Q88.18-3.78 88.79-4.48 89.4-5.18 90.7-5.18L90.7-5.18Q91.98-5.18 92.6-4.48 93.23-3.78 93.23-2.5L93.23-2.5 93.23-2.25Q93.23-0.95 92.6-0.24 91.98 0.48 90.7 0.48ZM100.25 0.48L100.25 0.48Q98.95 0.48 98.34-0.24 97.73-0.95 97.73-2.25L97.73-2.25 97.73-2.5Q97.73-3.78 98.34-4.48 98.95-5.18 100.25-5.18L100.25-5.18Q101.53-5.18 102.15-4.48 102.78-3.78 102.78-2.5L102.78-2.5 102.78-2.25Q102.78-0.95 102.15-0.24 101.53 0.48 100.25 0.48Z" opacity="1" transform="matrix(1,0,0,1,0,0)" fill="black" class="slogan-text-1" id="SvgjsPath9709"></path></svg></g></svg></g></svg></g></svg></g><g transform="matrix(1,0,0,1,439.55227067765145,0)"><svg viewBox="0 0 244.43135999999998 244.43135999999998" height="244.43135999999998" width="244.43135999999998"><g data-palette-color="url(#52ffcc30-b5d9-41ea-a90b-740d343cc0ec)"><rect width="66.8112384" height="244.43135999999998" fill="black" stroke="transparent" x="0" fill-opacity="1"></rect><rect width="66.8112384" height="244.43135999999998" fill="black" stroke="transparent" x="81.47711999999999" fill-opacity="0.75"></rect><rect width="66.8112384" height="244.43135999999998" fill="black" stroke="transparent" x="162.95423999999997" fill-opacity="0.5"></rect></g></svg></g></svg></g><defs><mask></mask></defs></svg><rect width="395.52" height="141.34474448082557" fill="black" stroke="none" visibility="hidden"></rect></g></mask></svg><rect width="395.52" height="141.34474448082557" fill="black" stroke="none" visibility="hidden"></rect></g></mask><linearGradient x1="0" x2="1" y1="0.548" y2="0.55" id="b73895ea-7d2f-4397-872a-b9a73399bee0"><stop stop-color="#ff6cab" offset="0"></stop><stop stop-color="#7366ff" offset="1"></stop></linearGradient><rect width="395.52" height="141.34474448082557" fill="url(#b73895ea-7d2f-4397-872a-b9a73399bee0)" mask="url(#e2652665-bdb0-4e70-a158-e7f22af0a8fc)" data-fill-palette-color="secondary"></rect><mask id="96390f28-abcc-40cd-965c-63df49567883"><g id="SvgjsG9734"><svg viewBox="0 0 395.52 141.34474448082557" height="141.34474448082557" width="395.52"><g><svg viewBox="0 0 683.9836306776514 244.43135999999998" height="141.34474448082557" width="395.52"><g transform="matrix(1,0,0,1,0,0.41682367362166417)"><svg viewBox="0 0 395.52 243.59771265275666" height="243.59771265275666" width="395.52"><g id="SvgjsG9733"><svg viewBox="0 0 395.52 243.59771265275666" height="243.59771265275666" width="395.52" id="SvgjsSvg9732"><g><svg viewBox="0 0 395.52 186.51735321528423" height="186.51735321528423" width="395.52"><g transform="matrix(1,0,0,1,0,0)"><svg width="395.52" viewBox="3 -24.78 53.65 25.310000000000002" height="186.51735321528423" data-palette-color="url(#64633a02-6df3-4ba4-8a7e-79cc5f93bb04)"></svg></g></svg></g><g transform="matrix(1,0,0,1,163.310208,230.54962389293567)"><svg viewBox="0 0 232.209792 13.048088759820985" height="13.048088759820985" width="232.209792"><g transform="matrix(1,0,0,1,0,0)"><svg width="232.209792" viewBox="2.25 -5.18 100.53 5.66" height="13.048088759820985" data-palette-color="url(#b73895ea-7d2f-4397-872a-b9a73399bee0)"></svg></g></svg></g></svg></g></svg></g><g transform="matrix(1,0,0,1,439.55227067765145,0)"><svg viewBox="0 0 244.43135999999998 244.43135999999998" height="244.43135999999998" width="244.43135999999998"><g data-palette-color="url(#52ffcc30-b5d9-41ea-a90b-740d343cc0ec)"><rect width="66.8112384" height="244.43135999999998" fill="white" stroke="transparent" x="0" fill-opacity="1"></rect><rect width="66.8112384" height="244.43135999999998" fill="white" stroke="transparent" x="81.47711999999999" fill-opacity="0.75"></rect><rect width="66.8112384" height="244.43135999999998" fill="white" stroke="transparent" x="162.95423999999997" fill-opacity="0.5"></rect></g></svg></g></svg></g><defs><mask></mask></defs><mask><g id="SvgjsG9731"><svg viewBox="0 0 395.52 141.34474448082557" height="141.34474448082557" width="395.52"><g><svg viewBox="0 0 683.9836306776514 244.43135999999998" height="141.34474448082557" width="395.52"><g transform="matrix(1,0,0,1,0,0.41682367362166417)"><svg viewBox="0 0 395.52 243.59771265275666" height="243.59771265275666" width="395.52"><g id="SvgjsG9730"><svg viewBox="0 0 395.52 243.59771265275666" height="243.59771265275666" width="395.52" id="SvgjsSvg9729"><g><svg viewBox="0 0 395.52 186.51735321528423" height="186.51735321528423" width="395.52"><g transform="matrix(1,0,0,1,0,0)"><svg width="395.52" viewBox="3 -24.78 53.65 25.310000000000002" height="186.51735321528423" data-palette-color="url(#64633a02-6df3-4ba4-8a7e-79cc5f93bb04)"><path d="M3-8.78L3-24.4 7.03-24.4 7.03-9.22Q7.03-7.3 7.56-5.86 8.1-4.42 9.33-3.64 10.55-2.85 12.63-2.85L12.63-2.85Q14.58-2.85 15.98-3.56 17.38-4.28 18.26-5.53 19.15-6.78 19.48-8.35L19.48-8.35 20.2-5.48 19.33-5.48Q18.95-3.83 17.95-2.46 16.95-1.1 15.26-0.29 13.58 0.53 11.1 0.53L11.1 0.53Q8.22 0.53 6.44-0.56 4.65-1.65 3.83-3.74 3-5.83 3-8.78L3-8.78ZM19.3-6.1L19.3-24.4 23.35-24.4 23.35 0 19.3 0 19.48-5.85 19.3-6.1ZM45.82-14.93L45.82-14.93 44.9-18.05 45.9-18.1Q46.7-21.2 48.65-22.99 50.59-24.78 53.82-24.78L53.82-24.78Q54.62-24.78 55.26-24.65 55.9-24.53 56.4-24.35L56.4-24.35 56.65-20.43Q56.02-20.63 55.26-20.75 54.5-20.88 53.57-20.88L53.57-20.88Q50.82-20.88 48.78-19.35 46.75-17.82 45.82-14.93ZM46.02-16.9L46.02 0 41.97 0 41.97-24.4 45.92-24.4 45.72-17.2 46.02-16.9Z" opacity="1" transform="matrix(1,0,0,1,0,0)" fill="black" class="wordmark-text-0" id="SvgjsPath9728"></path></svg></g></svg></g><g transform="matrix(1,0,0,1,163.310208,230.54962389293567)"><svg viewBox="0 0 232.209792 13.048088759820985" height="13.048088759820985" width="232.209792"><g transform="matrix(1,0,0,1,0,0)"><svg width="232.209792" viewBox="2.25 -5.18 100.53 5.66" height="13.048088759820985" data-palette-color="url(#b73895ea-7d2f-4397-872a-b9a73399bee0)"><path d="M4.78 0.48L4.78 0.48Q3.48 0.48 2.86-0.24 2.25-0.95 2.25-2.25L2.25-2.25 2.25-2.5Q2.25-3.78 2.86-4.48 3.48-5.18 4.78-5.18L4.78-5.18Q6.05-5.18 6.68-4.48 7.3-3.78 7.3-2.5L7.3-2.5 7.3-2.25Q7.3-0.95 6.68-0.24 6.05 0.48 4.78 0.48ZM14.32 0.48L14.32 0.48Q13.02 0.48 12.41-0.24 11.8-0.95 11.8-2.25L11.8-2.25 11.8-2.5Q11.8-3.78 12.41-4.48 13.02-5.18 14.32-5.18L14.32-5.18Q15.6-5.18 16.22-4.48 16.85-3.78 16.85-2.5L16.85-2.5 16.85-2.25Q16.85-0.95 16.22-0.24 15.6 0.48 14.32 0.48ZM23.87 0.48L23.87 0.48Q22.57 0.48 21.96-0.24 21.35-0.95 21.35-2.25L21.35-2.25 21.35-2.5Q21.35-3.78 21.96-4.48 22.57-5.18 23.87-5.18L23.87-5.18Q25.15-5.18 25.77-4.48 26.4-3.78 26.4-2.5L26.4-2.5 26.4-2.25Q26.4-0.95 25.77-0.24 25.15 0.48 23.87 0.48ZM33.42 0.48L33.42 0.48Q32.12 0.48 31.51-0.24 30.89-0.95 30.89-2.25L30.89-2.25 30.89-2.5Q30.89-3.78 31.51-4.48 32.12-5.18 33.42-5.18L33.42-5.18Q34.69-5.18 35.32-4.48 35.94-3.78 35.94-2.5L35.94-2.5 35.94-2.25Q35.94-0.95 35.32-0.24 34.69 0.48 33.42 0.48ZM42.97 0.48L42.97 0.48Q41.67 0.48 41.05-0.24 40.44-0.95 40.44-2.25L40.44-2.25 40.44-2.5Q40.44-3.78 41.05-4.48 41.67-5.18 42.97-5.18L42.97-5.18Q44.24-5.18 44.87-4.48 45.49-3.78 45.49-2.5L45.49-2.5 45.49-2.25Q45.49-0.95 44.87-0.24 44.24 0.48 42.97 0.48ZM52.51 0.48L52.51 0.48Q51.21 0.48 50.6-0.24 49.99-0.95 49.99-2.25L49.99-2.25 49.99-2.5Q49.99-3.78 50.6-4.48 51.21-5.18 52.51-5.18L52.51-5.18Q53.79-5.18 54.41-4.48 55.04-3.78 55.04-2.5L55.04-2.5 55.04-2.25Q55.04-0.95 54.41-0.24 53.79 0.48 52.51 0.48ZM62.06 0.48L62.06 0.48Q60.76 0.48 60.15-0.24 59.54-0.95 59.54-2.25L59.54-2.25 59.54-2.5Q59.54-3.78 60.15-4.48 60.76-5.18 62.06-5.18L62.06-5.18Q63.34-5.18 63.96-4.48 64.59-3.78 64.59-2.5L64.59-2.5 64.59-2.25Q64.59-0.95 63.96-0.24 63.34 0.48 62.06 0.48ZM71.61 0.48L71.61 0.48Q70.31 0.48 69.7-0.24 69.08-0.95 69.08-2.25L69.08-2.25 69.08-2.5Q69.08-3.78 69.7-4.48 70.31-5.18 71.61-5.18L71.61-5.18Q72.88-5.18 73.51-4.48 74.13-3.78 74.13-2.5L74.13-2.5 74.13-2.25Q74.13-0.95 73.51-0.24 72.88 0.48 71.61 0.48ZM81.16 0.48L81.16 0.48Q79.86 0.48 79.24-0.24 78.63-0.95 78.63-2.25L78.63-2.25 78.63-2.5Q78.63-3.78 79.24-4.48 79.86-5.18 81.16-5.18L81.16-5.18Q82.43-5.18 83.06-4.48 83.68-3.78 83.68-2.5L83.68-2.5 83.68-2.25Q83.68-0.95 83.06-0.24 82.43 0.48 81.16 0.48ZM90.7 0.48L90.7 0.48Q89.4 0.48 88.79-0.24 88.18-0.95 88.18-2.25L88.18-2.25 88.18-2.5Q88.18-3.78 88.79-4.48 89.4-5.18 90.7-5.18L90.7-5.18Q91.98-5.18 92.6-4.48 93.23-3.78 93.23-2.5L93.23-2.5 93.23-2.25Q93.23-0.95 92.6-0.24 91.98 0.48 90.7 0.48ZM100.25 0.48L100.25 0.48Q98.95 0.48 98.34-0.24 97.73-0.95 97.73-2.25L97.73-2.25 97.73-2.5Q97.73-3.78 98.34-4.48 98.95-5.18 100.25-5.18L100.25-5.18Q101.53-5.18 102.15-4.48 102.78-3.78 102.78-2.5L102.78-2.5 102.78-2.25Q102.78-0.95 102.15-0.24 101.53 0.48 100.25 0.48Z" opacity="1" transform="matrix(1,0,0,1,0,0)" fill="black" class="slogan-text-1" id="SvgjsPath9727"></path></svg></g></svg></g></svg></g></svg></g><g transform="matrix(1,0,0,1,439.55227067765145,0)"><svg viewBox="0 0 244.43135999999998 244.43135999999998" height="244.43135999999998" width="244.43135999999998"><g data-palette-color="url(#52ffcc30-b5d9-41ea-a90b-740d343cc0ec)"><rect width="66.8112384" height="244.43135999999998" fill="black" stroke="transparent" x="0" fill-opacity="1"></rect><rect width="66.8112384" height="244.43135999999998" fill="black" stroke="transparent" x="81.47711999999999" fill-opacity="0.75"></rect><rect width="66.8112384" height="244.43135999999998" fill="black" stroke="transparent" x="162.95423999999997" fill-opacity="0.5"></rect></g></svg></g></svg></g><defs><mask></mask></defs></svg><rect width="395.52" height="141.34474448082557" fill="black" stroke="none" visibility="hidden"></rect></g></mask><mask><g id="SvgjsG9726"><svg viewBox="0 0 395.52 141.34474448082557" height="141.34474448082557" width="395.52"><g><svg viewBox="0 0 683.9836306776514 244.43135999999998" height="141.34474448082557" width="395.52"><g transform="matrix(1,0,0,1,0,0.41682367362166417)"><svg viewBox="0 0 395.52 243.59771265275666" height="243.59771265275666" width="395.52"><g id="SvgjsG9725"><svg viewBox="0 0 395.52 243.59771265275666" height="243.59771265275666" width="395.52" id="SvgjsSvg9724"><g><svg viewBox="0 0 395.52 186.51735321528423" height="186.51735321528423" width="395.52"><g transform="matrix(1,0,0,1,0,0)"><svg width="395.52" viewBox="3 -24.78 53.65 25.310000000000002" height="186.51735321528423" data-palette-color="url(#64633a02-6df3-4ba4-8a7e-79cc5f93bb04)"></svg></g></svg></g><g transform="matrix(1,0,0,1,163.310208,230.54962389293567)"><svg viewBox="0 0 232.209792 13.048088759820985" height="13.048088759820985" width="232.209792"><g transform="matrix(1,0,0,1,0,0)"><svg width="232.209792" viewBox="2.25 -5.18 100.53 5.66" height="13.048088759820985" data-palette-color="url(#b73895ea-7d2f-4397-872a-b9a73399bee0)"><path d="M4.78 0.48L4.78 0.48Q3.48 0.48 2.86-0.24 2.25-0.95 2.25-2.25L2.25-2.25 2.25-2.5Q2.25-3.78 2.86-4.48 3.48-5.18 4.78-5.18L4.78-5.18Q6.05-5.18 6.68-4.48 7.3-3.78 7.3-2.5L7.3-2.5 7.3-2.25Q7.3-0.95 6.68-0.24 6.05 0.48 4.78 0.48ZM14.32 0.48L14.32 0.48Q13.02 0.48 12.41-0.24 11.8-0.95 11.8-2.25L11.8-2.25 11.8-2.5Q11.8-3.78 12.41-4.48 13.02-5.18 14.32-5.18L14.32-5.18Q15.6-5.18 16.22-4.48 16.85-3.78 16.85-2.5L16.85-2.5 16.85-2.25Q16.85-0.95 16.22-0.24 15.6 0.48 14.32 0.48ZM23.87 0.48L23.87 0.48Q22.57 0.48 21.96-0.24 21.35-0.95 21.35-2.25L21.35-2.25 21.35-2.5Q21.35-3.78 21.96-4.48 22.57-5.18 23.87-5.18L23.87-5.18Q25.15-5.18 25.77-4.48 26.4-3.78 26.4-2.5L26.4-2.5 26.4-2.25Q26.4-0.95 25.77-0.24 25.15 0.48 23.87 0.48ZM33.42 0.48L33.42 0.48Q32.12 0.48 31.51-0.24 30.89-0.95 30.89-2.25L30.89-2.25 30.89-2.5Q30.89-3.78 31.51-4.48 32.12-5.18 33.42-5.18L33.42-5.18Q34.69-5.18 35.32-4.48 35.94-3.78 35.94-2.5L35.94-2.5 35.94-2.25Q35.94-0.95 35.32-0.24 34.69 0.48 33.42 0.48ZM42.97 0.48L42.97 0.48Q41.67 0.48 41.05-0.24 40.44-0.95 40.44-2.25L40.44-2.25 40.44-2.5Q40.44-3.78 41.05-4.48 41.67-5.18 42.97-5.18L42.97-5.18Q44.24-5.18 44.87-4.48 45.49-3.78 45.49-2.5L45.49-2.5 45.49-2.25Q45.49-0.95 44.87-0.24 44.24 0.48 42.97 0.48ZM52.51 0.48L52.51 0.48Q51.21 0.48 50.6-0.24 49.99-0.95 49.99-2.25L49.99-2.25 49.99-2.5Q49.99-3.78 50.6-4.48 51.21-5.18 52.51-5.18L52.51-5.18Q53.79-5.18 54.41-4.48 55.04-3.78 55.04-2.5L55.04-2.5 55.04-2.25Q55.04-0.95 54.41-0.24 53.79 0.48 52.51 0.48ZM62.06 0.48L62.06 0.48Q60.76 0.48 60.15-0.24 59.54-0.95 59.54-2.25L59.54-2.25 59.54-2.5Q59.54-3.78 60.15-4.48 60.76-5.18 62.06-5.18L62.06-5.18Q63.34-5.18 63.96-4.48 64.59-3.78 64.59-2.5L64.59-2.5 64.59-2.25Q64.59-0.95 63.96-0.24 63.34 0.48 62.06 0.48ZM71.61 0.48L71.61 0.48Q70.31 0.48 69.7-0.24 69.08-0.95 69.08-2.25L69.08-2.25 69.08-2.5Q69.08-3.78 69.7-4.48 70.31-5.18 71.61-5.18L71.61-5.18Q72.88-5.18 73.51-4.48 74.13-3.78 74.13-2.5L74.13-2.5 74.13-2.25Q74.13-0.95 73.51-0.24 72.88 0.48 71.61 0.48ZM81.16 0.48L81.16 0.48Q79.86 0.48 79.24-0.24 78.63-0.95 78.63-2.25L78.63-2.25 78.63-2.5Q78.63-3.78 79.24-4.48 79.86-5.18 81.16-5.18L81.16-5.18Q82.43-5.18 83.06-4.48 83.68-3.78 83.68-2.5L83.68-2.5 83.68-2.25Q83.68-0.95 83.06-0.24 82.43 0.48 81.16 0.48ZM90.7 0.48L90.7 0.48Q89.4 0.48 88.79-0.24 88.18-0.95 88.18-2.25L88.18-2.25 88.18-2.5Q88.18-3.78 88.79-4.48 89.4-5.18 90.7-5.18L90.7-5.18Q91.98-5.18 92.6-4.48 93.23-3.78 93.23-2.5L93.23-2.5 93.23-2.25Q93.23-0.95 92.6-0.24 91.98 0.48 90.7 0.48ZM100.25 0.48L100.25 0.48Q98.95 0.48 98.34-0.24 97.73-0.95 97.73-2.25L97.73-2.25 97.73-2.5Q97.73-3.78 98.34-4.48 98.95-5.18 100.25-5.18L100.25-5.18Q101.53-5.18 102.15-4.48 102.78-3.78 102.78-2.5L102.78-2.5 102.78-2.25Q102.78-0.95 102.15-0.24 101.53 0.48 100.25 0.48Z" opacity="1" transform="matrix(1,0,0,1,0,0)" fill="black" class="slogan-text-1" id="SvgjsPath9723"></path></svg></g></svg></g></svg></g></svg></g><g transform="matrix(1,0,0,1,439.55227067765145,0)"><svg viewBox="0 0 244.43135999999998 244.43135999999998" height="244.43135999999998" width="244.43135999999998"><g data-palette-color="url(#52ffcc30-b5d9-41ea-a90b-740d343cc0ec)"><rect width="66.8112384" height="244.43135999999998" fill="black" stroke="transparent" x="0" fill-opacity="1"></rect><rect width="66.8112384" height="244.43135999999998" fill="black" stroke="transparent" x="81.47711999999999" fill-opacity="0.75"></rect><rect width="66.8112384" height="244.43135999999998" fill="black" stroke="transparent" x="162.95423999999997" fill-opacity="0.5"></rect></g></svg></g></svg></g><defs><mask></mask></defs><mask><g id="SvgjsG9722"><svg viewBox="0 0 395.52 141.34474448082557" height="141.34474448082557" width="395.52"><g><svg viewBox="0 0 683.9836306776514 244.43135999999998" height="141.34474448082557" width="395.52"><g transform="matrix(1,0,0,1,0,0.41682367362166417)"><svg viewBox="0 0 395.52 243.59771265275666" height="243.59771265275666" width="395.52"><g id="SvgjsG9721"><svg viewBox="0 0 395.52 243.59771265275666" height="243.59771265275666" width="395.52" id="SvgjsSvg9720"><g><svg viewBox="0 0 395.52 186.51735321528423" height="186.51735321528423" width="395.52"><g transform="matrix(1,0,0,1,0,0)"><svg width="395.52" viewBox="3 -24.78 53.65 25.310000000000002" height="186.51735321528423" data-palette-color="url(#64633a02-6df3-4ba4-8a7e-79cc5f93bb04)"><path d="M3-8.78L3-24.4 7.03-24.4 7.03-9.22Q7.03-7.3 7.56-5.86 8.1-4.42 9.33-3.64 10.55-2.85 12.63-2.85L12.63-2.85Q14.58-2.85 15.98-3.56 17.38-4.28 18.26-5.53 19.15-6.78 19.48-8.35L19.48-8.35 20.2-5.48 19.33-5.48Q18.95-3.83 17.95-2.46 16.95-1.1 15.26-0.29 13.58 0.53 11.1 0.53L11.1 0.53Q8.22 0.53 6.44-0.56 4.65-1.65 3.83-3.74 3-5.83 3-8.78L3-8.78ZM19.3-6.1L19.3-24.4 23.35-24.4 23.35 0 19.3 0 19.48-5.85 19.3-6.1ZM45.82-14.93L45.82-14.93 44.9-18.05 45.9-18.1Q46.7-21.2 48.65-22.99 50.59-24.78 53.82-24.78L53.82-24.78Q54.62-24.78 55.26-24.65 55.9-24.53 56.4-24.35L56.4-24.35 56.65-20.43Q56.02-20.63 55.26-20.75 54.5-20.88 53.57-20.88L53.57-20.88Q50.82-20.88 48.78-19.35 46.75-17.82 45.82-14.93ZM46.02-16.9L46.02 0 41.97 0 41.97-24.4 45.92-24.4 45.72-17.2 46.02-16.9Z" opacity="1" transform="matrix(1,0,0,1,0,0)" fill="black" class="wordmark-text-0" id="SvgjsPath9719"></path></svg></g></svg></g><g transform="matrix(1,0,0,1,163.310208,230.54962389293567)"><svg viewBox="0 0 232.209792 13.048088759820985" height="13.048088759820985" width="232.209792"><g transform="matrix(1,0,0,1,0,0)"><svg width="232.209792" viewBox="2.25 -5.18 100.53 5.66" height="13.048088759820985" data-palette-color="url(#b73895ea-7d2f-4397-872a-b9a73399bee0)"><path d="M4.78 0.48L4.78 0.48Q3.48 0.48 2.86-0.24 2.25-0.95 2.25-2.25L2.25-2.25 2.25-2.5Q2.25-3.78 2.86-4.48 3.48-5.18 4.78-5.18L4.78-5.18Q6.05-5.18 6.68-4.48 7.3-3.78 7.3-2.5L7.3-2.5 7.3-2.25Q7.3-0.95 6.68-0.24 6.05 0.48 4.78 0.48ZM14.32 0.48L14.32 0.48Q13.02 0.48 12.41-0.24 11.8-0.95 11.8-2.25L11.8-2.25 11.8-2.5Q11.8-3.78 12.41-4.48 13.02-5.18 14.32-5.18L14.32-5.18Q15.6-5.18 16.22-4.48 16.85-3.78 16.85-2.5L16.85-2.5 16.85-2.25Q16.85-0.95 16.22-0.24 15.6 0.48 14.32 0.48ZM23.87 0.48L23.87 0.48Q22.57 0.48 21.96-0.24 21.35-0.95 21.35-2.25L21.35-2.25 21.35-2.5Q21.35-3.78 21.96-4.48 22.57-5.18 23.87-5.18L23.87-5.18Q25.15-5.18 25.77-4.48 26.4-3.78 26.4-2.5L26.4-2.5 26.4-2.25Q26.4-0.95 25.77-0.24 25.15 0.48 23.87 0.48ZM33.42 0.48L33.42 0.48Q32.12 0.48 31.51-0.24 30.89-0.95 30.89-2.25L30.89-2.25 30.89-2.5Q30.89-3.78 31.51-4.48 32.12-5.18 33.42-5.18L33.42-5.18Q34.69-5.18 35.32-4.48 35.94-3.78 35.94-2.5L35.94-2.5 35.94-2.25Q35.94-0.95 35.32-0.24 34.69 0.48 33.42 0.48ZM42.97 0.48L42.97 0.48Q41.67 0.48 41.05-0.24 40.44-0.95 40.44-2.25L40.44-2.25 40.44-2.5Q40.44-3.78 41.05-4.48 41.67-5.18 42.97-5.18L42.97-5.18Q44.24-5.18 44.87-4.48 45.49-3.78 45.49-2.5L45.49-2.5 45.49-2.25Q45.49-0.95 44.87-0.24 44.24 0.48 42.97 0.48ZM52.51 0.48L52.51 0.48Q51.21 0.48 50.6-0.24 49.99-0.95 49.99-2.25L49.99-2.25 49.99-2.5Q49.99-3.78 50.6-4.48 51.21-5.18 52.51-5.18L52.51-5.18Q53.79-5.18 54.41-4.48 55.04-3.78 55.04-2.5L55.04-2.5 55.04-2.25Q55.04-0.95 54.41-0.24 53.79 0.48 52.51 0.48ZM62.06 0.48L62.06 0.48Q60.76 0.48 60.15-0.24 59.54-0.95 59.54-2.25L59.54-2.25 59.54-2.5Q59.54-3.78 60.15-4.48 60.76-5.18 62.06-5.18L62.06-5.18Q63.34-5.18 63.96-4.48 64.59-3.78 64.59-2.5L64.59-2.5 64.59-2.25Q64.59-0.95 63.96-0.24 63.34 0.48 62.06 0.48ZM71.61 0.48L71.61 0.48Q70.31 0.48 69.7-0.24 69.08-0.95 69.08-2.25L69.08-2.25 69.08-2.5Q69.08-3.78 69.7-4.48 70.31-5.18 71.61-5.18L71.61-5.18Q72.88-5.18 73.51-4.48 74.13-3.78 74.13-2.5L74.13-2.5 74.13-2.25Q74.13-0.95 73.51-0.24 72.88 0.48 71.61 0.48ZM81.16 0.48L81.16 0.48Q79.86 0.48 79.24-0.24 78.63-0.95 78.63-2.25L78.63-2.25 78.63-2.5Q78.63-3.78 79.24-4.48 79.86-5.18 81.16-5.18L81.16-5.18Q82.43-5.18 83.06-4.48 83.68-3.78 83.68-2.5L83.68-2.5 83.68-2.25Q83.68-0.95 83.06-0.24 82.43 0.48 81.16 0.48ZM90.7 0.48L90.7 0.48Q89.4 0.48 88.79-0.24 88.18-0.95 88.18-2.25L88.18-2.25 88.18-2.5Q88.18-3.78 88.79-4.48 89.4-5.18 90.7-5.18L90.7-5.18Q91.98-5.18 92.6-4.48 93.23-3.78 93.23-2.5L93.23-2.5 93.23-2.25Q93.23-0.95 92.6-0.24 91.98 0.48 90.7 0.48ZM100.25 0.48L100.25 0.48Q98.95 0.48 98.34-0.24 97.73-0.95 97.73-2.25L97.73-2.25 97.73-2.5Q97.73-3.78 98.34-4.48 98.95-5.18 100.25-5.18L100.25-5.18Q101.53-5.18 102.15-4.48 102.78-3.78 102.78-2.5L102.78-2.5 102.78-2.25Q102.78-0.95 102.15-0.24 101.53 0.48 100.25 0.48Z" opacity="1" transform="matrix(1,0,0,1,0,0)" fill="black" class="slogan-text-1" id="SvgjsPath9718"></path></svg></g></svg></g></svg></g></svg></g><g transform="matrix(1,0,0,1,439.55227067765145,0)"><svg viewBox="0 0 244.43135999999998 244.43135999999998" height="244.43135999999998" width="244.43135999999998"><g data-palette-color="url(#52ffcc30-b5d9-41ea-a90b-740d343cc0ec)"><rect width="66.8112384" height="244.43135999999998" fill="black" stroke="transparent" x="0" fill-opacity="1"></rect><rect width="66.8112384" height="244.43135999999998" fill="black" stroke="transparent" x="81.47711999999999" fill-opacity="0.75"></rect><rect width="66.8112384" height="244.43135999999998" fill="black" stroke="transparent" x="162.95423999999997" fill-opacity="0.5"></rect></g></svg></g></svg></g><defs><mask></mask></defs></svg><rect width="395.52" height="141.34474448082557" fill="black" stroke="none" visibility="hidden"></rect></g></mask></svg><rect width="395.52" height="141.34474448082557" fill="black" stroke="none" visibility="hidden"></rect></g></mask></svg><rect width="395.52" height="141.34474448082557" fill="black" stroke="none" visibility="hidden"></rect></g></mask><linearGradient x1="0" x2="1" y1="0.548" y2="0.55" id="52ffcc30-b5d9-41ea-a90b-740d343cc0ec"><stop stop-color="#ff6cab" offset="0"></stop><stop stop-color="#7366ff" offset="1"></stop></linearGradient><rect width="395.52" height="141.34474448082557" fill="url(#52ffcc30-b5d9-41ea-a90b-740d343cc0ec)" mask="url(#96390f28-abcc-40cd-965c-63df49567883)" data-fill-palette-color="accent"></rect></svg><rect width="395.52" height="141.34474448082557" fill="none" stroke="none" visibility="hidden"></rect></g></svg></g></svg>