<svg xmlns="http://www.w3.org/2000/svg" version="1.1" xmlns:xlink="http://www.w3.org/1999/xlink" xmlns:svgjs="http://svgjs.dev/svgjs" width="2000" height="747" viewBox="0 0 2000 747"><g transform="matrix(1,0,0,1,-1.2121212121212466,-0.41749251921447694)"><svg viewBox="0 0 396 148" data-background-color="#000000" preserveAspectRatio="xMidYMid meet" height="747" width="2000" xmlns="http://www.w3.org/2000/svg" xmlns:xlink="http://www.w3.org/1999/xlink"><g id="tight-bounds" transform="matrix(1,0,0,1,0.2400000000000091,0.0827160546770358)"><svg viewBox="0 0 395.52 147.83456789064593" height="147.83456789064593" width="395.52"><g><svg viewBox="0 0 683.9836306776514 255.65439038608855" height="147.83456789064593" width="395.52"><g><svg viewBox="0 0 395.52 255.65439038608855" height="255.65439038608855" width="395.52"><g id="textblocktransform"><svg viewBox="0 0 395.52 255.65439038608855" height="255.65439038608855" width="395.52" id="textblock"><g><svg viewBox="0 0 395.52 186.51735321528423" height="186.51735321528423" width="395.52"><g transform="matrix(1,0,0,1,0,0)"><svg width="395.52" viewBox="3 -24.78 53.65 25.310000000000002" height="186.51735321528423" data-palette-color="url(#d76e9257-8b03-4b14-b89c-0d47015c5eed)"></svg></g></svg></g><g transform="matrix(1,0,0,1,163.310208,230.54962389293567)"><svg viewBox="0 0 232.209792 25.104766493152876" height="25.104766493152876" width="232.209792"><g transform="matrix(1,0,0,1,0,0)"><svg width="232.209792" viewBox="3 -33.13 312.14 33.760000000000005" height="25.104766493152876" data-palette-color="url(#9b80d1ef-cb6f-488d-8c4e-8b45c03bb48e)"></svg></g></svg></g></svg></g></svg></g><g transform="matrix(1,0,0,1,439.55227067765145,5.6115151930442835)"><svg viewBox="0 0 244.43135999999998 244.43135999999998" height="244.43135999999998" width="244.43135999999998"><g data-palette-color="url(#4224a25b-a46d-455a-859f-ec830682586e)"></g></svg></g></svg></g><defs></defs><mask id="6a360c7c-b450-4e43-bc08-a65cccdc35e4"><g id="SvgjsG1605"><svg viewBox="0 0 395.52 147.83456789064593" height="147.83456789064593" width="395.52"><g><svg viewBox="0 0 683.9836306776514 255.65439038608855" height="147.83456789064593" width="395.52"><g><svg viewBox="0 0 395.52 255.65439038608855" height="255.65439038608855" width="395.52"><g id="SvgjsG1604"><svg viewBox="0 0 395.52 255.65439038608855" height="255.65439038608855" width="395.52" id="SvgjsSvg1603"><g><svg viewBox="0 0 395.52 186.51735321528423" height="186.51735321528423" width="395.52"><g transform="matrix(1,0,0,1,0,0)"><svg width="395.52" viewBox="3 -24.78 53.65 25.310000000000002" height="186.51735321528423" data-palette-color="url(#d76e9257-8b03-4b14-b89c-0d47015c5eed)"><path d="M3-8.78L3-24.4 7.03-24.4 7.03-9.22Q7.03-7.3 7.56-5.86 8.1-4.42 9.33-3.64 10.55-2.85 12.63-2.85L12.63-2.85Q14.58-2.85 15.98-3.56 17.38-4.28 18.26-5.53 19.15-6.78 19.48-8.35L19.48-8.35 20.2-5.48 19.33-5.48Q18.95-3.83 17.95-2.46 16.95-1.1 15.26-0.29 13.58 0.53 11.1 0.53L11.1 0.53Q8.22 0.53 6.44-0.56 4.65-1.65 3.83-3.74 3-5.83 3-8.78L3-8.78ZM19.3-6.1L19.3-24.4 23.35-24.4 23.35 0 19.3 0 19.48-5.85 19.3-6.1ZM45.82-14.93L45.82-14.93 44.9-18.05 45.9-18.1Q46.7-21.2 48.65-22.99 50.59-24.78 53.82-24.78L53.82-24.78Q54.62-24.78 55.26-24.65 55.9-24.53 56.4-24.35L56.4-24.35 56.65-20.43Q56.02-20.63 55.26-20.75 54.5-20.88 53.57-20.88L53.57-20.88Q50.82-20.88 48.78-19.35 46.75-17.82 45.82-14.93ZM46.02-16.9L46.02 0 41.97 0 41.97-24.4 45.92-24.4 45.72-17.2 46.02-16.9Z" opacity="1" transform="matrix(1,0,0,1,0,0)" fill="white" class="wordmark-text-0" id="SvgjsPath1602"></path></svg></g></svg></g><g transform="matrix(1,0,0,1,163.310208,230.54962389293567)"><svg viewBox="0 0 232.209792 25.104766493152876" height="25.104766493152876" width="232.209792"><g transform="matrix(1,0,0,1,0,0)"><svg width="232.209792" viewBox="3 -33.13 312.14 33.760000000000005" height="25.104766493152876" data-palette-color="url(#9b80d1ef-cb6f-488d-8c4e-8b45c03bb48e)"><path d="M3-8.78L3-24.4 7.03-24.4 7.03-9.22Q7.03-7.3 7.56-5.86 8.1-4.42 9.33-3.64 10.55-2.85 12.63-2.85L12.63-2.85Q14.58-2.85 15.98-3.56 17.38-4.28 18.26-5.53 19.15-6.78 19.48-8.35L19.48-8.35 20.2-5.48 19.33-5.48Q18.95-3.83 17.95-2.46 16.95-1.1 15.26-0.29 13.58 0.53 11.1 0.53L11.1 0.53Q8.22 0.53 6.44-0.56 4.65-1.65 3.83-3.74 3-5.83 3-8.78L3-8.78ZM19.3-6.1L19.3-24.4 23.35-24.4 23.35 0 19.3 0 19.48-5.85 19.3-6.1ZM33.8-14.93L33.8-14.93 32.87-18.05 33.87-18.1Q34.67-21.2 36.62-22.99 38.57-24.78 41.8-24.78L41.8-24.78Q42.6-24.78 43.23-24.65 43.87-24.53 44.37-24.35L44.37-24.35 44.62-20.43Q44-20.63 43.23-20.75 42.47-20.88 41.55-20.88L41.55-20.88Q38.8-20.88 36.76-19.35 34.72-17.82 33.8-14.93ZM34-16.9L34 0 29.95 0 29.95-24.4 33.9-24.4 33.7-17.2 34-16.9ZM60.62 0.53L60.62 0.53Q58.37 0.53 56.71-0.23 55.05-0.98 54.02-2.38 53-3.78 52.65-5.63L52.65-5.63 51.3-5.63 52.52-9.43Q52.65-7.23 53.56-5.76 54.47-4.3 56-3.58 57.52-2.85 59.45-2.85L59.45-2.85Q62.5-2.85 64.11-4.65 65.72-6.45 65.72-10L65.72-10 65.72-14.58Q65.72-18.05 64.09-19.85 62.47-21.65 59.37-21.65L59.37-21.65Q57.52-21.65 56.09-20.93 54.67-20.2 53.73-18.95 52.8-17.7 52.45-16.1L52.45-16.1 51.52-18.93 52.67-18.93Q53.05-20.6 54.01-21.96 54.97-23.33 56.65-24.14 58.32-24.95 60.8-24.95L60.8-24.95Q65.2-24.95 67.5-22.21 69.8-19.48 69.8-14.28L69.8-14.28 69.8-10.23Q69.8-4.98 67.46-2.23 65.12 0.53 60.62 0.53ZM52.47-5.9L52.65 0 48.59 0 48.59-33.13 52.62-33.13 52.62-25.18 52.5-18.18 52.52-17.4 52.52-7.2 52.47-5.9ZM93.87-15.8L93.87 0 89.84 0 90.02-5.93 89.87-6.55 89.87-14.33 89.89-15.75Q89.89-18.73 88.38-20.15 86.87-21.58 83.59-21.58L83.59-21.58Q80.97-21.58 78.78-20.83 76.59-20.08 74.89-19.07L74.89-19.07 75.27-22.53Q76.22-23.1 77.53-23.66 78.84-24.23 80.53-24.6 82.22-24.98 84.24-24.98L84.24-24.98Q86.87-24.98 88.71-24.34 90.54-23.7 91.68-22.5 92.82-21.3 93.34-19.6 93.87-17.9 93.87-15.8L93.87-15.8ZM81.44 0.53L81.44 0.53Q77.82 0.53 75.88-1.24 73.94-3 73.94-6.28L73.94-6.28 73.94-7Q73.94-10.38 76.03-12.04 78.12-13.7 82.67-14.35L82.67-14.35 90.39-15.45 90.62-12.5 83.17-11.43Q80.37-11.03 79.17-10.06 77.97-9.1 77.97-7.23L77.97-7.23 77.97-6.83Q77.97-4.9 79.16-3.88 80.34-2.85 82.72-2.85L82.72-2.85Q84.82-2.85 86.32-3.58 87.82-4.3 88.74-5.53 89.67-6.75 89.99-8.25L89.99-8.25 90.62-5.5 89.84-5.5Q89.49-3.9 88.53-2.53 87.57-1.15 85.84-0.31 84.12 0.53 81.44 0.53ZM120.44-15.63L120.44 0 116.39 0 116.39-15.18Q116.39-17.15 115.85-18.57 115.32-20 114.1-20.79 112.89-21.58 110.79-21.58L110.79-21.58Q108.87-21.58 107.45-20.85 106.04-20.13 105.17-18.89 104.29-17.65 103.94-16.07L103.94-16.07 103.22-18.95 104.09-18.95Q104.49-20.6 105.49-21.96 106.49-23.33 108.18-24.14 109.87-24.95 112.32-24.95L112.32-24.95Q115.22-24.95 117-23.85 118.79-22.75 119.62-20.69 120.44-18.63 120.44-15.63L120.44-15.63ZM104.12-18.32L104.12 0 100.07 0 100.07-24.4 104.12-24.4 103.94-18.55 104.12-18.32ZM142.51-14.93L142.51-14.93 141.59-18.05 142.59-18.1Q143.39-21.2 145.34-22.99 147.29-24.78 150.51-24.78L150.51-24.78Q151.31-24.78 151.95-24.65 152.59-24.53 153.09-24.35L153.09-24.35 153.34-20.43Q152.71-20.63 151.95-20.75 151.19-20.88 150.26-20.88L150.26-20.88Q147.51-20.88 145.47-19.35 143.44-17.82 142.51-14.93ZM142.71-16.9L142.71 0 138.66 0 138.66-24.4 142.61-24.4 142.41-17.2 142.71-16.9ZM166.91 0.55L166.91 0.55Q161.33 0.55 158.51-2.18 155.68-4.9 155.68-9.98L155.68-9.98 155.68-14.33Q155.68-19.48 158.31-22.26 160.93-25.05 165.98-25.05L165.98-25.05Q169.38-25.05 171.66-23.79 173.93-22.53 175.08-20.2 176.23-17.88 176.23-14.65L176.23-14.65 176.23-13.75Q176.23-12.95 176.17-12.15 176.11-11.35 176.01-10.58L176.01-10.58 172.28-10.58Q172.33-11.78 172.35-12.85 172.36-13.93 172.36-14.83L172.36-14.83Q172.36-17.05 171.65-18.59 170.93-20.13 169.52-20.94 168.11-21.75 165.98-21.75L165.98-21.75Q162.83-21.75 161.26-19.93 159.68-18.1 159.68-14.7L159.68-14.7 159.68-12.38 159.71-11.88 159.71-9.55Q159.71-8.03 160.16-6.8 160.61-5.58 161.57-4.69 162.53-3.8 164.02-3.34 165.51-2.88 167.56-2.88L167.56-2.88Q169.93-2.88 171.98-3.5 174.03-4.13 175.83-5.2L175.83-5.2 175.46-1.7Q173.83-0.68 171.68-0.06 169.53 0.55 166.91 0.55ZM175.16-13.63L175.16-10.58 157.81-10.58 157.81-13.63 175.16-13.63ZM189.33 0.55L189.33 0.55Q186.38 0.55 184.18-0.09 181.98-0.73 180.53-1.48L180.53-1.48 180.16-5.23Q181.98-4.28 184.17-3.58 186.35-2.88 189.13-2.88L189.13-2.88Q191.96-2.88 193.38-3.78 194.81-4.67 194.81-6.45L194.81-6.45 194.81-6.73Q194.81-7.88 194.27-8.63 193.73-9.38 192.33-9.95 190.93-10.53 188.35-11.1L188.35-11.1Q185.28-11.78 183.5-12.69 181.73-13.6 180.97-14.95 180.21-16.3 180.21-18.25L180.21-18.25 180.21-18.48Q180.21-21.68 182.43-23.33 184.66-24.98 189.13-24.98L189.13-24.98Q192-24.98 194.12-24.33 196.23-23.68 197.58-22.88L197.58-22.88 197.96-19.45Q196.33-20.4 194.23-21.03 192.13-21.65 189.5-21.65L189.5-21.65Q187.6-21.65 186.43-21.26 185.25-20.88 184.73-20.16 184.21-19.45 184.21-18.45L184.21-18.45 184.21-18.25Q184.21-17.15 184.73-16.39 185.25-15.63 186.62-15.06 187.98-14.5 190.41-13.98L190.41-13.98Q193.53-13.35 195.37-12.48 197.21-11.6 198-10.26 198.81-8.93 198.81-6.83L198.81-6.83 198.81-6.4Q198.81-2.95 196.41-1.2 194 0.55 189.33 0.55ZM213.4 0.63L213.4 0.63Q208.15 0.63 205.44-2.21 202.73-5.05 202.73-10.38L202.73-10.38 202.73-14.1Q202.73-19.4 205.45-22.23 208.18-25.05 213.4-25.05L213.4-25.05Q218.65-25.05 221.37-22.23 224.08-19.4 224.08-14.1L224.08-14.1 224.08-10.38Q224.08-5.05 221.37-2.21 218.65 0.63 213.4 0.63ZM213.4-2.68L213.4-2.68Q216.65-2.68 218.34-4.6 220.03-6.53 220.03-10.15L220.03-10.15 220.03-14.33Q220.03-17.93 218.34-19.84 216.65-21.75 213.4-21.75L213.4-21.75Q210.18-21.75 208.48-19.84 206.78-17.93 206.78-14.33L206.78-14.33 206.78-10.15Q206.78-6.53 208.48-4.6 210.18-2.68 213.4-2.68ZM229.4-8.78L229.4-24.4 233.43-24.4 233.43-9.22Q233.43-7.3 233.96-5.86 234.5-4.42 235.72-3.64 236.95-2.85 239.03-2.85L239.03-2.85Q240.97-2.85 242.38-3.56 243.78-4.28 244.66-5.53 245.55-6.78 245.88-8.35L245.88-8.35 246.6-5.48 245.73-5.48Q245.35-3.83 244.35-2.46 243.35-1.1 241.66-0.29 239.97 0.53 237.5 0.53L237.5 0.53Q234.63 0.53 232.84-0.56 231.05-1.65 230.22-3.74 229.4-5.83 229.4-8.78L229.4-8.78ZM245.7-6.1L245.7-24.4 249.75-24.4 249.75 0 245.7 0 245.88-5.85 245.7-6.1ZM260.2-14.93L260.2-14.93 259.27-18.05 260.27-18.1Q261.07-21.2 263.02-22.99 264.97-24.78 268.2-24.78L268.2-24.78Q269-24.78 269.63-24.65 270.27-24.53 270.77-24.35L270.77-24.35 271.02-20.43Q270.4-20.63 269.63-20.75 268.87-20.88 267.95-20.88L267.95-20.88Q265.2-20.88 263.16-19.35 261.12-17.82 260.2-14.93ZM260.4-16.9L260.4 0 256.35 0 256.35-24.4 260.3-24.4 260.1-17.2 260.4-16.9ZM283.75 0.55L283.75 0.55Q278.5 0.55 275.93-2.29 273.37-5.13 273.37-10.33L273.37-10.33 273.37-14.13Q273.37-19.35 275.94-22.16 278.52-24.98 283.75-24.98L283.75-24.98Q285.3-24.98 286.57-24.69 287.85-24.4 288.86-23.94 289.87-23.48 290.57-22.98L290.57-22.98 290.92-19.45Q289.75-20.35 288.13-20.98 286.52-21.6 284.35-21.6L284.35-21.6Q280.85-21.6 279.13-19.66 277.42-17.73 277.42-14.03L277.42-14.03 277.42-10.43Q277.42-6.8 279.13-4.85 280.85-2.9 284.35-2.9L284.35-2.9Q286.6-2.9 288.23-3.53 289.87-4.15 291.15-5.05L291.15-5.05 290.77-1.48Q289.67-0.73 287.9-0.09 286.12 0.55 283.75 0.55ZM305.82 0.55L305.82 0.55Q300.24 0.55 297.42-2.18 294.59-4.9 294.59-9.98L294.59-9.98 294.59-14.33Q294.59-19.48 297.22-22.26 299.84-25.05 304.89-25.05L304.89-25.05Q308.29-25.05 310.57-23.79 312.84-22.53 313.99-20.2 315.14-17.88 315.14-14.65L315.14-14.65 315.14-13.75Q315.14-12.95 315.08-12.15 315.02-11.35 314.92-10.58L314.92-10.58 311.19-10.58Q311.24-11.78 311.25-12.85 311.27-13.93 311.27-14.83L311.27-14.83Q311.27-17.05 310.56-18.59 309.84-20.13 308.43-20.94 307.02-21.75 304.89-21.75L304.89-21.75Q301.74-21.75 300.17-19.93 298.59-18.1 298.59-14.7L298.59-14.7 298.59-12.38 298.62-11.88 298.62-9.55Q298.62-8.03 299.07-6.8 299.52-5.58 300.48-4.69 301.44-3.8 302.93-3.34 304.42-2.88 306.47-2.88L306.47-2.88Q308.84-2.88 310.89-3.5 312.94-4.13 314.74-5.2L314.74-5.2 314.37-1.7Q312.74-0.68 310.59-0.06 308.44 0.55 305.82 0.55ZM314.07-13.63L314.07-10.58 296.72-10.58 296.72-13.63 314.07-13.63Z" opacity="1" transform="matrix(1,0,0,1,0,0)" fill="black" class="slogan-text-1" id="SvgjsPath1601"></path></svg></g></svg></g></svg></g></svg></g><g transform="matrix(1,0,0,1,439.55227067765145,5.6115151930442835)"><svg viewBox="0 0 244.43135999999998 244.43135999999998" height="244.43135999999998" width="244.43135999999998"><g data-palette-color="url(#4224a25b-a46d-455a-859f-ec830682586e)"><rect width="66.8112384" height="244.43135999999998" fill="black" stroke="transparent" x="0" fill-opacity="1"></rect><rect width="66.8112384" height="244.43135999999998" fill="black" stroke="transparent" x="81.47711999999999" fill-opacity="0.75"></rect><rect width="66.8112384" height="244.43135999999998" fill="black" stroke="transparent" x="162.95423999999997" fill-opacity="0.5"></rect></g></svg></g></svg></g><defs><mask></mask></defs></svg><rect width="395.52" height="147.83456789064593" fill="black" stroke="none" visibility="hidden"></rect></g></mask><linearGradient x1="0" x2="1" y1="0.548" y2="0.55" id="d76e9257-8b03-4b14-b89c-0d47015c5eed"><stop stop-color="#ff6cab" offset="0"></stop><stop stop-color="#7366ff" offset="1"></stop></linearGradient><rect width="395.52" height="147.83456789064593" fill="url(#d76e9257-8b03-4b14-b89c-0d47015c5eed)" mask="url(#6a360c7c-b450-4e43-bc08-a65cccdc35e4)" data-fill-palette-color="primary"></rect><mask id="41a6feae-a3ee-43b5-9a97-2897ec736ae5"><g id="SvgjsG1614"><svg viewBox="0 0 395.52 147.83456789064593" height="147.83456789064593" width="395.52"><g><svg viewBox="0 0 683.9836306776514 255.65439038608855" height="147.83456789064593" width="395.52"><g><svg viewBox="0 0 395.52 255.65439038608855" height="255.65439038608855" width="395.52"><g id="SvgjsG1613"><svg viewBox="0 0 395.52 255.65439038608855" height="255.65439038608855" width="395.52" id="SvgjsSvg1612"><g><svg viewBox="0 0 395.52 186.51735321528423" height="186.51735321528423" width="395.52"><g transform="matrix(1,0,0,1,0,0)"><svg width="395.52" viewBox="3 -24.78 53.65 25.310000000000002" height="186.51735321528423" data-palette-color="url(#d76e9257-8b03-4b14-b89c-0d47015c5eed)"></svg></g></svg></g><g transform="matrix(1,0,0,1,163.310208,230.54962389293567)"><svg viewBox="0 0 232.209792 25.104766493152876" height="25.104766493152876" width="232.209792"><g transform="matrix(1,0,0,1,0,0)"><svg width="232.209792" viewBox="3 -33.13 312.14 33.760000000000005" height="25.104766493152876" data-palette-color="url(#9b80d1ef-cb6f-488d-8c4e-8b45c03bb48e)"><path d="M3-8.78L3-24.4 7.03-24.4 7.03-9.22Q7.03-7.3 7.56-5.86 8.1-4.42 9.33-3.64 10.55-2.85 12.63-2.85L12.63-2.85Q14.58-2.85 15.98-3.56 17.38-4.28 18.26-5.53 19.15-6.78 19.48-8.35L19.48-8.35 20.2-5.48 19.33-5.48Q18.95-3.83 17.95-2.46 16.95-1.1 15.26-0.29 13.58 0.53 11.1 0.53L11.1 0.53Q8.22 0.53 6.44-0.56 4.65-1.65 3.83-3.74 3-5.83 3-8.78L3-8.78ZM19.3-6.1L19.3-24.4 23.35-24.4 23.35 0 19.3 0 19.48-5.85 19.3-6.1ZM33.8-14.93L33.8-14.93 32.87-18.05 33.87-18.1Q34.67-21.2 36.62-22.99 38.57-24.78 41.8-24.78L41.8-24.78Q42.6-24.78 43.23-24.65 43.87-24.53 44.37-24.35L44.37-24.35 44.62-20.43Q44-20.63 43.23-20.75 42.47-20.88 41.55-20.88L41.55-20.88Q38.8-20.88 36.76-19.35 34.72-17.82 33.8-14.93ZM34-16.9L34 0 29.95 0 29.95-24.4 33.9-24.4 33.7-17.2 34-16.9ZM60.62 0.53L60.62 0.53Q58.37 0.53 56.71-0.23 55.05-0.98 54.02-2.38 53-3.78 52.65-5.63L52.65-5.63 51.3-5.63 52.52-9.43Q52.65-7.23 53.56-5.76 54.47-4.3 56-3.58 57.52-2.85 59.45-2.85L59.45-2.85Q62.5-2.85 64.11-4.65 65.72-6.45 65.72-10L65.72-10 65.72-14.58Q65.72-18.05 64.09-19.85 62.47-21.65 59.37-21.65L59.37-21.65Q57.52-21.65 56.09-20.93 54.67-20.2 53.73-18.95 52.8-17.7 52.45-16.1L52.45-16.1 51.52-18.93 52.67-18.93Q53.05-20.6 54.01-21.96 54.97-23.33 56.65-24.14 58.32-24.95 60.8-24.95L60.8-24.95Q65.2-24.95 67.5-22.21 69.8-19.48 69.8-14.28L69.8-14.28 69.8-10.23Q69.8-4.98 67.46-2.23 65.12 0.53 60.62 0.53ZM52.47-5.9L52.65 0 48.59 0 48.59-33.13 52.62-33.13 52.62-25.18 52.5-18.18 52.52-17.4 52.52-7.2 52.47-5.9ZM93.87-15.8L93.87 0 89.84 0 90.02-5.93 89.87-6.55 89.87-14.33 89.89-15.75Q89.89-18.73 88.38-20.15 86.87-21.58 83.59-21.58L83.59-21.58Q80.97-21.58 78.78-20.83 76.59-20.08 74.89-19.07L74.89-19.07 75.27-22.53Q76.22-23.1 77.53-23.66 78.84-24.23 80.53-24.6 82.22-24.98 84.24-24.98L84.24-24.98Q86.87-24.98 88.71-24.34 90.54-23.7 91.68-22.5 92.82-21.3 93.34-19.6 93.87-17.9 93.87-15.8L93.87-15.8ZM81.44 0.53L81.44 0.53Q77.82 0.53 75.88-1.24 73.94-3 73.94-6.28L73.94-6.28 73.94-7Q73.94-10.38 76.03-12.04 78.12-13.7 82.67-14.35L82.67-14.35 90.39-15.45 90.62-12.5 83.17-11.43Q80.37-11.03 79.17-10.06 77.97-9.1 77.97-7.23L77.97-7.23 77.97-6.83Q77.97-4.9 79.16-3.88 80.34-2.85 82.72-2.85L82.72-2.85Q84.82-2.85 86.32-3.58 87.82-4.3 88.74-5.53 89.67-6.75 89.99-8.25L89.99-8.25 90.62-5.5 89.84-5.5Q89.49-3.9 88.53-2.53 87.57-1.15 85.84-0.31 84.12 0.53 81.44 0.53ZM120.44-15.63L120.44 0 116.39 0 116.39-15.18Q116.39-17.15 115.85-18.57 115.32-20 114.1-20.79 112.89-21.58 110.79-21.58L110.79-21.58Q108.87-21.58 107.45-20.85 106.04-20.13 105.17-18.89 104.29-17.65 103.94-16.07L103.94-16.07 103.22-18.95 104.09-18.95Q104.49-20.6 105.49-21.96 106.49-23.33 108.18-24.14 109.87-24.95 112.32-24.95L112.32-24.95Q115.22-24.95 117-23.85 118.79-22.75 119.62-20.69 120.44-18.63 120.44-15.63L120.44-15.63ZM104.12-18.32L104.12 0 100.07 0 100.07-24.4 104.12-24.4 103.94-18.55 104.12-18.32ZM142.51-14.93L142.51-14.93 141.59-18.05 142.59-18.1Q143.39-21.2 145.34-22.99 147.29-24.78 150.51-24.78L150.51-24.78Q151.31-24.78 151.95-24.65 152.59-24.53 153.09-24.35L153.09-24.35 153.34-20.43Q152.71-20.63 151.95-20.75 151.19-20.88 150.26-20.88L150.26-20.88Q147.51-20.88 145.47-19.35 143.44-17.82 142.51-14.93ZM142.71-16.9L142.71 0 138.66 0 138.66-24.4 142.61-24.4 142.41-17.2 142.71-16.9ZM166.91 0.55L166.91 0.55Q161.33 0.55 158.51-2.18 155.68-4.9 155.68-9.98L155.68-9.98 155.68-14.33Q155.68-19.48 158.31-22.26 160.93-25.05 165.98-25.05L165.98-25.05Q169.38-25.05 171.66-23.79 173.93-22.53 175.08-20.2 176.23-17.88 176.23-14.65L176.23-14.65 176.23-13.75Q176.23-12.95 176.17-12.15 176.11-11.35 176.01-10.58L176.01-10.58 172.28-10.58Q172.33-11.78 172.35-12.85 172.36-13.93 172.36-14.83L172.36-14.83Q172.36-17.05 171.65-18.59 170.93-20.13 169.52-20.94 168.11-21.75 165.98-21.75L165.98-21.75Q162.83-21.75 161.26-19.93 159.68-18.1 159.68-14.7L159.68-14.7 159.68-12.38 159.71-11.88 159.71-9.55Q159.71-8.03 160.16-6.8 160.61-5.58 161.57-4.69 162.53-3.8 164.02-3.34 165.51-2.88 167.56-2.88L167.56-2.88Q169.93-2.88 171.98-3.5 174.03-4.13 175.83-5.2L175.83-5.2 175.46-1.7Q173.83-0.68 171.68-0.06 169.53 0.55 166.91 0.55ZM175.16-13.63L175.16-10.58 157.81-10.58 157.81-13.63 175.16-13.63ZM189.33 0.55L189.33 0.55Q186.38 0.55 184.18-0.09 181.98-0.73 180.53-1.48L180.53-1.48 180.16-5.23Q181.98-4.28 184.17-3.58 186.35-2.88 189.13-2.88L189.13-2.88Q191.96-2.88 193.38-3.78 194.81-4.67 194.81-6.45L194.81-6.45 194.81-6.73Q194.81-7.88 194.27-8.63 193.73-9.38 192.33-9.95 190.93-10.53 188.35-11.1L188.35-11.1Q185.28-11.78 183.5-12.69 181.73-13.6 180.97-14.95 180.21-16.3 180.21-18.25L180.21-18.25 180.21-18.48Q180.21-21.68 182.43-23.33 184.66-24.98 189.13-24.98L189.13-24.98Q192-24.98 194.12-24.33 196.23-23.68 197.58-22.88L197.58-22.88 197.96-19.45Q196.33-20.4 194.23-21.03 192.13-21.65 189.5-21.65L189.5-21.65Q187.6-21.65 186.43-21.26 185.25-20.88 184.73-20.16 184.21-19.45 184.21-18.45L184.21-18.45 184.21-18.25Q184.21-17.15 184.73-16.39 185.25-15.63 186.62-15.06 187.98-14.5 190.41-13.98L190.41-13.98Q193.53-13.35 195.37-12.48 197.21-11.6 198-10.26 198.81-8.93 198.81-6.83L198.81-6.83 198.81-6.4Q198.81-2.95 196.41-1.2 194 0.55 189.33 0.55ZM213.4 0.63L213.4 0.63Q208.15 0.63 205.44-2.21 202.73-5.05 202.73-10.38L202.73-10.38 202.73-14.1Q202.73-19.4 205.45-22.23 208.18-25.05 213.4-25.05L213.4-25.05Q218.65-25.05 221.37-22.23 224.08-19.4 224.08-14.1L224.08-14.1 224.08-10.38Q224.08-5.05 221.37-2.21 218.65 0.63 213.4 0.63ZM213.4-2.68L213.4-2.68Q216.65-2.68 218.34-4.6 220.03-6.53 220.03-10.15L220.03-10.15 220.03-14.33Q220.03-17.93 218.34-19.84 216.65-21.75 213.4-21.75L213.4-21.75Q210.18-21.75 208.48-19.84 206.78-17.93 206.78-14.33L206.78-14.33 206.78-10.15Q206.78-6.53 208.48-4.6 210.18-2.68 213.4-2.68ZM229.4-8.78L229.4-24.4 233.43-24.4 233.43-9.22Q233.43-7.3 233.96-5.86 234.5-4.42 235.72-3.64 236.95-2.85 239.03-2.85L239.03-2.85Q240.97-2.85 242.38-3.56 243.78-4.28 244.66-5.53 245.55-6.78 245.88-8.35L245.88-8.35 246.6-5.48 245.73-5.48Q245.35-3.83 244.35-2.46 243.35-1.1 241.66-0.29 239.97 0.53 237.5 0.53L237.5 0.53Q234.63 0.53 232.84-0.56 231.05-1.65 230.22-3.74 229.4-5.83 229.4-8.78L229.4-8.78ZM245.7-6.1L245.7-24.4 249.75-24.4 249.75 0 245.7 0 245.88-5.85 245.7-6.1ZM260.2-14.93L260.2-14.93 259.27-18.05 260.27-18.1Q261.07-21.2 263.02-22.99 264.97-24.78 268.2-24.78L268.2-24.78Q269-24.78 269.63-24.65 270.27-24.53 270.77-24.35L270.77-24.35 271.02-20.43Q270.4-20.63 269.63-20.75 268.87-20.88 267.95-20.88L267.95-20.88Q265.2-20.88 263.16-19.35 261.12-17.82 260.2-14.93ZM260.4-16.9L260.4 0 256.35 0 256.35-24.4 260.3-24.4 260.1-17.2 260.4-16.9ZM283.75 0.55L283.75 0.55Q278.5 0.55 275.93-2.29 273.37-5.13 273.37-10.33L273.37-10.33 273.37-14.13Q273.37-19.35 275.94-22.16 278.52-24.98 283.75-24.98L283.75-24.98Q285.3-24.98 286.57-24.69 287.85-24.4 288.86-23.94 289.87-23.48 290.57-22.98L290.57-22.98 290.92-19.45Q289.75-20.35 288.13-20.98 286.52-21.6 284.35-21.6L284.35-21.6Q280.85-21.6 279.13-19.66 277.42-17.73 277.42-14.03L277.42-14.03 277.42-10.43Q277.42-6.8 279.13-4.85 280.85-2.9 284.35-2.9L284.35-2.9Q286.6-2.9 288.23-3.53 289.87-4.15 291.15-5.05L291.15-5.05 290.77-1.48Q289.67-0.73 287.9-0.09 286.12 0.55 283.75 0.55ZM305.82 0.55L305.82 0.55Q300.24 0.55 297.42-2.18 294.59-4.9 294.59-9.98L294.59-9.98 294.59-14.33Q294.59-19.48 297.22-22.26 299.84-25.05 304.89-25.05L304.89-25.05Q308.29-25.05 310.57-23.79 312.84-22.53 313.99-20.2 315.14-17.88 315.14-14.65L315.14-14.65 315.14-13.75Q315.14-12.95 315.08-12.15 315.02-11.35 314.92-10.58L314.92-10.58 311.19-10.58Q311.24-11.78 311.25-12.85 311.27-13.93 311.27-14.83L311.27-14.83Q311.27-17.05 310.56-18.59 309.84-20.13 308.43-20.94 307.02-21.75 304.89-21.75L304.89-21.75Q301.74-21.75 300.17-19.93 298.59-18.1 298.59-14.7L298.59-14.7 298.59-12.38 298.62-11.88 298.62-9.55Q298.62-8.03 299.07-6.8 299.52-5.58 300.48-4.69 301.44-3.8 302.93-3.34 304.42-2.88 306.47-2.88L306.47-2.88Q308.84-2.88 310.89-3.5 312.94-4.13 314.74-5.2L314.74-5.2 314.37-1.7Q312.74-0.68 310.59-0.06 308.44 0.55 305.82 0.55ZM314.07-13.63L314.07-10.58 296.72-10.58 296.72-13.63 314.07-13.63Z" opacity="1" transform="matrix(1,0,0,1,0,0)" fill="white" class="slogan-text-1" id="SvgjsPath1611"></path></svg></g></svg></g></svg></g></svg></g><g transform="matrix(1,0,0,1,439.55227067765145,5.6115151930442835)"><svg viewBox="0 0 244.43135999999998 244.43135999999998" height="244.43135999999998" width="244.43135999999998"><g data-palette-color="url(#4224a25b-a46d-455a-859f-ec830682586e)"><rect width="66.8112384" height="244.43135999999998" fill="black" stroke="transparent" x="0" fill-opacity="1"></rect><rect width="66.8112384" height="244.43135999999998" fill="black" stroke="transparent" x="81.47711999999999" fill-opacity="0.75"></rect><rect width="66.8112384" height="244.43135999999998" fill="black" stroke="transparent" x="162.95423999999997" fill-opacity="0.5"></rect></g></svg></g></svg></g><defs><mask></mask></defs><mask><g id="SvgjsG1610"><svg viewBox="0 0 395.52 147.83456789064593" height="147.83456789064593" width="395.52"><g><svg viewBox="0 0 683.9836306776514 255.65439038608855" height="147.83456789064593" width="395.52"><g><svg viewBox="0 0 395.52 255.65439038608855" height="255.65439038608855" width="395.52"><g id="SvgjsG1609"><svg viewBox="0 0 395.52 255.65439038608855" height="255.65439038608855" width="395.52" id="SvgjsSvg1608"><g><svg viewBox="0 0 395.52 186.51735321528423" height="186.51735321528423" width="395.52"><g transform="matrix(1,0,0,1,0,0)"><svg width="395.52" viewBox="3 -24.78 53.65 25.310000000000002" height="186.51735321528423" data-palette-color="url(#d76e9257-8b03-4b14-b89c-0d47015c5eed)"><path d="M3-8.78L3-24.4 7.03-24.4 7.03-9.22Q7.03-7.3 7.56-5.86 8.1-4.42 9.33-3.64 10.55-2.85 12.63-2.85L12.63-2.85Q14.58-2.85 15.98-3.56 17.38-4.28 18.26-5.53 19.15-6.78 19.48-8.35L19.48-8.35 20.2-5.48 19.33-5.48Q18.95-3.83 17.95-2.46 16.95-1.1 15.26-0.29 13.58 0.53 11.1 0.53L11.1 0.53Q8.22 0.53 6.44-0.56 4.65-1.65 3.83-3.74 3-5.83 3-8.78L3-8.78ZM19.3-6.1L19.3-24.4 23.35-24.4 23.35 0 19.3 0 19.48-5.85 19.3-6.1ZM45.82-14.93L45.82-14.93 44.9-18.05 45.9-18.1Q46.7-21.2 48.65-22.99 50.59-24.78 53.82-24.78L53.82-24.78Q54.62-24.78 55.26-24.65 55.9-24.53 56.4-24.35L56.4-24.35 56.65-20.43Q56.02-20.63 55.26-20.75 54.5-20.88 53.57-20.88L53.57-20.88Q50.82-20.88 48.78-19.35 46.75-17.82 45.82-14.93ZM46.02-16.9L46.02 0 41.97 0 41.97-24.4 45.92-24.4 45.72-17.2 46.02-16.9Z" opacity="1" transform="matrix(1,0,0,1,0,0)" fill="black" class="wordmark-text-0" id="SvgjsPath1607"></path></svg></g></svg></g><g transform="matrix(1,0,0,1,163.310208,230.54962389293567)"><svg viewBox="0 0 232.209792 25.104766493152876" height="25.104766493152876" width="232.209792"><g transform="matrix(1,0,0,1,0,0)"><svg width="232.209792" viewBox="3 -33.13 312.14 33.760000000000005" height="25.104766493152876" data-palette-color="url(#9b80d1ef-cb6f-488d-8c4e-8b45c03bb48e)"><path d="M3-8.78L3-24.4 7.03-24.4 7.03-9.22Q7.03-7.3 7.56-5.86 8.1-4.42 9.33-3.64 10.55-2.85 12.63-2.85L12.63-2.85Q14.58-2.85 15.98-3.56 17.38-4.28 18.26-5.53 19.15-6.78 19.48-8.35L19.48-8.35 20.2-5.48 19.33-5.48Q18.95-3.83 17.95-2.46 16.95-1.1 15.26-0.29 13.58 0.53 11.1 0.53L11.1 0.53Q8.22 0.53 6.44-0.56 4.65-1.65 3.83-3.74 3-5.83 3-8.78L3-8.78ZM19.3-6.1L19.3-24.4 23.35-24.4 23.35 0 19.3 0 19.48-5.85 19.3-6.1ZM33.8-14.93L33.8-14.93 32.87-18.05 33.87-18.1Q34.67-21.2 36.62-22.99 38.57-24.78 41.8-24.78L41.8-24.78Q42.6-24.78 43.23-24.65 43.87-24.53 44.37-24.35L44.37-24.35 44.62-20.43Q44-20.63 43.23-20.75 42.47-20.88 41.55-20.88L41.55-20.88Q38.8-20.88 36.76-19.35 34.72-17.82 33.8-14.93ZM34-16.9L34 0 29.95 0 29.95-24.4 33.9-24.4 33.7-17.2 34-16.9ZM60.62 0.53L60.62 0.53Q58.37 0.53 56.71-0.23 55.05-0.98 54.02-2.38 53-3.78 52.65-5.63L52.65-5.63 51.3-5.63 52.52-9.43Q52.65-7.23 53.56-5.76 54.47-4.3 56-3.58 57.52-2.85 59.45-2.85L59.45-2.85Q62.5-2.85 64.11-4.65 65.72-6.45 65.72-10L65.72-10 65.72-14.58Q65.72-18.05 64.09-19.85 62.47-21.65 59.37-21.65L59.37-21.65Q57.52-21.65 56.09-20.93 54.67-20.2 53.73-18.95 52.8-17.7 52.45-16.1L52.45-16.1 51.52-18.93 52.67-18.93Q53.05-20.6 54.01-21.96 54.97-23.33 56.65-24.14 58.32-24.95 60.8-24.95L60.8-24.95Q65.2-24.95 67.5-22.21 69.8-19.48 69.8-14.28L69.8-14.28 69.8-10.23Q69.8-4.98 67.46-2.23 65.12 0.53 60.62 0.53ZM52.47-5.9L52.65 0 48.59 0 48.59-33.13 52.62-33.13 52.62-25.18 52.5-18.18 52.52-17.4 52.52-7.2 52.47-5.9ZM93.87-15.8L93.87 0 89.84 0 90.02-5.93 89.87-6.55 89.87-14.33 89.89-15.75Q89.89-18.73 88.38-20.15 86.87-21.58 83.59-21.58L83.59-21.58Q80.97-21.58 78.78-20.83 76.59-20.08 74.89-19.07L74.89-19.07 75.27-22.53Q76.22-23.1 77.53-23.66 78.84-24.23 80.53-24.6 82.22-24.98 84.24-24.98L84.24-24.98Q86.87-24.98 88.71-24.34 90.54-23.7 91.68-22.5 92.82-21.3 93.34-19.6 93.87-17.9 93.87-15.8L93.87-15.8ZM81.44 0.53L81.44 0.53Q77.82 0.53 75.88-1.24 73.94-3 73.94-6.28L73.94-6.28 73.94-7Q73.94-10.38 76.03-12.04 78.12-13.7 82.67-14.35L82.67-14.35 90.39-15.45 90.62-12.5 83.17-11.43Q80.37-11.03 79.17-10.06 77.97-9.1 77.97-7.23L77.97-7.23 77.97-6.83Q77.97-4.9 79.16-3.88 80.34-2.85 82.72-2.85L82.72-2.85Q84.82-2.85 86.32-3.58 87.82-4.3 88.74-5.53 89.67-6.75 89.99-8.25L89.99-8.25 90.62-5.5 89.84-5.5Q89.49-3.9 88.53-2.53 87.57-1.15 85.84-0.31 84.12 0.53 81.44 0.53ZM120.44-15.63L120.44 0 116.39 0 116.39-15.18Q116.39-17.15 115.85-18.57 115.32-20 114.1-20.79 112.89-21.58 110.79-21.58L110.79-21.58Q108.87-21.58 107.45-20.85 106.04-20.13 105.17-18.89 104.29-17.65 103.94-16.07L103.94-16.07 103.22-18.95 104.09-18.95Q104.49-20.6 105.49-21.96 106.49-23.33 108.18-24.14 109.87-24.95 112.32-24.95L112.32-24.95Q115.22-24.95 117-23.85 118.79-22.75 119.62-20.69 120.44-18.63 120.44-15.63L120.44-15.63ZM104.12-18.32L104.12 0 100.07 0 100.07-24.4 104.12-24.4 103.94-18.55 104.12-18.32ZM142.51-14.93L142.51-14.93 141.59-18.05 142.59-18.1Q143.39-21.2 145.34-22.99 147.29-24.78 150.51-24.78L150.51-24.78Q151.31-24.78 151.95-24.65 152.59-24.53 153.09-24.35L153.09-24.35 153.34-20.43Q152.71-20.63 151.95-20.75 151.19-20.88 150.26-20.88L150.26-20.88Q147.51-20.88 145.47-19.35 143.44-17.82 142.51-14.93ZM142.71-16.9L142.71 0 138.66 0 138.66-24.4 142.61-24.4 142.41-17.2 142.71-16.9ZM166.91 0.55L166.91 0.55Q161.33 0.55 158.51-2.18 155.68-4.9 155.68-9.98L155.68-9.98 155.68-14.33Q155.68-19.48 158.31-22.26 160.93-25.05 165.98-25.05L165.98-25.05Q169.38-25.05 171.66-23.79 173.93-22.53 175.08-20.2 176.23-17.88 176.23-14.65L176.23-14.65 176.23-13.75Q176.23-12.95 176.17-12.15 176.11-11.35 176.01-10.58L176.01-10.58 172.28-10.58Q172.33-11.78 172.35-12.85 172.36-13.93 172.36-14.83L172.36-14.83Q172.36-17.05 171.65-18.59 170.93-20.13 169.52-20.94 168.11-21.75 165.98-21.75L165.98-21.75Q162.83-21.75 161.26-19.93 159.68-18.1 159.68-14.7L159.68-14.7 159.68-12.38 159.71-11.88 159.71-9.55Q159.71-8.03 160.16-6.8 160.61-5.58 161.57-4.69 162.53-3.8 164.02-3.34 165.51-2.88 167.56-2.88L167.56-2.88Q169.93-2.88 171.98-3.5 174.03-4.13 175.83-5.2L175.83-5.2 175.46-1.7Q173.83-0.68 171.68-0.06 169.53 0.55 166.91 0.55ZM175.16-13.63L175.16-10.58 157.81-10.58 157.81-13.63 175.16-13.63ZM189.33 0.55L189.33 0.55Q186.38 0.55 184.18-0.09 181.98-0.73 180.53-1.48L180.53-1.48 180.16-5.23Q181.98-4.28 184.17-3.58 186.35-2.88 189.13-2.88L189.13-2.88Q191.96-2.88 193.38-3.78 194.81-4.67 194.81-6.45L194.81-6.45 194.81-6.73Q194.81-7.88 194.27-8.63 193.73-9.38 192.33-9.95 190.93-10.53 188.35-11.1L188.35-11.1Q185.28-11.78 183.5-12.69 181.73-13.6 180.97-14.95 180.21-16.3 180.21-18.25L180.21-18.25 180.21-18.48Q180.21-21.68 182.43-23.33 184.66-24.98 189.13-24.98L189.13-24.98Q192-24.98 194.12-24.33 196.23-23.68 197.58-22.88L197.58-22.88 197.96-19.45Q196.33-20.4 194.23-21.03 192.13-21.65 189.5-21.65L189.5-21.65Q187.6-21.65 186.43-21.26 185.25-20.88 184.73-20.16 184.21-19.45 184.21-18.45L184.21-18.45 184.21-18.25Q184.21-17.15 184.73-16.39 185.25-15.63 186.62-15.06 187.98-14.5 190.41-13.98L190.41-13.98Q193.53-13.35 195.37-12.48 197.21-11.6 198-10.26 198.81-8.93 198.81-6.83L198.81-6.83 198.81-6.4Q198.81-2.95 196.41-1.2 194 0.55 189.33 0.55ZM213.4 0.63L213.4 0.63Q208.15 0.63 205.44-2.21 202.73-5.05 202.73-10.38L202.73-10.38 202.73-14.1Q202.73-19.4 205.45-22.23 208.18-25.05 213.4-25.05L213.4-25.05Q218.65-25.05 221.37-22.23 224.08-19.4 224.08-14.1L224.08-14.1 224.08-10.38Q224.08-5.05 221.37-2.21 218.65 0.63 213.4 0.63ZM213.4-2.68L213.4-2.68Q216.65-2.68 218.34-4.6 220.03-6.53 220.03-10.15L220.03-10.15 220.03-14.33Q220.03-17.93 218.34-19.84 216.65-21.75 213.4-21.75L213.4-21.75Q210.18-21.75 208.48-19.84 206.78-17.93 206.78-14.33L206.78-14.33 206.78-10.15Q206.78-6.53 208.48-4.6 210.18-2.68 213.4-2.68ZM229.4-8.78L229.4-24.4 233.43-24.4 233.43-9.22Q233.43-7.3 233.96-5.86 234.5-4.42 235.72-3.64 236.95-2.85 239.03-2.85L239.03-2.85Q240.97-2.85 242.38-3.56 243.78-4.28 244.66-5.53 245.55-6.78 245.88-8.35L245.88-8.35 246.6-5.48 245.73-5.48Q245.35-3.83 244.35-2.46 243.35-1.1 241.66-0.29 239.97 0.53 237.5 0.53L237.5 0.53Q234.63 0.53 232.84-0.56 231.05-1.65 230.22-3.74 229.4-5.83 229.4-8.78L229.4-8.78ZM245.7-6.1L245.7-24.4 249.75-24.4 249.75 0 245.7 0 245.88-5.85 245.7-6.1ZM260.2-14.93L260.2-14.93 259.27-18.05 260.27-18.1Q261.07-21.2 263.02-22.99 264.97-24.78 268.2-24.78L268.2-24.78Q269-24.78 269.63-24.65 270.27-24.53 270.77-24.35L270.77-24.35 271.02-20.43Q270.4-20.63 269.63-20.75 268.87-20.88 267.95-20.88L267.95-20.88Q265.2-20.88 263.16-19.35 261.12-17.82 260.2-14.93ZM260.4-16.9L260.4 0 256.35 0 256.35-24.4 260.3-24.4 260.1-17.2 260.4-16.9ZM283.75 0.55L283.75 0.55Q278.5 0.55 275.93-2.29 273.37-5.13 273.37-10.33L273.37-10.33 273.37-14.13Q273.37-19.35 275.94-22.16 278.52-24.98 283.75-24.98L283.75-24.98Q285.3-24.98 286.57-24.69 287.85-24.4 288.86-23.94 289.87-23.48 290.57-22.98L290.57-22.98 290.92-19.45Q289.75-20.35 288.13-20.98 286.52-21.6 284.35-21.6L284.35-21.6Q280.85-21.6 279.13-19.66 277.42-17.73 277.42-14.03L277.42-14.03 277.42-10.43Q277.42-6.8 279.13-4.85 280.85-2.9 284.35-2.9L284.35-2.9Q286.6-2.9 288.23-3.53 289.87-4.15 291.15-5.05L291.15-5.05 290.77-1.48Q289.67-0.73 287.9-0.09 286.12 0.55 283.75 0.55ZM305.82 0.55L305.82 0.55Q300.24 0.55 297.42-2.18 294.59-4.9 294.59-9.98L294.59-9.98 294.59-14.33Q294.59-19.48 297.22-22.26 299.84-25.05 304.89-25.05L304.89-25.05Q308.29-25.05 310.57-23.79 312.84-22.53 313.99-20.2 315.14-17.88 315.14-14.65L315.14-14.65 315.14-13.75Q315.14-12.95 315.08-12.15 315.02-11.35 314.92-10.58L314.92-10.58 311.19-10.58Q311.24-11.78 311.25-12.85 311.27-13.93 311.27-14.83L311.27-14.83Q311.27-17.05 310.56-18.59 309.84-20.13 308.43-20.94 307.02-21.75 304.89-21.75L304.89-21.75Q301.74-21.75 300.17-19.93 298.59-18.1 298.59-14.7L298.59-14.7 298.59-12.38 298.62-11.88 298.62-9.55Q298.62-8.03 299.07-6.8 299.52-5.58 300.48-4.69 301.44-3.8 302.93-3.34 304.42-2.88 306.47-2.88L306.47-2.88Q308.84-2.88 310.89-3.5 312.94-4.13 314.74-5.2L314.74-5.2 314.37-1.7Q312.74-0.68 310.59-0.06 308.44 0.55 305.82 0.55ZM314.07-13.63L314.07-10.58 296.72-10.58 296.72-13.63 314.07-13.63Z" opacity="1" transform="matrix(1,0,0,1,0,0)" fill="black" class="slogan-text-1" id="SvgjsPath1606"></path></svg></g></svg></g></svg></g></svg></g><g transform="matrix(1,0,0,1,439.55227067765145,5.6115151930442835)"><svg viewBox="0 0 244.43135999999998 244.43135999999998" height="244.43135999999998" width="244.43135999999998"><g data-palette-color="url(#4224a25b-a46d-455a-859f-ec830682586e)"><rect width="66.8112384" height="244.43135999999998" fill="black" stroke="transparent" x="0" fill-opacity="1"></rect><rect width="66.8112384" height="244.43135999999998" fill="black" stroke="transparent" x="81.47711999999999" fill-opacity="0.75"></rect><rect width="66.8112384" height="244.43135999999998" fill="black" stroke="transparent" x="162.95423999999997" fill-opacity="0.5"></rect></g></svg></g></svg></g><defs><mask></mask></defs></svg><rect width="395.52" height="147.83456789064593" fill="black" stroke="none" visibility="hidden"></rect></g></mask></svg><rect width="395.52" height="147.83456789064593" fill="black" stroke="none" visibility="hidden"></rect></g></mask><linearGradient x1="0" x2="1" y1="0.548" y2="0.55" id="9b80d1ef-cb6f-488d-8c4e-8b45c03bb48e"><stop stop-color="#ff6cab" offset="0"></stop><stop stop-color="#7366ff" offset="1"></stop></linearGradient><rect width="395.52" height="147.83456789064593" fill="url(#9b80d1ef-cb6f-488d-8c4e-8b45c03bb48e)" mask="url(#41a6feae-a3ee-43b5-9a97-2897ec736ae5)" data-fill-palette-color="secondary"></rect><mask id="b483d5a1-3ee9-43c2-91e5-b53edcaa1280"><g id="SvgjsG1631"><svg viewBox="0 0 395.52 147.83456789064593" height="147.83456789064593" width="395.52"><g><svg viewBox="0 0 683.9836306776514 255.65439038608855" height="147.83456789064593" width="395.52"><g><svg viewBox="0 0 395.52 255.65439038608855" height="255.65439038608855" width="395.52"><g id="SvgjsG1630"><svg viewBox="0 0 395.52 255.65439038608855" height="255.65439038608855" width="395.52" id="SvgjsSvg1629"><g><svg viewBox="0 0 395.52 186.51735321528423" height="186.51735321528423" width="395.52"><g transform="matrix(1,0,0,1,0,0)"><svg width="395.52" viewBox="3 -24.78 53.65 25.310000000000002" height="186.51735321528423" data-palette-color="url(#d76e9257-8b03-4b14-b89c-0d47015c5eed)"></svg></g></svg></g><g transform="matrix(1,0,0,1,163.310208,230.54962389293567)"><svg viewBox="0 0 232.209792 25.104766493152876" height="25.104766493152876" width="232.209792"><g transform="matrix(1,0,0,1,0,0)"><svg width="232.209792" viewBox="3 -33.13 312.14 33.760000000000005" height="25.104766493152876" data-palette-color="url(#9b80d1ef-cb6f-488d-8c4e-8b45c03bb48e)"></svg></g></svg></g></svg></g></svg></g><g transform="matrix(1,0,0,1,439.55227067765145,5.6115151930442835)"><svg viewBox="0 0 244.43135999999998 244.43135999999998" height="244.43135999999998" width="244.43135999999998"><g data-palette-color="url(#4224a25b-a46d-455a-859f-ec830682586e)"><rect width="66.8112384" height="244.43135999999998" fill="white" stroke="transparent" x="0" fill-opacity="1"></rect><rect width="66.8112384" height="244.43135999999998" fill="white" stroke="transparent" x="81.47711999999999" fill-opacity="0.75"></rect><rect width="66.8112384" height="244.43135999999998" fill="white" stroke="transparent" x="162.95423999999997" fill-opacity="0.5"></rect></g></svg></g></svg></g><defs><mask></mask></defs><mask><g id="SvgjsG1628"><svg viewBox="0 0 395.52 147.83456789064593" height="147.83456789064593" width="395.52"><g><svg viewBox="0 0 683.9836306776514 255.65439038608855" height="147.83456789064593" width="395.52"><g><svg viewBox="0 0 395.52 255.65439038608855" height="255.65439038608855" width="395.52"><g id="SvgjsG1627"><svg viewBox="0 0 395.52 255.65439038608855" height="255.65439038608855" width="395.52" id="SvgjsSvg1626"><g><svg viewBox="0 0 395.52 186.51735321528423" height="186.51735321528423" width="395.52"><g transform="matrix(1,0,0,1,0,0)"><svg width="395.52" viewBox="3 -24.78 53.65 25.310000000000002" height="186.51735321528423" data-palette-color="url(#d76e9257-8b03-4b14-b89c-0d47015c5eed)"><path d="M3-8.78L3-24.4 7.03-24.4 7.03-9.22Q7.03-7.3 7.56-5.86 8.1-4.42 9.33-3.64 10.55-2.85 12.63-2.85L12.63-2.85Q14.58-2.85 15.98-3.56 17.38-4.28 18.26-5.53 19.15-6.78 19.48-8.35L19.48-8.35 20.2-5.48 19.33-5.48Q18.95-3.83 17.95-2.46 16.95-1.1 15.26-0.29 13.58 0.53 11.1 0.53L11.1 0.53Q8.22 0.53 6.44-0.56 4.65-1.65 3.83-3.74 3-5.83 3-8.78L3-8.78ZM19.3-6.1L19.3-24.4 23.35-24.4 23.35 0 19.3 0 19.48-5.85 19.3-6.1ZM45.82-14.93L45.82-14.93 44.9-18.05 45.9-18.1Q46.7-21.2 48.65-22.99 50.59-24.78 53.82-24.78L53.82-24.78Q54.62-24.78 55.26-24.65 55.9-24.53 56.4-24.35L56.4-24.35 56.65-20.43Q56.02-20.63 55.26-20.75 54.5-20.88 53.57-20.88L53.57-20.88Q50.82-20.88 48.78-19.35 46.75-17.82 45.82-14.93ZM46.02-16.9L46.02 0 41.97 0 41.97-24.4 45.92-24.4 45.72-17.2 46.02-16.9Z" opacity="1" transform="matrix(1,0,0,1,0,0)" fill="black" class="wordmark-text-0" id="SvgjsPath1625"></path></svg></g></svg></g><g transform="matrix(1,0,0,1,163.310208,230.54962389293567)"><svg viewBox="0 0 232.209792 25.104766493152876" height="25.104766493152876" width="232.209792"><g transform="matrix(1,0,0,1,0,0)"><svg width="232.209792" viewBox="3 -33.13 312.14 33.760000000000005" height="25.104766493152876" data-palette-color="url(#9b80d1ef-cb6f-488d-8c4e-8b45c03bb48e)"><path d="M3-8.78L3-24.4 7.03-24.4 7.03-9.22Q7.03-7.3 7.56-5.86 8.1-4.42 9.33-3.64 10.55-2.85 12.63-2.85L12.63-2.85Q14.58-2.85 15.98-3.56 17.38-4.28 18.26-5.53 19.15-6.78 19.48-8.35L19.48-8.35 20.2-5.48 19.33-5.48Q18.95-3.83 17.95-2.46 16.95-1.1 15.26-0.29 13.58 0.53 11.1 0.53L11.1 0.53Q8.22 0.53 6.44-0.56 4.65-1.65 3.83-3.74 3-5.83 3-8.78L3-8.78ZM19.3-6.1L19.3-24.4 23.35-24.4 23.35 0 19.3 0 19.48-5.85 19.3-6.1ZM33.8-14.93L33.8-14.93 32.87-18.05 33.87-18.1Q34.67-21.2 36.62-22.99 38.57-24.78 41.8-24.78L41.8-24.78Q42.6-24.78 43.23-24.65 43.87-24.53 44.37-24.35L44.37-24.35 44.62-20.43Q44-20.63 43.23-20.75 42.47-20.88 41.55-20.88L41.55-20.88Q38.8-20.88 36.76-19.35 34.72-17.82 33.8-14.93ZM34-16.9L34 0 29.95 0 29.95-24.4 33.9-24.4 33.7-17.2 34-16.9ZM60.62 0.53L60.62 0.53Q58.37 0.53 56.71-0.23 55.05-0.98 54.02-2.38 53-3.78 52.65-5.63L52.65-5.63 51.3-5.63 52.52-9.43Q52.65-7.23 53.56-5.76 54.47-4.3 56-3.58 57.52-2.85 59.45-2.85L59.45-2.85Q62.5-2.85 64.11-4.65 65.72-6.45 65.72-10L65.72-10 65.72-14.58Q65.72-18.05 64.09-19.85 62.47-21.65 59.37-21.65L59.37-21.65Q57.52-21.65 56.09-20.93 54.67-20.2 53.73-18.95 52.8-17.7 52.45-16.1L52.45-16.1 51.52-18.93 52.67-18.93Q53.05-20.6 54.01-21.96 54.97-23.33 56.65-24.14 58.32-24.95 60.8-24.95L60.8-24.95Q65.2-24.95 67.5-22.21 69.8-19.48 69.8-14.28L69.8-14.28 69.8-10.23Q69.8-4.98 67.46-2.23 65.12 0.53 60.62 0.53ZM52.47-5.9L52.65 0 48.59 0 48.59-33.13 52.62-33.13 52.62-25.18 52.5-18.18 52.52-17.4 52.52-7.2 52.47-5.9ZM93.87-15.8L93.87 0 89.84 0 90.02-5.93 89.87-6.55 89.87-14.33 89.89-15.75Q89.89-18.73 88.38-20.15 86.87-21.58 83.59-21.58L83.59-21.58Q80.97-21.58 78.78-20.83 76.59-20.08 74.89-19.07L74.89-19.07 75.27-22.53Q76.22-23.1 77.53-23.66 78.84-24.23 80.53-24.6 82.22-24.98 84.24-24.98L84.24-24.98Q86.87-24.98 88.71-24.34 90.54-23.7 91.68-22.5 92.82-21.3 93.34-19.6 93.87-17.9 93.87-15.8L93.87-15.8ZM81.44 0.53L81.44 0.53Q77.82 0.53 75.88-1.24 73.94-3 73.94-6.28L73.94-6.28 73.94-7Q73.94-10.38 76.03-12.04 78.12-13.7 82.67-14.35L82.67-14.35 90.39-15.45 90.62-12.5 83.17-11.43Q80.37-11.03 79.17-10.06 77.97-9.1 77.97-7.23L77.97-7.23 77.97-6.83Q77.97-4.9 79.16-3.88 80.34-2.85 82.72-2.85L82.72-2.85Q84.82-2.85 86.32-3.58 87.82-4.3 88.74-5.53 89.67-6.75 89.99-8.25L89.99-8.25 90.62-5.5 89.84-5.5Q89.49-3.9 88.53-2.53 87.57-1.15 85.84-0.31 84.12 0.53 81.44 0.53ZM120.44-15.63L120.44 0 116.39 0 116.39-15.18Q116.39-17.15 115.85-18.57 115.32-20 114.1-20.79 112.89-21.58 110.79-21.58L110.79-21.58Q108.87-21.58 107.45-20.85 106.04-20.13 105.17-18.89 104.29-17.65 103.94-16.07L103.94-16.07 103.22-18.95 104.09-18.95Q104.49-20.6 105.49-21.96 106.49-23.33 108.18-24.14 109.87-24.95 112.32-24.95L112.32-24.95Q115.22-24.95 117-23.85 118.79-22.75 119.62-20.69 120.44-18.63 120.44-15.63L120.44-15.63ZM104.12-18.32L104.12 0 100.07 0 100.07-24.4 104.12-24.4 103.94-18.55 104.12-18.32ZM142.51-14.93L142.51-14.93 141.59-18.05 142.59-18.1Q143.39-21.2 145.34-22.99 147.29-24.78 150.51-24.78L150.51-24.78Q151.31-24.78 151.95-24.65 152.59-24.53 153.09-24.35L153.09-24.35 153.34-20.43Q152.71-20.63 151.95-20.75 151.19-20.88 150.26-20.88L150.26-20.88Q147.51-20.88 145.47-19.35 143.44-17.82 142.51-14.93ZM142.71-16.9L142.71 0 138.66 0 138.66-24.4 142.61-24.4 142.41-17.2 142.71-16.9ZM166.91 0.55L166.91 0.55Q161.33 0.55 158.51-2.18 155.68-4.9 155.68-9.98L155.68-9.98 155.68-14.33Q155.68-19.48 158.31-22.26 160.93-25.05 165.98-25.05L165.98-25.05Q169.38-25.05 171.66-23.79 173.93-22.53 175.08-20.2 176.23-17.88 176.23-14.65L176.23-14.65 176.23-13.75Q176.23-12.95 176.17-12.15 176.11-11.35 176.01-10.58L176.01-10.58 172.28-10.58Q172.33-11.78 172.35-12.85 172.36-13.93 172.36-14.83L172.36-14.83Q172.36-17.05 171.65-18.59 170.93-20.13 169.52-20.94 168.11-21.75 165.98-21.75L165.98-21.75Q162.83-21.75 161.26-19.93 159.68-18.1 159.68-14.7L159.68-14.7 159.68-12.38 159.71-11.88 159.71-9.55Q159.71-8.03 160.16-6.8 160.61-5.58 161.57-4.69 162.53-3.8 164.02-3.34 165.51-2.88 167.56-2.88L167.56-2.88Q169.93-2.88 171.98-3.5 174.03-4.13 175.83-5.2L175.83-5.2 175.46-1.7Q173.83-0.68 171.68-0.06 169.53 0.55 166.91 0.55ZM175.16-13.63L175.16-10.58 157.81-10.58 157.81-13.63 175.16-13.63ZM189.33 0.55L189.33 0.55Q186.38 0.55 184.18-0.09 181.98-0.73 180.53-1.48L180.53-1.48 180.16-5.23Q181.98-4.28 184.17-3.58 186.35-2.88 189.13-2.88L189.13-2.88Q191.96-2.88 193.38-3.78 194.81-4.67 194.81-6.45L194.81-6.45 194.81-6.73Q194.81-7.88 194.27-8.63 193.73-9.38 192.33-9.95 190.93-10.53 188.35-11.1L188.35-11.1Q185.28-11.78 183.5-12.69 181.73-13.6 180.97-14.95 180.21-16.3 180.21-18.25L180.21-18.25 180.21-18.48Q180.21-21.68 182.43-23.33 184.66-24.98 189.13-24.98L189.13-24.98Q192-24.98 194.12-24.33 196.23-23.68 197.58-22.88L197.58-22.88 197.96-19.45Q196.33-20.4 194.23-21.03 192.13-21.65 189.5-21.65L189.5-21.65Q187.6-21.65 186.43-21.26 185.25-20.88 184.73-20.16 184.21-19.45 184.21-18.45L184.21-18.45 184.21-18.25Q184.21-17.15 184.73-16.39 185.25-15.63 186.62-15.06 187.98-14.5 190.41-13.98L190.41-13.98Q193.53-13.35 195.37-12.48 197.21-11.6 198-10.26 198.81-8.93 198.81-6.83L198.81-6.83 198.81-6.4Q198.81-2.95 196.41-1.2 194 0.55 189.33 0.55ZM213.4 0.63L213.4 0.63Q208.15 0.63 205.44-2.21 202.73-5.05 202.73-10.38L202.73-10.38 202.73-14.1Q202.73-19.4 205.45-22.23 208.18-25.05 213.4-25.05L213.4-25.05Q218.65-25.05 221.37-22.23 224.08-19.4 224.08-14.1L224.08-14.1 224.08-10.38Q224.08-5.05 221.37-2.21 218.65 0.63 213.4 0.63ZM213.4-2.68L213.4-2.68Q216.65-2.68 218.34-4.6 220.03-6.53 220.03-10.15L220.03-10.15 220.03-14.33Q220.03-17.93 218.34-19.84 216.65-21.75 213.4-21.75L213.4-21.75Q210.18-21.75 208.48-19.84 206.78-17.93 206.78-14.33L206.78-14.33 206.78-10.15Q206.78-6.53 208.48-4.6 210.18-2.68 213.4-2.68ZM229.4-8.78L229.4-24.4 233.43-24.4 233.43-9.22Q233.43-7.3 233.96-5.86 234.5-4.42 235.72-3.64 236.95-2.85 239.03-2.85L239.03-2.85Q240.97-2.85 242.38-3.56 243.78-4.28 244.66-5.53 245.55-6.78 245.88-8.35L245.88-8.35 246.6-5.48 245.73-5.48Q245.35-3.83 244.35-2.46 243.35-1.1 241.66-0.29 239.97 0.53 237.5 0.53L237.5 0.53Q234.63 0.53 232.84-0.56 231.05-1.65 230.22-3.74 229.4-5.83 229.4-8.78L229.4-8.78ZM245.7-6.1L245.7-24.4 249.75-24.4 249.75 0 245.7 0 245.88-5.85 245.7-6.1ZM260.2-14.93L260.2-14.93 259.27-18.05 260.27-18.1Q261.07-21.2 263.02-22.99 264.97-24.78 268.2-24.78L268.2-24.78Q269-24.78 269.63-24.65 270.27-24.53 270.77-24.35L270.77-24.35 271.02-20.43Q270.4-20.63 269.63-20.75 268.87-20.88 267.95-20.88L267.95-20.88Q265.2-20.88 263.16-19.35 261.12-17.82 260.2-14.93ZM260.4-16.9L260.4 0 256.35 0 256.35-24.4 260.3-24.4 260.1-17.2 260.4-16.9ZM283.75 0.55L283.75 0.55Q278.5 0.55 275.93-2.29 273.37-5.13 273.37-10.33L273.37-10.33 273.37-14.13Q273.37-19.35 275.94-22.16 278.52-24.98 283.75-24.98L283.75-24.98Q285.3-24.98 286.57-24.69 287.85-24.4 288.86-23.94 289.87-23.48 290.57-22.98L290.57-22.98 290.92-19.45Q289.75-20.35 288.13-20.98 286.52-21.6 284.35-21.6L284.35-21.6Q280.85-21.6 279.13-19.66 277.42-17.73 277.42-14.03L277.42-14.03 277.42-10.43Q277.42-6.8 279.13-4.85 280.85-2.9 284.35-2.9L284.35-2.9Q286.6-2.9 288.23-3.53 289.87-4.15 291.15-5.05L291.15-5.05 290.77-1.48Q289.67-0.73 287.9-0.09 286.12 0.55 283.75 0.55ZM305.82 0.55L305.82 0.55Q300.24 0.55 297.42-2.18 294.59-4.9 294.59-9.98L294.59-9.98 294.59-14.33Q294.59-19.48 297.22-22.26 299.84-25.05 304.89-25.05L304.89-25.05Q308.29-25.05 310.57-23.79 312.84-22.53 313.99-20.2 315.14-17.88 315.14-14.65L315.14-14.65 315.14-13.75Q315.14-12.95 315.08-12.15 315.02-11.35 314.92-10.58L314.92-10.58 311.19-10.58Q311.24-11.78 311.25-12.85 311.27-13.93 311.27-14.83L311.27-14.83Q311.27-17.05 310.56-18.59 309.84-20.13 308.43-20.94 307.02-21.75 304.89-21.75L304.89-21.75Q301.74-21.75 300.17-19.93 298.59-18.1 298.59-14.7L298.59-14.7 298.59-12.38 298.62-11.88 298.62-9.55Q298.62-8.03 299.07-6.8 299.52-5.58 300.48-4.69 301.44-3.8 302.93-3.34 304.42-2.88 306.47-2.88L306.47-2.88Q308.84-2.88 310.89-3.5 312.94-4.13 314.74-5.2L314.74-5.2 314.37-1.7Q312.74-0.68 310.59-0.06 308.44 0.55 305.82 0.55ZM314.07-13.63L314.07-10.58 296.72-10.58 296.72-13.63 314.07-13.63Z" opacity="1" transform="matrix(1,0,0,1,0,0)" fill="black" class="slogan-text-1" id="SvgjsPath1624"></path></svg></g></svg></g></svg></g></svg></g><g transform="matrix(1,0,0,1,439.55227067765145,5.6115151930442835)"><svg viewBox="0 0 244.43135999999998 244.43135999999998" height="244.43135999999998" width="244.43135999999998"><g data-palette-color="url(#4224a25b-a46d-455a-859f-ec830682586e)"><rect width="66.8112384" height="244.43135999999998" fill="black" stroke="transparent" x="0" fill-opacity="1"></rect><rect width="66.8112384" height="244.43135999999998" fill="black" stroke="transparent" x="81.47711999999999" fill-opacity="0.75"></rect><rect width="66.8112384" height="244.43135999999998" fill="black" stroke="transparent" x="162.95423999999997" fill-opacity="0.5"></rect></g></svg></g></svg></g><defs><mask></mask></defs></svg><rect width="395.52" height="147.83456789064593" fill="black" stroke="none" visibility="hidden"></rect></g></mask><mask><g id="SvgjsG1623"><svg viewBox="0 0 395.52 147.83456789064593" height="147.83456789064593" width="395.52"><g><svg viewBox="0 0 683.9836306776514 255.65439038608855" height="147.83456789064593" width="395.52"><g><svg viewBox="0 0 395.52 255.65439038608855" height="255.65439038608855" width="395.52"><g id="SvgjsG1622"><svg viewBox="0 0 395.52 255.65439038608855" height="255.65439038608855" width="395.52" id="SvgjsSvg1621"><g><svg viewBox="0 0 395.52 186.51735321528423" height="186.51735321528423" width="395.52"><g transform="matrix(1,0,0,1,0,0)"><svg width="395.52" viewBox="3 -24.78 53.65 25.310000000000002" height="186.51735321528423" data-palette-color="url(#d76e9257-8b03-4b14-b89c-0d47015c5eed)"></svg></g></svg></g><g transform="matrix(1,0,0,1,163.310208,230.54962389293567)"><svg viewBox="0 0 232.209792 25.104766493152876" height="25.104766493152876" width="232.209792"><g transform="matrix(1,0,0,1,0,0)"><svg width="232.209792" viewBox="3 -33.13 312.14 33.760000000000005" height="25.104766493152876" data-palette-color="url(#9b80d1ef-cb6f-488d-8c4e-8b45c03bb48e)"><path d="M3-8.78L3-24.4 7.03-24.4 7.03-9.22Q7.03-7.3 7.56-5.86 8.1-4.42 9.33-3.64 10.55-2.85 12.63-2.85L12.63-2.85Q14.58-2.85 15.98-3.56 17.38-4.28 18.26-5.53 19.15-6.78 19.48-8.35L19.48-8.35 20.2-5.48 19.33-5.48Q18.95-3.83 17.95-2.46 16.95-1.1 15.26-0.29 13.58 0.53 11.1 0.53L11.1 0.53Q8.22 0.53 6.44-0.56 4.65-1.65 3.83-3.74 3-5.83 3-8.78L3-8.78ZM19.3-6.1L19.3-24.4 23.35-24.4 23.35 0 19.3 0 19.48-5.85 19.3-6.1ZM33.8-14.93L33.8-14.93 32.87-18.05 33.87-18.1Q34.67-21.2 36.62-22.99 38.57-24.78 41.8-24.78L41.8-24.78Q42.6-24.78 43.23-24.65 43.87-24.53 44.37-24.35L44.37-24.35 44.62-20.43Q44-20.63 43.23-20.75 42.47-20.88 41.55-20.88L41.55-20.88Q38.8-20.88 36.76-19.35 34.72-17.82 33.8-14.93ZM34-16.9L34 0 29.95 0 29.95-24.4 33.9-24.4 33.7-17.2 34-16.9ZM60.62 0.53L60.62 0.53Q58.37 0.53 56.71-0.23 55.05-0.98 54.02-2.38 53-3.78 52.65-5.63L52.65-5.63 51.3-5.63 52.52-9.43Q52.65-7.23 53.56-5.76 54.47-4.3 56-3.58 57.52-2.85 59.45-2.85L59.45-2.85Q62.5-2.85 64.11-4.65 65.72-6.45 65.72-10L65.72-10 65.72-14.58Q65.72-18.05 64.09-19.85 62.47-21.65 59.37-21.65L59.37-21.65Q57.52-21.65 56.09-20.93 54.67-20.2 53.73-18.95 52.8-17.7 52.45-16.1L52.45-16.1 51.52-18.93 52.67-18.93Q53.05-20.6 54.01-21.96 54.97-23.33 56.65-24.14 58.32-24.95 60.8-24.95L60.8-24.95Q65.2-24.95 67.5-22.21 69.8-19.48 69.8-14.28L69.8-14.28 69.8-10.23Q69.8-4.98 67.46-2.23 65.12 0.53 60.62 0.53ZM52.47-5.9L52.65 0 48.59 0 48.59-33.13 52.62-33.13 52.62-25.18 52.5-18.18 52.52-17.4 52.52-7.2 52.47-5.9ZM93.87-15.8L93.87 0 89.84 0 90.02-5.93 89.87-6.55 89.87-14.33 89.89-15.75Q89.89-18.73 88.38-20.15 86.87-21.58 83.59-21.58L83.59-21.58Q80.97-21.58 78.78-20.83 76.59-20.08 74.89-19.07L74.89-19.07 75.27-22.53Q76.22-23.1 77.53-23.66 78.84-24.23 80.53-24.6 82.22-24.98 84.24-24.98L84.24-24.98Q86.87-24.98 88.71-24.34 90.54-23.7 91.68-22.5 92.82-21.3 93.34-19.6 93.87-17.9 93.87-15.8L93.87-15.8ZM81.44 0.53L81.44 0.53Q77.82 0.53 75.88-1.24 73.94-3 73.94-6.28L73.94-6.28 73.94-7Q73.94-10.38 76.03-12.04 78.12-13.7 82.67-14.35L82.67-14.35 90.39-15.45 90.62-12.5 83.17-11.43Q80.37-11.03 79.17-10.06 77.97-9.1 77.97-7.23L77.97-7.23 77.97-6.83Q77.97-4.9 79.16-3.88 80.34-2.85 82.72-2.85L82.72-2.85Q84.82-2.85 86.32-3.58 87.82-4.3 88.74-5.53 89.67-6.75 89.99-8.25L89.99-8.25 90.62-5.5 89.84-5.5Q89.49-3.9 88.53-2.53 87.57-1.15 85.84-0.31 84.12 0.53 81.44 0.53ZM120.44-15.63L120.44 0 116.39 0 116.39-15.18Q116.39-17.15 115.85-18.57 115.32-20 114.1-20.79 112.89-21.58 110.79-21.58L110.79-21.58Q108.87-21.58 107.45-20.85 106.04-20.13 105.17-18.89 104.29-17.65 103.94-16.07L103.94-16.07 103.22-18.95 104.09-18.95Q104.49-20.6 105.49-21.96 106.49-23.33 108.18-24.14 109.87-24.95 112.32-24.95L112.32-24.95Q115.22-24.95 117-23.85 118.79-22.75 119.62-20.69 120.44-18.63 120.44-15.63L120.44-15.63ZM104.12-18.32L104.12 0 100.07 0 100.07-24.4 104.12-24.4 103.94-18.55 104.12-18.32ZM142.51-14.93L142.51-14.93 141.59-18.05 142.59-18.1Q143.39-21.2 145.34-22.99 147.29-24.78 150.51-24.78L150.51-24.78Q151.31-24.78 151.95-24.65 152.59-24.53 153.09-24.35L153.09-24.35 153.34-20.43Q152.71-20.63 151.95-20.75 151.19-20.88 150.26-20.88L150.26-20.88Q147.51-20.88 145.47-19.35 143.44-17.82 142.51-14.93ZM142.71-16.9L142.71 0 138.66 0 138.66-24.4 142.61-24.4 142.41-17.2 142.71-16.9ZM166.91 0.55L166.91 0.55Q161.33 0.55 158.51-2.18 155.68-4.9 155.68-9.98L155.68-9.98 155.68-14.33Q155.68-19.48 158.31-22.26 160.93-25.05 165.98-25.05L165.98-25.05Q169.38-25.05 171.66-23.79 173.93-22.53 175.08-20.2 176.23-17.88 176.23-14.65L176.23-14.65 176.23-13.75Q176.23-12.95 176.17-12.15 176.11-11.35 176.01-10.58L176.01-10.58 172.28-10.58Q172.33-11.78 172.35-12.85 172.36-13.93 172.36-14.83L172.36-14.83Q172.36-17.05 171.65-18.59 170.93-20.13 169.52-20.94 168.11-21.75 165.98-21.75L165.98-21.75Q162.83-21.75 161.26-19.93 159.68-18.1 159.68-14.7L159.68-14.7 159.68-12.38 159.71-11.88 159.71-9.55Q159.71-8.03 160.16-6.8 160.61-5.58 161.57-4.69 162.53-3.8 164.02-3.34 165.51-2.88 167.56-2.88L167.56-2.88Q169.93-2.88 171.98-3.5 174.03-4.13 175.83-5.2L175.83-5.2 175.46-1.7Q173.83-0.68 171.68-0.06 169.53 0.55 166.91 0.55ZM175.16-13.63L175.16-10.58 157.81-10.58 157.81-13.63 175.16-13.63ZM189.33 0.55L189.33 0.55Q186.38 0.55 184.18-0.09 181.98-0.73 180.53-1.48L180.53-1.48 180.16-5.23Q181.98-4.28 184.17-3.58 186.35-2.88 189.13-2.88L189.13-2.88Q191.96-2.88 193.38-3.78 194.81-4.67 194.81-6.45L194.81-6.45 194.81-6.73Q194.81-7.88 194.27-8.63 193.73-9.38 192.33-9.95 190.93-10.53 188.35-11.1L188.35-11.1Q185.28-11.78 183.5-12.69 181.73-13.6 180.97-14.95 180.21-16.3 180.21-18.25L180.21-18.25 180.21-18.48Q180.21-21.68 182.43-23.33 184.66-24.98 189.13-24.98L189.13-24.98Q192-24.98 194.12-24.33 196.23-23.68 197.58-22.88L197.58-22.88 197.96-19.45Q196.33-20.4 194.23-21.03 192.13-21.65 189.5-21.65L189.5-21.65Q187.6-21.65 186.43-21.26 185.25-20.88 184.73-20.16 184.21-19.45 184.21-18.45L184.21-18.45 184.21-18.25Q184.21-17.15 184.73-16.39 185.25-15.63 186.62-15.06 187.98-14.5 190.41-13.98L190.41-13.98Q193.53-13.35 195.37-12.48 197.21-11.6 198-10.26 198.81-8.93 198.81-6.83L198.81-6.83 198.81-6.4Q198.81-2.95 196.41-1.2 194 0.55 189.33 0.55ZM213.4 0.63L213.4 0.63Q208.15 0.63 205.44-2.21 202.73-5.05 202.73-10.38L202.73-10.38 202.73-14.1Q202.73-19.4 205.45-22.23 208.18-25.05 213.4-25.05L213.4-25.05Q218.65-25.05 221.37-22.23 224.08-19.4 224.08-14.1L224.08-14.1 224.08-10.38Q224.08-5.05 221.37-2.21 218.65 0.63 213.4 0.63ZM213.4-2.68L213.4-2.68Q216.65-2.68 218.34-4.6 220.03-6.53 220.03-10.15L220.03-10.15 220.03-14.33Q220.03-17.93 218.34-19.84 216.65-21.75 213.4-21.75L213.4-21.75Q210.18-21.75 208.48-19.84 206.78-17.93 206.78-14.33L206.78-14.33 206.78-10.15Q206.78-6.53 208.48-4.6 210.18-2.68 213.4-2.68ZM229.4-8.78L229.4-24.4 233.43-24.4 233.43-9.22Q233.43-7.3 233.96-5.86 234.5-4.42 235.72-3.64 236.95-2.85 239.03-2.85L239.03-2.85Q240.97-2.85 242.38-3.56 243.78-4.28 244.66-5.53 245.55-6.78 245.88-8.35L245.88-8.35 246.6-5.48 245.73-5.48Q245.35-3.83 244.35-2.46 243.35-1.1 241.66-0.29 239.97 0.53 237.5 0.53L237.5 0.53Q234.63 0.53 232.84-0.56 231.05-1.65 230.22-3.74 229.4-5.83 229.4-8.78L229.4-8.78ZM245.7-6.1L245.7-24.4 249.75-24.4 249.75 0 245.7 0 245.88-5.85 245.7-6.1ZM260.2-14.93L260.2-14.93 259.27-18.05 260.27-18.1Q261.07-21.2 263.02-22.99 264.97-24.78 268.2-24.78L268.2-24.78Q269-24.78 269.63-24.65 270.27-24.53 270.77-24.35L270.77-24.35 271.02-20.43Q270.4-20.63 269.63-20.75 268.87-20.88 267.95-20.88L267.95-20.88Q265.2-20.88 263.16-19.35 261.12-17.82 260.2-14.93ZM260.4-16.9L260.4 0 256.35 0 256.35-24.4 260.3-24.4 260.1-17.2 260.4-16.9ZM283.75 0.55L283.75 0.55Q278.5 0.55 275.93-2.29 273.37-5.13 273.37-10.33L273.37-10.33 273.37-14.13Q273.37-19.35 275.94-22.16 278.52-24.98 283.75-24.98L283.75-24.98Q285.3-24.98 286.57-24.69 287.85-24.4 288.86-23.94 289.87-23.48 290.57-22.98L290.57-22.98 290.92-19.45Q289.75-20.35 288.13-20.98 286.52-21.6 284.35-21.6L284.35-21.6Q280.85-21.6 279.13-19.66 277.42-17.73 277.42-14.03L277.42-14.03 277.42-10.43Q277.42-6.8 279.13-4.85 280.85-2.9 284.35-2.9L284.35-2.9Q286.6-2.9 288.23-3.53 289.87-4.15 291.15-5.05L291.15-5.05 290.77-1.48Q289.67-0.73 287.9-0.09 286.12 0.55 283.75 0.55ZM305.82 0.55L305.82 0.55Q300.24 0.55 297.42-2.18 294.59-4.9 294.59-9.98L294.59-9.98 294.59-14.33Q294.59-19.48 297.22-22.26 299.84-25.05 304.89-25.05L304.89-25.05Q308.29-25.05 310.57-23.79 312.84-22.53 313.99-20.2 315.14-17.88 315.14-14.65L315.14-14.65 315.14-13.75Q315.14-12.95 315.08-12.15 315.02-11.35 314.92-10.58L314.92-10.58 311.19-10.58Q311.24-11.78 311.25-12.85 311.27-13.93 311.27-14.83L311.27-14.83Q311.27-17.05 310.56-18.59 309.84-20.13 308.43-20.94 307.02-21.75 304.89-21.75L304.89-21.75Q301.74-21.75 300.17-19.93 298.59-18.1 298.59-14.7L298.59-14.7 298.59-12.38 298.62-11.88 298.62-9.55Q298.62-8.03 299.07-6.8 299.52-5.58 300.48-4.69 301.44-3.8 302.93-3.34 304.42-2.88 306.47-2.88L306.47-2.88Q308.84-2.88 310.89-3.5 312.94-4.13 314.74-5.2L314.74-5.2 314.37-1.7Q312.74-0.68 310.59-0.06 308.44 0.55 305.82 0.55ZM314.07-13.63L314.07-10.58 296.72-10.58 296.72-13.63 314.07-13.63Z" opacity="1" transform="matrix(1,0,0,1,0,0)" fill="black" class="slogan-text-1" id="SvgjsPath1620"></path></svg></g></svg></g></svg></g></svg></g><g transform="matrix(1,0,0,1,439.55227067765145,5.6115151930442835)"><svg viewBox="0 0 244.43135999999998 244.43135999999998" height="244.43135999999998" width="244.43135999999998"><g data-palette-color="url(#4224a25b-a46d-455a-859f-ec830682586e)"><rect width="66.8112384" height="244.43135999999998" fill="black" stroke="transparent" x="0" fill-opacity="1"></rect><rect width="66.8112384" height="244.43135999999998" fill="black" stroke="transparent" x="81.47711999999999" fill-opacity="0.75"></rect><rect width="66.8112384" height="244.43135999999998" fill="black" stroke="transparent" x="162.95423999999997" fill-opacity="0.5"></rect></g></svg></g></svg></g><defs><mask></mask></defs><mask><g id="SvgjsG1619"><svg viewBox="0 0 395.52 147.83456789064593" height="147.83456789064593" width="395.52"><g><svg viewBox="0 0 683.9836306776514 255.65439038608855" height="147.83456789064593" width="395.52"><g><svg viewBox="0 0 395.52 255.65439038608855" height="255.65439038608855" width="395.52"><g id="SvgjsG1618"><svg viewBox="0 0 395.52 255.65439038608855" height="255.65439038608855" width="395.52" id="SvgjsSvg1617"><g><svg viewBox="0 0 395.52 186.51735321528423" height="186.51735321528423" width="395.52"><g transform="matrix(1,0,0,1,0,0)"><svg width="395.52" viewBox="3 -24.78 53.65 25.310000000000002" height="186.51735321528423" data-palette-color="url(#d76e9257-8b03-4b14-b89c-0d47015c5eed)"><path d="M3-8.78L3-24.4 7.03-24.4 7.03-9.22Q7.03-7.3 7.56-5.86 8.1-4.42 9.33-3.64 10.55-2.85 12.63-2.85L12.63-2.85Q14.58-2.85 15.98-3.56 17.38-4.28 18.26-5.53 19.15-6.78 19.48-8.35L19.48-8.35 20.2-5.48 19.33-5.48Q18.95-3.83 17.95-2.46 16.95-1.1 15.26-0.29 13.58 0.53 11.1 0.53L11.1 0.53Q8.22 0.53 6.44-0.56 4.65-1.65 3.83-3.74 3-5.83 3-8.78L3-8.78ZM19.3-6.1L19.3-24.4 23.35-24.4 23.35 0 19.3 0 19.48-5.85 19.3-6.1ZM45.82-14.93L45.82-14.93 44.9-18.05 45.9-18.1Q46.7-21.2 48.65-22.99 50.59-24.78 53.82-24.78L53.82-24.78Q54.62-24.78 55.26-24.65 55.9-24.53 56.4-24.35L56.4-24.35 56.65-20.43Q56.02-20.63 55.26-20.75 54.5-20.88 53.57-20.88L53.57-20.88Q50.82-20.88 48.78-19.35 46.75-17.82 45.82-14.93ZM46.02-16.9L46.02 0 41.97 0 41.97-24.4 45.92-24.4 45.72-17.2 46.02-16.9Z" opacity="1" transform="matrix(1,0,0,1,0,0)" fill="black" class="wordmark-text-0" id="SvgjsPath1616"></path></svg></g></svg></g><g transform="matrix(1,0,0,1,163.310208,230.54962389293567)"><svg viewBox="0 0 232.209792 25.104766493152876" height="25.104766493152876" width="232.209792"><g transform="matrix(1,0,0,1,0,0)"><svg width="232.209792" viewBox="3 -33.13 312.14 33.760000000000005" height="25.104766493152876" data-palette-color="url(#9b80d1ef-cb6f-488d-8c4e-8b45c03bb48e)"><path d="M3-8.78L3-24.4 7.03-24.4 7.03-9.22Q7.03-7.3 7.56-5.86 8.1-4.42 9.33-3.64 10.55-2.85 12.63-2.85L12.63-2.85Q14.58-2.85 15.98-3.56 17.38-4.28 18.26-5.53 19.15-6.78 19.48-8.35L19.48-8.35 20.2-5.48 19.33-5.48Q18.95-3.83 17.95-2.46 16.95-1.1 15.26-0.29 13.58 0.53 11.1 0.53L11.1 0.53Q8.22 0.53 6.44-0.56 4.65-1.65 3.83-3.74 3-5.83 3-8.78L3-8.78ZM19.3-6.1L19.3-24.4 23.35-24.4 23.35 0 19.3 0 19.48-5.85 19.3-6.1ZM33.8-14.93L33.8-14.93 32.87-18.05 33.87-18.1Q34.67-21.2 36.62-22.99 38.57-24.78 41.8-24.78L41.8-24.78Q42.6-24.78 43.23-24.65 43.87-24.53 44.37-24.35L44.37-24.35 44.62-20.43Q44-20.63 43.23-20.75 42.47-20.88 41.55-20.88L41.55-20.88Q38.8-20.88 36.76-19.35 34.72-17.82 33.8-14.93ZM34-16.9L34 0 29.95 0 29.95-24.4 33.9-24.4 33.7-17.2 34-16.9ZM60.62 0.53L60.62 0.53Q58.37 0.53 56.71-0.23 55.05-0.98 54.02-2.38 53-3.78 52.65-5.63L52.65-5.63 51.3-5.63 52.52-9.43Q52.65-7.23 53.56-5.76 54.47-4.3 56-3.58 57.52-2.85 59.45-2.85L59.45-2.85Q62.5-2.85 64.11-4.65 65.72-6.45 65.72-10L65.72-10 65.72-14.58Q65.72-18.05 64.09-19.85 62.47-21.65 59.37-21.65L59.37-21.65Q57.52-21.65 56.09-20.93 54.67-20.2 53.73-18.95 52.8-17.7 52.45-16.1L52.45-16.1 51.52-18.93 52.67-18.93Q53.05-20.6 54.01-21.96 54.97-23.33 56.65-24.14 58.32-24.95 60.8-24.95L60.8-24.95Q65.2-24.95 67.5-22.21 69.8-19.48 69.8-14.28L69.8-14.28 69.8-10.23Q69.8-4.98 67.46-2.23 65.12 0.53 60.62 0.53ZM52.47-5.9L52.65 0 48.59 0 48.59-33.13 52.62-33.13 52.62-25.18 52.5-18.18 52.52-17.4 52.52-7.2 52.47-5.9ZM93.87-15.8L93.87 0 89.84 0 90.02-5.93 89.87-6.55 89.87-14.33 89.89-15.75Q89.89-18.73 88.38-20.15 86.87-21.58 83.59-21.58L83.59-21.58Q80.97-21.58 78.78-20.83 76.59-20.08 74.89-19.07L74.89-19.07 75.27-22.53Q76.22-23.1 77.53-23.66 78.84-24.23 80.53-24.6 82.22-24.98 84.24-24.98L84.24-24.98Q86.87-24.98 88.71-24.34 90.54-23.7 91.68-22.5 92.82-21.3 93.34-19.6 93.87-17.9 93.87-15.8L93.87-15.8ZM81.44 0.53L81.44 0.53Q77.82 0.53 75.88-1.24 73.94-3 73.94-6.28L73.94-6.28 73.94-7Q73.94-10.38 76.03-12.04 78.12-13.7 82.67-14.35L82.67-14.35 90.39-15.45 90.62-12.5 83.17-11.43Q80.37-11.03 79.17-10.06 77.97-9.1 77.97-7.23L77.97-7.23 77.97-6.83Q77.97-4.9 79.16-3.88 80.34-2.85 82.72-2.85L82.72-2.85Q84.82-2.85 86.32-3.58 87.82-4.3 88.74-5.53 89.67-6.75 89.99-8.25L89.99-8.25 90.62-5.5 89.84-5.5Q89.49-3.9 88.53-2.53 87.57-1.15 85.84-0.31 84.12 0.53 81.44 0.53ZM120.44-15.63L120.44 0 116.39 0 116.39-15.18Q116.39-17.15 115.85-18.57 115.32-20 114.1-20.79 112.89-21.58 110.79-21.58L110.79-21.58Q108.87-21.58 107.45-20.85 106.04-20.13 105.17-18.89 104.29-17.65 103.94-16.07L103.94-16.07 103.22-18.95 104.09-18.95Q104.49-20.6 105.49-21.96 106.49-23.33 108.18-24.14 109.87-24.95 112.32-24.95L112.32-24.95Q115.22-24.95 117-23.85 118.79-22.75 119.62-20.69 120.44-18.63 120.44-15.63L120.44-15.63ZM104.12-18.32L104.12 0 100.07 0 100.07-24.4 104.12-24.4 103.94-18.55 104.12-18.32ZM142.51-14.93L142.51-14.93 141.59-18.05 142.59-18.1Q143.39-21.2 145.34-22.99 147.29-24.78 150.51-24.78L150.51-24.78Q151.31-24.78 151.95-24.65 152.59-24.53 153.09-24.35L153.09-24.35 153.34-20.43Q152.71-20.63 151.95-20.75 151.19-20.88 150.26-20.88L150.26-20.88Q147.51-20.88 145.47-19.35 143.44-17.82 142.51-14.93ZM142.71-16.9L142.71 0 138.66 0 138.66-24.4 142.61-24.4 142.41-17.2 142.71-16.9ZM166.91 0.55L166.91 0.55Q161.33 0.55 158.51-2.18 155.68-4.9 155.68-9.98L155.68-9.98 155.68-14.33Q155.68-19.48 158.31-22.26 160.93-25.05 165.98-25.05L165.98-25.05Q169.38-25.05 171.66-23.79 173.93-22.53 175.08-20.2 176.23-17.88 176.23-14.65L176.23-14.65 176.23-13.75Q176.23-12.95 176.17-12.15 176.11-11.35 176.01-10.58L176.01-10.58 172.28-10.58Q172.33-11.78 172.35-12.85 172.36-13.93 172.36-14.83L172.36-14.83Q172.36-17.05 171.65-18.59 170.93-20.13 169.52-20.94 168.11-21.75 165.98-21.75L165.98-21.75Q162.83-21.75 161.26-19.93 159.68-18.1 159.68-14.7L159.68-14.7 159.68-12.38 159.71-11.88 159.71-9.55Q159.71-8.03 160.16-6.8 160.61-5.58 161.57-4.69 162.53-3.8 164.02-3.34 165.51-2.88 167.56-2.88L167.56-2.88Q169.93-2.88 171.98-3.5 174.03-4.13 175.83-5.2L175.83-5.2 175.46-1.7Q173.83-0.68 171.68-0.06 169.53 0.55 166.91 0.55ZM175.16-13.63L175.16-10.58 157.81-10.58 157.81-13.63 175.16-13.63ZM189.33 0.55L189.33 0.55Q186.38 0.55 184.18-0.09 181.98-0.73 180.53-1.48L180.53-1.48 180.16-5.23Q181.98-4.28 184.17-3.58 186.35-2.88 189.13-2.88L189.13-2.88Q191.96-2.88 193.38-3.78 194.81-4.67 194.81-6.45L194.81-6.45 194.81-6.73Q194.81-7.88 194.27-8.63 193.73-9.38 192.33-9.95 190.93-10.53 188.35-11.1L188.35-11.1Q185.28-11.78 183.5-12.69 181.73-13.6 180.97-14.95 180.21-16.3 180.21-18.25L180.21-18.25 180.21-18.48Q180.21-21.68 182.43-23.33 184.66-24.98 189.13-24.98L189.13-24.98Q192-24.98 194.12-24.33 196.23-23.68 197.58-22.88L197.58-22.88 197.96-19.45Q196.33-20.4 194.23-21.03 192.13-21.65 189.5-21.65L189.5-21.65Q187.6-21.65 186.43-21.26 185.25-20.88 184.73-20.16 184.21-19.45 184.21-18.45L184.21-18.45 184.21-18.25Q184.21-17.15 184.73-16.39 185.25-15.63 186.62-15.06 187.98-14.5 190.41-13.98L190.41-13.98Q193.53-13.35 195.37-12.48 197.21-11.6 198-10.26 198.81-8.93 198.81-6.83L198.81-6.83 198.81-6.4Q198.81-2.95 196.41-1.2 194 0.55 189.33 0.55ZM213.4 0.63L213.4 0.63Q208.15 0.63 205.44-2.21 202.73-5.05 202.73-10.38L202.73-10.38 202.73-14.1Q202.73-19.4 205.45-22.23 208.18-25.05 213.4-25.05L213.4-25.05Q218.65-25.05 221.37-22.23 224.08-19.4 224.08-14.1L224.08-14.1 224.08-10.38Q224.08-5.05 221.37-2.21 218.65 0.63 213.4 0.63ZM213.4-2.68L213.4-2.68Q216.65-2.68 218.34-4.6 220.03-6.53 220.03-10.15L220.03-10.15 220.03-14.33Q220.03-17.93 218.34-19.84 216.65-21.75 213.4-21.75L213.4-21.75Q210.18-21.75 208.48-19.84 206.78-17.93 206.78-14.33L206.78-14.33 206.78-10.15Q206.78-6.53 208.48-4.6 210.18-2.68 213.4-2.68ZM229.4-8.78L229.4-24.4 233.43-24.4 233.43-9.22Q233.43-7.3 233.96-5.86 234.5-4.42 235.72-3.64 236.95-2.85 239.03-2.85L239.03-2.85Q240.97-2.85 242.38-3.56 243.78-4.28 244.66-5.53 245.55-6.78 245.88-8.35L245.88-8.35 246.6-5.48 245.73-5.48Q245.35-3.83 244.35-2.46 243.35-1.1 241.66-0.29 239.97 0.53 237.5 0.53L237.5 0.53Q234.63 0.53 232.84-0.56 231.05-1.65 230.22-3.74 229.4-5.83 229.4-8.78L229.4-8.78ZM245.7-6.1L245.7-24.4 249.75-24.4 249.75 0 245.7 0 245.88-5.85 245.7-6.1ZM260.2-14.93L260.2-14.93 259.27-18.05 260.27-18.1Q261.07-21.2 263.02-22.99 264.97-24.78 268.2-24.78L268.2-24.78Q269-24.78 269.63-24.65 270.27-24.53 270.77-24.35L270.77-24.35 271.02-20.43Q270.4-20.63 269.63-20.75 268.87-20.88 267.95-20.88L267.95-20.88Q265.2-20.88 263.16-19.35 261.12-17.82 260.2-14.93ZM260.4-16.9L260.4 0 256.35 0 256.35-24.4 260.3-24.4 260.1-17.2 260.4-16.9ZM283.75 0.55L283.75 0.55Q278.5 0.55 275.93-2.29 273.37-5.13 273.37-10.33L273.37-10.33 273.37-14.13Q273.37-19.35 275.94-22.16 278.52-24.98 283.75-24.98L283.75-24.98Q285.3-24.98 286.57-24.69 287.85-24.4 288.86-23.94 289.87-23.48 290.57-22.98L290.57-22.98 290.92-19.45Q289.75-20.35 288.13-20.98 286.52-21.6 284.35-21.6L284.35-21.6Q280.85-21.6 279.13-19.66 277.42-17.73 277.42-14.03L277.42-14.03 277.42-10.43Q277.42-6.8 279.13-4.85 280.85-2.9 284.35-2.9L284.35-2.9Q286.6-2.9 288.23-3.53 289.87-4.15 291.15-5.05L291.15-5.05 290.77-1.48Q289.67-0.73 287.9-0.09 286.12 0.55 283.75 0.55ZM305.82 0.55L305.82 0.55Q300.24 0.55 297.42-2.18 294.59-4.9 294.59-9.98L294.59-9.98 294.59-14.33Q294.59-19.48 297.22-22.26 299.84-25.05 304.89-25.05L304.89-25.05Q308.29-25.05 310.57-23.79 312.84-22.53 313.99-20.2 315.14-17.88 315.14-14.65L315.14-14.65 315.14-13.75Q315.14-12.95 315.08-12.15 315.02-11.35 314.92-10.58L314.92-10.58 311.19-10.58Q311.24-11.78 311.25-12.85 311.27-13.93 311.27-14.83L311.27-14.83Q311.27-17.05 310.56-18.59 309.84-20.13 308.43-20.94 307.02-21.75 304.89-21.75L304.89-21.75Q301.74-21.75 300.17-19.93 298.59-18.1 298.59-14.7L298.59-14.7 298.59-12.38 298.62-11.88 298.62-9.55Q298.62-8.03 299.07-6.8 299.52-5.58 300.48-4.69 301.44-3.8 302.93-3.34 304.42-2.88 306.47-2.88L306.47-2.88Q308.84-2.88 310.89-3.5 312.94-4.13 314.74-5.2L314.74-5.2 314.37-1.7Q312.74-0.68 310.59-0.06 308.44 0.55 305.82 0.55ZM314.07-13.63L314.07-10.58 296.72-10.58 296.72-13.63 314.07-13.63Z" opacity="1" transform="matrix(1,0,0,1,0,0)" fill="black" class="slogan-text-1" id="SvgjsPath1615"></path></svg></g></svg></g></svg></g></svg></g><g transform="matrix(1,0,0,1,439.55227067765145,5.6115151930442835)"><svg viewBox="0 0 244.43135999999998 244.43135999999998" height="244.43135999999998" width="244.43135999999998"><g data-palette-color="url(#4224a25b-a46d-455a-859f-ec830682586e)"><rect width="66.8112384" height="244.43135999999998" fill="black" stroke="transparent" x="0" fill-opacity="1"></rect><rect width="66.8112384" height="244.43135999999998" fill="black" stroke="transparent" x="81.47711999999999" fill-opacity="0.75"></rect><rect width="66.8112384" height="244.43135999999998" fill="black" stroke="transparent" x="162.95423999999997" fill-opacity="0.5"></rect></g></svg></g></svg></g><defs><mask></mask></defs></svg><rect width="395.52" height="147.83456789064593" fill="black" stroke="none" visibility="hidden"></rect></g></mask></svg><rect width="395.52" height="147.83456789064593" fill="black" stroke="none" visibility="hidden"></rect></g></mask></svg><rect width="395.52" height="147.83456789064593" fill="black" stroke="none" visibility="hidden"></rect></g></mask><linearGradient x1="0" x2="1" y1="0.548" y2="0.55" id="4224a25b-a46d-455a-859f-ec830682586e"><stop stop-color="#ff6cab" offset="0"></stop><stop stop-color="#7366ff" offset="1"></stop></linearGradient><rect width="395.52" height="147.83456789064593" fill="url(#4224a25b-a46d-455a-859f-ec830682586e)" mask="url(#b483d5a1-3ee9-43c2-91e5-b53edcaa1280)" data-fill-palette-color="accent"></rect></svg><rect width="395.52" height="147.83456789064593" fill="none" stroke="none" visibility="hidden"></rect></g></svg></g></svg>