<svg xmlns="http://www.w3.org/2000/svg" version="1.1" xmlns:xlink="http://www.w3.org/1999/xlink" xmlns:svgjs="http://svgjs.dev/svgjs" width="2000" height="2116" viewBox="0 0 2000 2116"><g transform="matrix(1,0,0,1,-3.166956800068533,0)"><svg viewBox="0 0 189 200" data-background-color="#000000" preserveAspectRatio="xMidYMid meet" height="2116" width="2000" xmlns="http://www.w3.org/2000/svg" xmlns:xlink="http://www.w3.org/1999/xlink"><g id="tight-bounds" transform="matrix(1,0,0,1,0.29927741760647564,0)"><svg viewBox="0 0 188.40144516478705 200" height="200" width="188.40144516478705"><g><svg viewBox="0 0 216.0519309198976 229.35273212042063" height="200" width="188.40144516478705"><g></g><g transform="matrix(1,0,0,1,112.6523607071316,0.57052918437914)"><svg viewBox="0 0 103.39957021276598 228.21167375166235" height="228.21167375166235" width="103.39957021276598"><g id="textblocktransform"><svg viewBox="0 0 103.39957021276598 228.21167375166235" height="228.21167375166235" width="103.39957021276598" id="textblock"><g><svg viewBox="0 0 103.39957021276598 198.764" height="198.764" width="103.39957021276598"><g transform="matrix(1,0,0,1,0,0)"><svg width="103.39957021276598" viewBox="-0.9500000000000004 -15.799999999999997 24.450000000000003 39.55" height="198.764" data-palette-color="url(#311c6435-1311-4f1b-a87e-0b655c649297)"><svg></svg><svg></svg><g class="wordmark-text-0" data-fill-palette-color="primary" id="text-0"></g></svg></g></svg></g><g transform="matrix(1,0,0,1,0,219.23059375131916)"><svg viewBox="0 0 96.26499986808513 8.981080000343173" height="8.981080000343173" width="96.26499986808513"><g transform="matrix(1,0,0,1,0,0)"><svg width="96.26499986808513" viewBox="4 -36.01 385.96 36.01" height="8.981080000343173" data-palette-color="url(#b4971815-8571-4491-b100-588e57f60ada)"></svg></g></svg></g></svg></g></svg></g><g transform="matrix(1,0,0,1,0,84.14712729367898)"><svg viewBox="0 0 63.90093439148938 61.058477533062664" height="61.058477533062664" width="63.90093439148938"><g><svg xmlns="http://www.w3.org/2000/svg" xmlns:xlink="http://www.w3.org/1999/xlink" version="1.0" x="0" y="0" viewBox="13.899 18.333 73.49000000000001 70.221" enable-background="new 0 0 100 100" xml:space="preserve" height="61.058477533062664" width="63.90093439148938" class="icon-icon-0" data-fill-palette-color="accent" id="icon-0"></svg></g></svg></g></svg></g><defs></defs><mask id="ef2ce571-ea6a-4a03-873b-12389d156985"><g id="SvgjsG2888"><svg viewBox="0 0 188.40144516478705 200" height="200" width="188.40144516478705"><g><svg viewBox="0 0 216.0519309198976 229.35273212042063" height="200" width="188.40144516478705"><g><rect width="7.818238813003917" height="229.35273212042063" x="84.36752814280854" y="0" fill="white" opacity="1" stroke-width="0" stroke="transparent" fill-opacity="1" class="rect-yte-0" rx="1%" id="SvgjsRect2887" data-palette-color="url(#311c6435-1311-4f1b-a87e-0b655c649297)"></rect></g><g transform="matrix(1,0,0,1,112.6523607071316,0.57052918437914)"><svg viewBox="0 0 103.39957021276598 228.21167375166235" height="228.21167375166235" width="103.39957021276598"><g id="SvgjsG2886"><svg viewBox="0 0 103.39957021276598 228.21167375166235" height="228.21167375166235" width="103.39957021276598" id="SvgjsSvg2885"><g><svg viewBox="0 0 103.39957021276598 198.764" height="198.764" width="103.39957021276598"><g transform="matrix(1,0,0,1,0,0)"><svg width="103.39957021276598" viewBox="-0.9500000000000004 -15.799999999999997 24.450000000000003 39.55" height="198.764" data-palette-color="url(#311c6435-1311-4f1b-a87e-0b655c649297)"><svg></svg><svg></svg><g class="wordmark-text-0" data-fill-palette-color="primary" id="SvgjsG2884"><path d="M14 0.3v0c-0.167 0.033-0.523 0.05-1.07 0.05-0.553 0-1.103-0.217-1.65-0.65-0.553-0.433-0.83-0.993-0.83-1.68 0-0.68 0.127-1.437 0.38-2.27 0.247-0.833 0.42-1.467 0.52-1.9v0c-3.833 4.467-6.833 6.7-9 6.7v0c-1.367 0-2.117-0.85-2.25-2.55v0c0-0.133 0-0.25 0-0.35v0c0-1.433 0.867-3.367 2.6-5.8v0c-0.967 0.867-1.95 1.867-2.95 3v0c-0.133 0.133-0.3 0.2-0.5 0.2v0c-0.133 0-0.2-0.083-0.2-0.25 0-0.167 0.15-0.45 0.45-0.85v0l6.9-8.1c0.867-1 1.75-1.5 2.65-1.5 0.9 0 1.35 0.3 1.35 0.9v0c0 0.233-0.1 0.45-0.3 0.65v0c-1.333 1.233-3.007 3.283-5.02 6.15-2.02 2.867-3.03 4.983-3.03 6.35v0c0 0.6 0.2 0.9 0.6 0.9v0c1.4 0 3.433-1.383 6.1-4.15v0c0.933-0.933 2.667-2.993 5.2-6.18 2.533-3.18 4.2-4.77 5-4.77v0c1.2 0 1.8 0.467 1.8 1.4v0c0 0.333-0.7 1.3-2.1 2.9v0c-1.9 2.3-3.35 4.173-4.35 5.62-1 1.453-1.5 2.63-1.5 3.53 0 0.9 0.25 1.35 0.75 1.35v0c0.233 0 0.5-0.067 0.8-0.2v0c2.3-1 5.05-3.333 8.25-7v0c0.2-0.233 0.4-0.35 0.6-0.35 0.2 0 0.3 0.11 0.3 0.33 0 0.213-0.117 0.453-0.35 0.72v0c-1.433 1.667-3.117 3.34-5.05 5.02-1.933 1.687-3.3 2.613-4.1 2.78z" fill="white" fill-rule="nonzero" stroke="none" stroke-width="1" stroke-linecap="butt" stroke-linejoin="miter" stroke-miterlimit="10" stroke-dasharray="" stroke-dashoffset="0" font-family="none" font-weight="none" font-size="none" text-anchor="none" style="mix-blend-mode: normal" opacity="1"></path><path transform="translate(0,23.5)" d="M10.2 0.25v0c-2.5 0-3.75-1.383-3.75-4.15v0c0-1.4 0.367-2.933 1.1-4.6 0.733-1.667 1.533-3.067 2.4-4.2v0c-0.167 0.033-0.383 0.05-0.65 0.05v0c-0.8 0-1.467-0.567-2-1.7v0l-3.7 4.8c-2.067 2.567-3.267 3.85-3.6 3.85v0c-0.167 0-0.25-0.067-0.25-0.2v0c0-0.333 0.283-0.817 0.85-1.45v0c2.9-3.367 4.95-6.217 6.15-8.55v0c0.767-2.9 1.733-4.35 2.9-4.35v0c0.767 0 1.15 0.333 1.15 1 0 0.667-0.417 1.517-1.25 2.55v0l-1.2 1.6c0 0.7 0.517 1.05 1.55 1.05v0c0.6 0 1.267-0.217 2-0.65v0l1.3-0.8c0.067-0.033 0.233-0.05 0.5-0.05 0.267 0 0.55 0.167 0.85 0.5 0.3 0.333 0.4 0.633 0.3 0.9v0l-3.45 4.35c-2.133 2.733-3.2 4.89-3.2 6.47 0 1.587 0.733 2.38 2.2 2.38v0c1.533 0 3.417-0.817 5.65-2.45v0c1.333-0.967 2.55-2.05 3.65-3.25v0c1.033-1.2 1.6-1.8 1.7-1.8v0c0.233 0 0.35 0.123 0.35 0.37 0 0.253-0.15 0.547-0.45 0.88v0l-1.6 1.8c-0.9 0.933-1.9 1.833-3 2.7v0c-2.633 1.967-4.8 2.95-6.5 2.95z" fill="white" fill-rule="nonzero" stroke="none" stroke-width="1" stroke-linecap="butt" stroke-linejoin="miter" stroke-miterlimit="10" stroke-dasharray="" stroke-dashoffset="0" font-family="none" font-weight="none" font-size="none" text-anchor="none" style="mix-blend-mode: normal" opacity="1"></path></g></svg></g></svg></g><g transform="matrix(1,0,0,1,0,219.23059375131916)"><svg viewBox="0 0 96.26499986808513 8.981080000343173" height="8.981080000343173" width="96.26499986808513"><g transform="matrix(1,0,0,1,0,0)"><svg width="96.26499986808513" viewBox="4 -36.01 385.96 36.01" height="8.981080000343173" data-palette-color="url(#b4971815-8571-4491-b100-588e57f60ada)"><path d="M4-4.81L4-26 8.79-26 8.79-4.81 22.19-4.81 22.19-26 27-26 27 0 22.19 0 22.19-4.39Q22.12-3.49 21.7-2.69 21.29-1.88 20.64-1.28 20-0.68 19.17-0.34 18.33 0 17.41 0L17.41 0 8.79 0Q7.81 0 6.93-0.38 6.05-0.76 5.41-1.4 4.76-2.05 4.38-2.93 4-3.81 4-4.81L4-4.81ZM49.7-21.19L39.79-21.19 39.79 0 35.01 0 35.01-26 39.79-26 39.79-21.41Q39.84-22.36 40.23-23.21 40.62-24.05 41.27-24.67 41.92-25.29 42.77-25.65 43.63-26 44.6-26L44.6-26 49.7-26Q50.71-26 51.57-25.62 52.44-25.24 53.1-24.6 53.76-23.95 54.14-23.07 54.51-22.19 54.51-21.19L54.51-21.19 54.51-16.8 49.7-16.8 49.7-21.19ZM83.49-21.19L83.49-4.81Q83.49-3.81 83.11-2.93 82.73-2.05 82.09-1.4 81.44-0.76 80.56-0.38 79.68 0 78.68 0L78.68 0 65.28 0Q64.3 0 63.42-0.38 62.54-0.76 61.9-1.4 61.25-2.05 60.87-2.93 60.49-3.81 60.49-4.81L60.49-4.81 60.49-36.01 65.28-36.01 65.28-21.41Q65.33-22.36 65.72-23.21 66.11-24.05 66.76-24.67 67.4-25.29 68.26-25.65 69.11-26 70.09-26L70.09-26 78.68-26Q79.68-26 80.56-25.62 81.44-25.24 82.09-24.6 82.73-23.95 83.11-23.07 83.49-22.19 83.49-21.19L83.49-21.19ZM78.68-21.19L65.28-21.19 65.28-4.81 78.68-4.81 78.68-21.19ZM91.5-4.81L91.5-11.35Q91.5-12.35 91.87-13.22 92.25-14.09 92.9-14.75 93.55-15.41 94.43-15.78 95.31-16.16 96.28-16.16L96.28-16.16 108.68-16.16 108.68-21.19 92.99-21.19 92.99-26 108.68-26Q109.68-26 110.56-25.62 111.44-25.24 112.09-24.6 112.74-23.95 113.12-23.07 113.49-22.19 113.49-21.19L113.49-21.19 113.49 0 108.68 0 108.68-4.39Q108.61-3.49 108.2-2.69 107.78-1.88 107.13-1.28 106.49-0.68 105.66-0.34 104.83 0 103.9 0L103.9 0 96.28 0Q95.31 0 94.43-0.38 93.55-0.76 92.9-1.4 92.25-2.05 91.87-2.93 91.5-3.81 91.5-4.81L91.5-4.81ZM96.28-11.35L96.28-4.81 108.68-4.81 108.68-11.35 96.28-11.35ZM144.5-21.19L144.5 0 139.69 0 139.69-21.19 126.28-21.19 126.28 0 121.5 0 121.5-26 126.28-26 126.28-21.41Q126.33-22.36 126.72-23.21 127.11-24.05 127.76-24.67 128.41-25.29 129.26-25.65 130.12-26 131.09-26L131.09-26 139.69-26Q140.69-26 141.57-25.62 142.45-25.24 143.09-24.6 143.74-23.95 144.12-23.07 144.5-22.19 144.5-21.19L144.5-21.19ZM182.19-21.19L172.28-21.19 172.28 0 167.49 0 167.49-26 172.28-26 172.28-21.41Q172.32-22.36 172.71-23.21 173.11-24.05 173.75-24.67 174.4-25.29 175.25-25.65 176.11-26 177.08-26L177.08-26 182.19-26Q183.19-26 184.05-25.62 184.92-25.24 185.58-24.6 186.24-23.95 186.62-23.07 187-22.19 187-21.19L187-21.19 187-16.8 182.19-16.8 182.19-21.19ZM214.97-21.19L214.97-10.55 197.76-10.55 197.76-4.81 214.97-4.81 214.97 0 197.76 0Q196.78 0 195.91-0.38 195.03-0.76 194.38-1.4 193.73-2.05 193.35-2.93 192.98-3.81 192.98-4.81L192.98-4.81 192.98-21.19Q192.98-22.19 193.35-23.07 193.73-23.95 194.38-24.6 195.03-25.24 195.91-25.62 196.78-26 197.76-26L197.76-26 210.16-26Q211.16-26 212.04-25.62 212.92-25.24 213.57-24.6 214.22-23.95 214.59-23.07 214.97-22.19 214.97-21.19L214.97-21.19ZM210.16-21.19L197.76-21.19 197.76-15.36 210.16-15.36 210.16-21.19ZM222.47-4.81L238.68-4.81 238.68-10.84 227.27-10.84Q226.27-10.84 225.4-11.22 224.52-11.6 223.87-12.24 223.22-12.89 222.84-13.77 222.47-14.65 222.47-15.65L222.47-15.65 222.47-21.19Q222.47-22.19 222.84-23.07 223.22-23.95 223.87-24.6 224.52-25.24 225.4-25.62 226.27-26 227.27-26L227.27-26 242.48-26 242.48-21.19 227.27-21.19 227.27-15.65 238.68-15.65Q239.68-15.65 240.54-15.27 241.41-14.89 242.07-14.25 242.73-13.6 243.11-12.72 243.49-11.84 243.49-10.84L243.49-10.84 243.49-4.81Q243.49-3.81 243.11-2.93 242.73-2.05 242.07-1.4 241.41-0.76 240.54-0.38 239.68 0 238.68 0L238.68 0 222.47 0 222.47-4.81ZM273.46-21.19L273.46-4.81Q273.46-3.81 273.09-2.93 272.71-2.05 272.06-1.4 271.41-0.76 270.55-0.38 269.68 0 268.68 0L268.68 0 255.76 0Q254.79 0 253.91-0.38 253.03-0.76 252.38-1.4 251.74-2.05 251.36-2.93 250.98-3.81 250.98-4.81L250.98-4.81 250.98-21.19Q250.98-22.19 251.36-23.07 251.74-23.95 252.38-24.6 253.03-25.24 253.91-25.62 254.79-26 255.76-26L255.76-26 268.68-26Q269.68-26 270.55-25.62 271.41-25.24 272.06-24.6 272.71-23.95 273.09-23.07 273.46-22.19 273.46-21.19L273.46-21.19ZM268.68-21.19L255.76-21.19 255.76-4.81 268.68-4.81 268.68-21.19ZM281.47-4.81L281.47-26 286.25-26 286.25-4.81 299.66-4.81 299.66-26 304.47-26 304.47 0 299.66 0 299.66-4.39Q299.58-3.49 299.17-2.69 298.75-1.88 298.11-1.28 297.46-0.68 296.63-0.34 295.8 0 294.87 0L294.87 0 286.25 0Q285.28 0 284.4-0.38 283.52-0.76 282.87-1.4 282.23-2.05 281.85-2.93 281.47-3.81 281.47-4.81L281.47-4.81ZM327.17-21.19L317.26-21.19 317.26 0 312.47 0 312.47-26 317.26-26 317.26-21.41Q317.31-22.36 317.7-23.21 318.09-24.05 318.73-24.67 319.38-25.29 320.24-25.65 321.09-26 322.07-26L322.07-26 327.17-26Q328.17-26 329.04-25.62 329.9-25.24 330.56-24.6 331.22-23.95 331.6-23.07 331.98-22.19 331.98-21.19L331.98-21.19 331.98-16.8 327.17-16.8 327.17-21.19ZM355.15-21.19L342.74-21.19 342.74-4.81 355.15-4.81 355.15-9.2 359.96-9.2 359.96-4.81Q359.96-3.81 359.58-2.93 359.2-2.05 358.55-1.4 357.9-0.76 357.03-0.38 356.15 0 355.15 0L355.15 0 342.74 0Q341.77 0 340.89-0.38 340.01-0.76 339.36-1.4 338.72-2.05 338.34-2.93 337.96-3.81 337.96-4.81L337.96-4.81 337.96-21.19Q337.96-22.19 338.34-23.07 338.72-23.95 339.36-24.6 340.01-25.24 340.89-25.62 341.77-26 342.74-26L342.74-26 355.15-26Q356.15-26 357.03-25.62 357.9-25.24 358.55-24.6 359.2-23.95 359.58-23.07 359.96-22.19 359.96-21.19L359.96-21.19 359.96-16.8 355.15-16.8 355.15-21.19ZM389.96-21.19L389.96-10.55 372.75-10.55 372.75-4.81 389.96-4.81 389.96 0 372.75 0Q371.77 0 370.89-0.38 370.01-0.76 369.36-1.4 368.72-2.05 368.34-2.93 367.96-3.81 367.96-4.81L367.96-4.81 367.96-21.19Q367.96-22.19 368.34-23.07 368.72-23.95 369.36-24.6 370.01-25.24 370.89-25.62 371.77-26 372.75-26L372.75-26 385.15-26Q386.15-26 387.03-25.62 387.91-25.24 388.55-24.6 389.2-23.95 389.58-23.07 389.96-22.19 389.96-21.19L389.96-21.19ZM385.15-21.19L372.75-21.19 372.75-15.36 385.15-15.36 385.15-21.19Z" opacity="1" transform="matrix(1,0,0,1,0,0)" fill="black" class="slogan-text-1" id="SvgjsPath2883"></path></svg></g></svg></g></svg></g></svg></g><g transform="matrix(1,0,0,1,0,84.14712729367898)"><svg viewBox="0 0 63.90093439148938 61.058477533062664" height="61.058477533062664" width="63.90093439148938"><g><svg xmlns="http://www.w3.org/2000/svg" xmlns:xlink="http://www.w3.org/1999/xlink" version="1.0" x="0" y="0" viewBox="13.899 18.333 73.49000000000001 70.221" enable-background="new 0 0 100 100" xml:space="preserve" height="61.058477533062664" width="63.90093439148938" class="icon-icon-0" data-fill-palette-color="accent" id="SvgjsSvg2882"><g fill="black"><g fill="black"><polygon points="75.640625,30.2915039 51.5292969,30.2915039 51.5292969,45.1577148 61.8925781,45.1577148 61.8925781,38.7167969     75.640625,35.5162964   " fill="black"></polygon><path d="M64.893 41.099V88.554H87.389V35.861zM74.14 78.267H70.14V74.267H74.14zM74.14 69.517H70.14V65.517H74.14zM74.14 60.767H70.14V56.767H74.14zM74.14 52.017H70.14V48.017H74.14zM82.14 69.517H78.14V65.517H82.14zM82.14 60.767H78.14V56.767H82.14zM82.14 52.017H78.14V48.017H82.14z" fill="black"></path><path d="M39.396 45.158H48.529V29.413L37.45 18.333H18.823V33.283H39.396zM27.876 28.13H23.877V24.13H27.877zM35.877 28.13H31.877V24.13H35.877z" fill="black"></path><path d="M13.9 88.554H36.395V36.283H13.899zM27.147 42.892H31.148V46.892H27.148zM27.148 51.642H31.148V55.642H27.148zM27.148 60.392H31.148V64.392H27.148zM27.148 69.142H31.148V73.142H27.148zM19.148 42.892H23.148V46.892H19.148zM19.148 51.642H23.148V55.642H19.148zM19.148 60.392H23.148V64.392H19.148zM19.148 69.142H23.148V73.142H19.148z" fill="black"></path><path d="M39.396 88.554H61.893V48.158H39.396zM52.644 54.767H56.644V58.767H52.644zM52.644 63.517H56.644V67.517H52.644zM44.644 54.767H48.644V58.767H44.644zM44.644 63.517H48.644V67.517H44.644zM44.644 72.267H48.644V76.267H44.644z" fill="black"></path></g></g></svg></g></svg></g></svg></g><defs><mask></mask></defs></svg><rect width="188.40144516478705" height="200" fill="black" stroke="none" visibility="hidden"></rect></g></mask><linearGradient x1="0.054" x2="0.941" y1="0.5" y2="0.5" id="311c6435-1311-4f1b-a87e-0b655c649297"><stop stop-color="#9c7945" offset="0"></stop><stop stop-color="#faf3aa" offset="0.498"></stop><stop stop-color="#9c7945" offset="1"></stop></linearGradient><rect width="188.40144516478705" height="200" fill="url(#311c6435-1311-4f1b-a87e-0b655c649297)" mask="url(#ef2ce571-ea6a-4a03-873b-12389d156985)" data-fill-palette-color="primary"></rect><mask id="7c641de5-6e32-4019-b7ce-0981e1b9b932"><g id="SvgjsG2901"><svg viewBox="0 0 188.40144516478705 200" height="200" width="188.40144516478705"><g><svg viewBox="0 0 216.0519309198976 229.35273212042063" height="200" width="188.40144516478705"><g></g><g transform="matrix(1,0,0,1,112.6523607071316,0.57052918437914)"><svg viewBox="0 0 103.39957021276598 228.21167375166235" height="228.21167375166235" width="103.39957021276598"><g id="SvgjsG2900"><svg viewBox="0 0 103.39957021276598 228.21167375166235" height="228.21167375166235" width="103.39957021276598" id="SvgjsSvg2899"><g><svg viewBox="0 0 103.39957021276598 198.764" height="198.764" width="103.39957021276598"><g transform="matrix(1,0,0,1,0,0)"><svg width="103.39957021276598" viewBox="-0.9500000000000004 -15.799999999999997 24.450000000000003 39.55" height="198.764" data-palette-color="url(#311c6435-1311-4f1b-a87e-0b655c649297)"><svg></svg><svg></svg><g class="wordmark-text-0" data-fill-palette-color="primary" id="SvgjsG2898"></g></svg></g></svg></g><g transform="matrix(1,0,0,1,0,219.23059375131916)"><svg viewBox="0 0 96.26499986808513 8.981080000343173" height="8.981080000343173" width="96.26499986808513"><g transform="matrix(1,0,0,1,0,0)"><svg width="96.26499986808513" viewBox="4 -36.01 385.96 36.01" height="8.981080000343173" data-palette-color="url(#b4971815-8571-4491-b100-588e57f60ada)"><path d="M4-4.81L4-26 8.79-26 8.79-4.81 22.19-4.81 22.19-26 27-26 27 0 22.19 0 22.19-4.39Q22.12-3.49 21.7-2.69 21.29-1.88 20.64-1.28 20-0.68 19.17-0.34 18.33 0 17.41 0L17.41 0 8.79 0Q7.81 0 6.93-0.38 6.05-0.76 5.41-1.4 4.76-2.05 4.38-2.93 4-3.81 4-4.81L4-4.81ZM49.7-21.19L39.79-21.19 39.79 0 35.01 0 35.01-26 39.79-26 39.79-21.41Q39.84-22.36 40.23-23.21 40.62-24.05 41.27-24.67 41.92-25.29 42.77-25.65 43.63-26 44.6-26L44.6-26 49.7-26Q50.71-26 51.57-25.62 52.44-25.24 53.1-24.6 53.76-23.95 54.14-23.07 54.51-22.19 54.51-21.19L54.51-21.19 54.51-16.8 49.7-16.8 49.7-21.19ZM83.49-21.19L83.49-4.81Q83.49-3.81 83.11-2.93 82.73-2.05 82.09-1.4 81.44-0.76 80.56-0.38 79.68 0 78.68 0L78.68 0 65.28 0Q64.3 0 63.42-0.38 62.54-0.76 61.9-1.4 61.25-2.05 60.87-2.93 60.49-3.81 60.49-4.81L60.49-4.81 60.49-36.01 65.28-36.01 65.28-21.41Q65.33-22.36 65.72-23.21 66.11-24.05 66.76-24.67 67.4-25.29 68.26-25.65 69.11-26 70.09-26L70.09-26 78.68-26Q79.68-26 80.56-25.62 81.44-25.24 82.09-24.6 82.73-23.95 83.11-23.07 83.49-22.19 83.49-21.19L83.49-21.19ZM78.68-21.19L65.28-21.19 65.28-4.81 78.68-4.81 78.68-21.19ZM91.5-4.81L91.5-11.35Q91.5-12.35 91.87-13.22 92.25-14.09 92.9-14.75 93.55-15.41 94.43-15.78 95.31-16.16 96.28-16.16L96.28-16.16 108.68-16.16 108.68-21.19 92.99-21.19 92.99-26 108.68-26Q109.68-26 110.56-25.62 111.44-25.24 112.09-24.6 112.74-23.95 113.12-23.07 113.49-22.19 113.49-21.19L113.49-21.19 113.49 0 108.68 0 108.68-4.39Q108.61-3.49 108.2-2.69 107.78-1.88 107.13-1.28 106.49-0.68 105.66-0.34 104.83 0 103.9 0L103.9 0 96.28 0Q95.31 0 94.43-0.38 93.55-0.76 92.9-1.4 92.25-2.05 91.87-2.93 91.5-3.81 91.5-4.81L91.5-4.81ZM96.28-11.35L96.28-4.81 108.68-4.81 108.68-11.35 96.28-11.35ZM144.5-21.19L144.5 0 139.69 0 139.69-21.19 126.28-21.19 126.28 0 121.5 0 121.5-26 126.28-26 126.28-21.41Q126.33-22.36 126.72-23.21 127.11-24.05 127.76-24.67 128.41-25.29 129.26-25.65 130.12-26 131.09-26L131.09-26 139.69-26Q140.69-26 141.57-25.62 142.45-25.24 143.09-24.6 143.74-23.95 144.12-23.07 144.5-22.19 144.5-21.19L144.5-21.19ZM182.19-21.19L172.28-21.19 172.28 0 167.49 0 167.49-26 172.28-26 172.28-21.41Q172.32-22.36 172.71-23.21 173.11-24.05 173.75-24.67 174.4-25.29 175.25-25.65 176.11-26 177.08-26L177.08-26 182.19-26Q183.19-26 184.05-25.62 184.92-25.24 185.58-24.6 186.24-23.95 186.62-23.07 187-22.19 187-21.19L187-21.19 187-16.8 182.19-16.8 182.19-21.19ZM214.97-21.19L214.97-10.55 197.76-10.55 197.76-4.81 214.97-4.81 214.97 0 197.76 0Q196.78 0 195.91-0.38 195.03-0.76 194.38-1.4 193.73-2.05 193.35-2.93 192.98-3.81 192.98-4.81L192.98-4.81 192.98-21.19Q192.98-22.19 193.35-23.07 193.73-23.95 194.38-24.6 195.03-25.24 195.91-25.62 196.78-26 197.76-26L197.76-26 210.16-26Q211.16-26 212.04-25.62 212.92-25.24 213.57-24.6 214.22-23.95 214.59-23.07 214.97-22.19 214.97-21.19L214.97-21.19ZM210.16-21.19L197.76-21.19 197.76-15.36 210.16-15.36 210.16-21.19ZM222.47-4.81L238.68-4.81 238.68-10.84 227.27-10.84Q226.27-10.84 225.4-11.22 224.52-11.6 223.87-12.24 223.22-12.89 222.84-13.77 222.47-14.65 222.47-15.65L222.47-15.65 222.47-21.19Q222.47-22.19 222.84-23.07 223.22-23.95 223.87-24.6 224.52-25.24 225.4-25.62 226.27-26 227.27-26L227.27-26 242.48-26 242.48-21.19 227.27-21.19 227.27-15.65 238.68-15.65Q239.68-15.65 240.54-15.27 241.41-14.89 242.07-14.25 242.73-13.6 243.11-12.72 243.49-11.84 243.49-10.84L243.49-10.84 243.49-4.81Q243.49-3.81 243.11-2.93 242.73-2.05 242.07-1.4 241.41-0.76 240.54-0.38 239.68 0 238.68 0L238.68 0 222.47 0 222.47-4.81ZM273.46-21.19L273.46-4.81Q273.46-3.81 273.09-2.93 272.71-2.05 272.06-1.4 271.41-0.76 270.55-0.38 269.68 0 268.68 0L268.68 0 255.76 0Q254.79 0 253.91-0.38 253.03-0.76 252.38-1.4 251.74-2.05 251.36-2.93 250.98-3.81 250.98-4.81L250.98-4.81 250.98-21.19Q250.98-22.19 251.36-23.07 251.74-23.95 252.38-24.6 253.03-25.24 253.91-25.62 254.79-26 255.76-26L255.76-26 268.68-26Q269.68-26 270.55-25.62 271.41-25.24 272.06-24.6 272.71-23.95 273.09-23.07 273.46-22.19 273.46-21.19L273.46-21.19ZM268.68-21.19L255.76-21.19 255.76-4.81 268.68-4.81 268.68-21.19ZM281.47-4.81L281.47-26 286.25-26 286.25-4.81 299.66-4.81 299.66-26 304.47-26 304.47 0 299.66 0 299.66-4.39Q299.58-3.49 299.17-2.69 298.75-1.88 298.11-1.28 297.46-0.68 296.63-0.34 295.8 0 294.87 0L294.87 0 286.25 0Q285.28 0 284.4-0.38 283.52-0.76 282.87-1.4 282.23-2.05 281.85-2.93 281.47-3.81 281.47-4.81L281.47-4.81ZM327.17-21.19L317.26-21.19 317.26 0 312.47 0 312.47-26 317.26-26 317.26-21.41Q317.31-22.36 317.7-23.21 318.09-24.05 318.73-24.67 319.38-25.29 320.24-25.65 321.09-26 322.07-26L322.07-26 327.17-26Q328.17-26 329.04-25.62 329.9-25.24 330.56-24.6 331.22-23.95 331.6-23.07 331.98-22.19 331.98-21.19L331.98-21.19 331.98-16.8 327.17-16.8 327.17-21.19ZM355.15-21.19L342.74-21.19 342.74-4.81 355.15-4.81 355.15-9.2 359.96-9.2 359.96-4.81Q359.96-3.81 359.58-2.93 359.2-2.05 358.55-1.4 357.9-0.76 357.03-0.38 356.15 0 355.15 0L355.15 0 342.74 0Q341.77 0 340.89-0.38 340.01-0.76 339.36-1.4 338.72-2.05 338.34-2.93 337.96-3.81 337.96-4.81L337.96-4.81 337.96-21.19Q337.96-22.19 338.34-23.07 338.72-23.95 339.36-24.6 340.01-25.24 340.89-25.62 341.77-26 342.74-26L342.74-26 355.15-26Q356.15-26 357.03-25.62 357.9-25.24 358.55-24.6 359.2-23.95 359.58-23.07 359.96-22.19 359.96-21.19L359.96-21.19 359.96-16.8 355.15-16.8 355.15-21.19ZM389.96-21.19L389.96-10.55 372.75-10.55 372.75-4.81 389.96-4.81 389.96 0 372.75 0Q371.77 0 370.89-0.38 370.01-0.76 369.36-1.4 368.72-2.05 368.34-2.93 367.96-3.81 367.96-4.81L367.96-4.81 367.96-21.19Q367.96-22.19 368.34-23.07 368.72-23.95 369.36-24.6 370.01-25.24 370.89-25.62 371.77-26 372.75-26L372.75-26 385.15-26Q386.15-26 387.03-25.62 387.91-25.24 388.55-24.6 389.2-23.95 389.58-23.07 389.96-22.19 389.96-21.19L389.96-21.19ZM385.15-21.19L372.75-21.19 372.75-15.36 385.15-15.36 385.15-21.19Z" opacity="1" transform="matrix(1,0,0,1,0,0)" fill="white" class="slogan-text-1" id="SvgjsPath2897"></path></svg></g></svg></g></svg></g></svg></g><g transform="matrix(1,0,0,1,0,84.14712729367898)"><svg viewBox="0 0 63.90093439148938 61.058477533062664" height="61.058477533062664" width="63.90093439148938"><g><svg xmlns="http://www.w3.org/2000/svg" xmlns:xlink="http://www.w3.org/1999/xlink" version="1.0" x="0" y="0" viewBox="13.899 18.333 73.49000000000001 70.221" enable-background="new 0 0 100 100" xml:space="preserve" height="61.058477533062664" width="63.90093439148938" class="icon-icon-0" data-fill-palette-color="accent" id="SvgjsSvg2896"><g fill="black"><g fill="black"><polygon points="75.640625,30.2915039 51.5292969,30.2915039 51.5292969,45.1577148 61.8925781,45.1577148 61.8925781,38.7167969     75.640625,35.5162964   " fill="black"></polygon><path d="M64.893 41.099V88.554H87.389V35.861zM74.14 78.267H70.14V74.267H74.14zM74.14 69.517H70.14V65.517H74.14zM74.14 60.767H70.14V56.767H74.14zM74.14 52.017H70.14V48.017H74.14zM82.14 69.517H78.14V65.517H82.14zM82.14 60.767H78.14V56.767H82.14zM82.14 52.017H78.14V48.017H82.14z" fill="black"></path><path d="M39.396 45.158H48.529V29.413L37.45 18.333H18.823V33.283H39.396zM27.876 28.13H23.877V24.13H27.877zM35.877 28.13H31.877V24.13H35.877z" fill="black"></path><path d="M13.9 88.554H36.395V36.283H13.899zM27.147 42.892H31.148V46.892H27.148zM27.148 51.642H31.148V55.642H27.148zM27.148 60.392H31.148V64.392H27.148zM27.148 69.142H31.148V73.142H27.148zM19.148 42.892H23.148V46.892H19.148zM19.148 51.642H23.148V55.642H19.148zM19.148 60.392H23.148V64.392H19.148zM19.148 69.142H23.148V73.142H19.148z" fill="black"></path><path d="M39.396 88.554H61.893V48.158H39.396zM52.644 54.767H56.644V58.767H52.644zM52.644 63.517H56.644V67.517H52.644zM44.644 54.767H48.644V58.767H44.644zM44.644 63.517H48.644V67.517H44.644zM44.644 72.267H48.644V76.267H44.644z" fill="black"></path></g></g></svg></g></svg></g></svg></g><defs><mask></mask></defs><mask><g id="SvgjsG2895"><svg viewBox="0 0 188.40144516478705 200" height="200" width="188.40144516478705"><g><svg viewBox="0 0 216.0519309198976 229.35273212042063" height="200" width="188.40144516478705"><g><rect width="7.818238813003917" height="229.35273212042063" x="84.36752814280854" y="0" fill="black" opacity="1" stroke-width="0" stroke="transparent" fill-opacity="1" class="rect-yte-0" rx="1%" id="SvgjsRect2894" data-palette-color="url(#311c6435-1311-4f1b-a87e-0b655c649297)"></rect></g><g transform="matrix(1,0,0,1,112.6523607071316,0.57052918437914)"><svg viewBox="0 0 103.39957021276598 228.21167375166235" height="228.21167375166235" width="103.39957021276598"><g id="SvgjsG2893"><svg viewBox="0 0 103.39957021276598 228.21167375166235" height="228.21167375166235" width="103.39957021276598" id="SvgjsSvg2892"><g><svg viewBox="0 0 103.39957021276598 198.764" height="198.764" width="103.39957021276598"><g transform="matrix(1,0,0,1,0,0)"><svg width="103.39957021276598" viewBox="-0.9500000000000004 -15.799999999999997 24.450000000000003 39.55" height="198.764" data-palette-color="url(#311c6435-1311-4f1b-a87e-0b655c649297)"><svg></svg><svg></svg><g class="wordmark-text-0" data-fill-palette-color="primary" id="SvgjsG2891"><path d="M14 0.3v0c-0.167 0.033-0.523 0.05-1.07 0.05-0.553 0-1.103-0.217-1.65-0.65-0.553-0.433-0.83-0.993-0.83-1.68 0-0.68 0.127-1.437 0.38-2.27 0.247-0.833 0.42-1.467 0.52-1.9v0c-3.833 4.467-6.833 6.7-9 6.7v0c-1.367 0-2.117-0.85-2.25-2.55v0c0-0.133 0-0.25 0-0.35v0c0-1.433 0.867-3.367 2.6-5.8v0c-0.967 0.867-1.95 1.867-2.95 3v0c-0.133 0.133-0.3 0.2-0.5 0.2v0c-0.133 0-0.2-0.083-0.2-0.25 0-0.167 0.15-0.45 0.45-0.85v0l6.9-8.1c0.867-1 1.75-1.5 2.65-1.5 0.9 0 1.35 0.3 1.35 0.9v0c0 0.233-0.1 0.45-0.3 0.65v0c-1.333 1.233-3.007 3.283-5.02 6.15-2.02 2.867-3.03 4.983-3.03 6.35v0c0 0.6 0.2 0.9 0.6 0.9v0c1.4 0 3.433-1.383 6.1-4.15v0c0.933-0.933 2.667-2.993 5.2-6.18 2.533-3.18 4.2-4.77 5-4.77v0c1.2 0 1.8 0.467 1.8 1.4v0c0 0.333-0.7 1.3-2.1 2.9v0c-1.9 2.3-3.35 4.173-4.35 5.62-1 1.453-1.5 2.63-1.5 3.53 0 0.9 0.25 1.35 0.75 1.35v0c0.233 0 0.5-0.067 0.8-0.2v0c2.3-1 5.05-3.333 8.25-7v0c0.2-0.233 0.4-0.35 0.6-0.35 0.2 0 0.3 0.11 0.3 0.33 0 0.213-0.117 0.453-0.35 0.72v0c-1.433 1.667-3.117 3.34-5.05 5.02-1.933 1.687-3.3 2.613-4.1 2.78z" fill="black" fill-rule="nonzero" stroke="none" stroke-width="1" stroke-linecap="butt" stroke-linejoin="miter" stroke-miterlimit="10" stroke-dasharray="" stroke-dashoffset="0" font-family="none" font-weight="none" font-size="none" text-anchor="none" style="mix-blend-mode: normal" opacity="1"></path><path transform="translate(0,23.5)" d="M10.2 0.25v0c-2.5 0-3.75-1.383-3.75-4.15v0c0-1.4 0.367-2.933 1.1-4.6 0.733-1.667 1.533-3.067 2.4-4.2v0c-0.167 0.033-0.383 0.05-0.65 0.05v0c-0.8 0-1.467-0.567-2-1.7v0l-3.7 4.8c-2.067 2.567-3.267 3.85-3.6 3.85v0c-0.167 0-0.25-0.067-0.25-0.2v0c0-0.333 0.283-0.817 0.85-1.45v0c2.9-3.367 4.95-6.217 6.15-8.55v0c0.767-2.9 1.733-4.35 2.9-4.35v0c0.767 0 1.15 0.333 1.15 1 0 0.667-0.417 1.517-1.25 2.55v0l-1.2 1.6c0 0.7 0.517 1.05 1.55 1.05v0c0.6 0 1.267-0.217 2-0.65v0l1.3-0.8c0.067-0.033 0.233-0.05 0.5-0.05 0.267 0 0.55 0.167 0.85 0.5 0.3 0.333 0.4 0.633 0.3 0.9v0l-3.45 4.35c-2.133 2.733-3.2 4.89-3.2 6.47 0 1.587 0.733 2.38 2.2 2.38v0c1.533 0 3.417-0.817 5.65-2.45v0c1.333-0.967 2.55-2.05 3.65-3.25v0c1.033-1.2 1.6-1.8 1.7-1.8v0c0.233 0 0.35 0.123 0.35 0.37 0 0.253-0.15 0.547-0.45 0.88v0l-1.6 1.8c-0.9 0.933-1.9 1.833-3 2.7v0c-2.633 1.967-4.8 2.95-6.5 2.95z" fill="black" fill-rule="nonzero" stroke="none" stroke-width="1" stroke-linecap="butt" stroke-linejoin="miter" stroke-miterlimit="10" stroke-dasharray="" stroke-dashoffset="0" font-family="none" font-weight="none" font-size="none" text-anchor="none" style="mix-blend-mode: normal" opacity="1"></path></g></svg></g></svg></g><g transform="matrix(1,0,0,1,0,219.23059375131916)"><svg viewBox="0 0 96.26499986808513 8.981080000343173" height="8.981080000343173" width="96.26499986808513"><g transform="matrix(1,0,0,1,0,0)"><svg width="96.26499986808513" viewBox="4 -36.01 385.96 36.01" height="8.981080000343173" data-palette-color="url(#b4971815-8571-4491-b100-588e57f60ada)"><path d="M4-4.81L4-26 8.79-26 8.79-4.81 22.19-4.81 22.19-26 27-26 27 0 22.19 0 22.19-4.39Q22.12-3.49 21.7-2.69 21.29-1.88 20.64-1.28 20-0.68 19.17-0.34 18.33 0 17.41 0L17.41 0 8.79 0Q7.81 0 6.93-0.38 6.05-0.76 5.41-1.4 4.76-2.05 4.38-2.93 4-3.81 4-4.81L4-4.81ZM49.7-21.19L39.79-21.19 39.79 0 35.01 0 35.01-26 39.79-26 39.79-21.41Q39.84-22.36 40.23-23.21 40.62-24.05 41.27-24.67 41.92-25.29 42.77-25.65 43.63-26 44.6-26L44.6-26 49.7-26Q50.71-26 51.57-25.62 52.44-25.24 53.1-24.6 53.76-23.95 54.14-23.07 54.51-22.19 54.51-21.19L54.51-21.19 54.51-16.8 49.7-16.8 49.7-21.19ZM83.49-21.19L83.49-4.81Q83.49-3.81 83.11-2.93 82.73-2.05 82.09-1.4 81.44-0.76 80.56-0.38 79.68 0 78.68 0L78.68 0 65.28 0Q64.3 0 63.42-0.38 62.54-0.76 61.9-1.4 61.25-2.05 60.87-2.93 60.49-3.81 60.49-4.81L60.49-4.81 60.49-36.01 65.28-36.01 65.28-21.41Q65.33-22.36 65.72-23.21 66.11-24.05 66.76-24.67 67.4-25.29 68.26-25.65 69.11-26 70.09-26L70.09-26 78.68-26Q79.68-26 80.56-25.62 81.44-25.24 82.09-24.6 82.73-23.95 83.11-23.07 83.49-22.19 83.49-21.19L83.49-21.19ZM78.68-21.19L65.28-21.19 65.28-4.81 78.68-4.81 78.68-21.19ZM91.5-4.81L91.5-11.35Q91.5-12.35 91.87-13.22 92.25-14.09 92.9-14.75 93.55-15.41 94.43-15.78 95.31-16.16 96.28-16.16L96.28-16.16 108.68-16.16 108.68-21.19 92.99-21.19 92.99-26 108.68-26Q109.68-26 110.56-25.62 111.44-25.24 112.09-24.6 112.74-23.95 113.12-23.07 113.49-22.19 113.49-21.19L113.49-21.19 113.49 0 108.68 0 108.68-4.39Q108.61-3.49 108.2-2.69 107.78-1.88 107.13-1.28 106.49-0.68 105.66-0.34 104.83 0 103.9 0L103.9 0 96.28 0Q95.31 0 94.43-0.38 93.55-0.76 92.9-1.4 92.25-2.05 91.87-2.93 91.5-3.81 91.5-4.81L91.5-4.81ZM96.28-11.35L96.28-4.81 108.68-4.81 108.68-11.35 96.28-11.35ZM144.5-21.19L144.5 0 139.69 0 139.69-21.19 126.28-21.19 126.28 0 121.5 0 121.5-26 126.28-26 126.28-21.41Q126.33-22.36 126.72-23.21 127.11-24.05 127.76-24.67 128.41-25.29 129.26-25.65 130.12-26 131.09-26L131.09-26 139.69-26Q140.69-26 141.57-25.62 142.45-25.24 143.09-24.6 143.74-23.95 144.12-23.07 144.5-22.19 144.5-21.19L144.5-21.19ZM182.19-21.19L172.28-21.19 172.28 0 167.49 0 167.49-26 172.28-26 172.28-21.41Q172.32-22.36 172.71-23.21 173.11-24.05 173.75-24.67 174.4-25.29 175.25-25.65 176.11-26 177.08-26L177.08-26 182.19-26Q183.19-26 184.05-25.62 184.92-25.24 185.58-24.6 186.24-23.95 186.62-23.07 187-22.19 187-21.19L187-21.19 187-16.8 182.19-16.8 182.19-21.19ZM214.97-21.19L214.97-10.55 197.76-10.55 197.76-4.81 214.97-4.81 214.97 0 197.76 0Q196.78 0 195.91-0.38 195.03-0.76 194.38-1.4 193.73-2.05 193.35-2.93 192.98-3.81 192.98-4.81L192.98-4.81 192.98-21.19Q192.98-22.19 193.35-23.07 193.73-23.95 194.38-24.6 195.03-25.24 195.91-25.62 196.78-26 197.76-26L197.76-26 210.16-26Q211.16-26 212.04-25.62 212.92-25.24 213.57-24.6 214.22-23.95 214.59-23.07 214.97-22.19 214.97-21.19L214.97-21.19ZM210.16-21.19L197.76-21.19 197.76-15.36 210.16-15.36 210.16-21.19ZM222.47-4.81L238.68-4.81 238.68-10.84 227.27-10.84Q226.27-10.84 225.4-11.22 224.52-11.6 223.87-12.24 223.22-12.89 222.84-13.77 222.47-14.65 222.47-15.65L222.47-15.65 222.47-21.19Q222.47-22.19 222.84-23.07 223.22-23.95 223.87-24.6 224.52-25.24 225.4-25.62 226.27-26 227.27-26L227.27-26 242.48-26 242.48-21.19 227.27-21.19 227.27-15.65 238.68-15.65Q239.68-15.65 240.54-15.27 241.41-14.89 242.07-14.25 242.73-13.6 243.11-12.72 243.49-11.84 243.49-10.84L243.49-10.84 243.49-4.81Q243.49-3.81 243.11-2.93 242.73-2.05 242.07-1.4 241.41-0.76 240.54-0.38 239.68 0 238.68 0L238.68 0 222.47 0 222.47-4.81ZM273.46-21.19L273.46-4.81Q273.46-3.81 273.09-2.93 272.71-2.05 272.06-1.4 271.41-0.76 270.55-0.38 269.68 0 268.68 0L268.68 0 255.76 0Q254.79 0 253.91-0.38 253.03-0.76 252.38-1.4 251.74-2.05 251.36-2.93 250.98-3.81 250.98-4.81L250.98-4.81 250.98-21.19Q250.98-22.19 251.36-23.07 251.74-23.95 252.38-24.6 253.03-25.24 253.91-25.62 254.79-26 255.76-26L255.76-26 268.68-26Q269.68-26 270.55-25.62 271.41-25.24 272.06-24.6 272.71-23.95 273.09-23.07 273.46-22.19 273.46-21.19L273.46-21.19ZM268.68-21.19L255.76-21.19 255.76-4.81 268.68-4.81 268.68-21.19ZM281.47-4.81L281.47-26 286.25-26 286.25-4.81 299.66-4.81 299.66-26 304.47-26 304.47 0 299.66 0 299.66-4.39Q299.58-3.49 299.17-2.69 298.75-1.88 298.11-1.28 297.46-0.68 296.63-0.34 295.8 0 294.87 0L294.87 0 286.25 0Q285.28 0 284.4-0.38 283.52-0.76 282.87-1.4 282.23-2.05 281.85-2.93 281.47-3.81 281.47-4.81L281.47-4.81ZM327.17-21.19L317.26-21.19 317.26 0 312.47 0 312.47-26 317.26-26 317.26-21.41Q317.31-22.36 317.7-23.21 318.09-24.05 318.73-24.67 319.38-25.29 320.24-25.65 321.09-26 322.07-26L322.07-26 327.17-26Q328.17-26 329.04-25.62 329.9-25.24 330.56-24.6 331.22-23.95 331.6-23.07 331.98-22.19 331.98-21.19L331.98-21.19 331.98-16.8 327.17-16.8 327.17-21.19ZM355.15-21.19L342.74-21.19 342.74-4.81 355.15-4.81 355.15-9.2 359.96-9.2 359.96-4.81Q359.96-3.81 359.58-2.93 359.2-2.05 358.55-1.4 357.9-0.76 357.03-0.38 356.15 0 355.15 0L355.15 0 342.74 0Q341.77 0 340.89-0.38 340.01-0.76 339.36-1.4 338.72-2.05 338.34-2.93 337.96-3.81 337.96-4.81L337.96-4.81 337.96-21.19Q337.96-22.19 338.34-23.07 338.72-23.95 339.36-24.6 340.01-25.24 340.89-25.62 341.77-26 342.74-26L342.74-26 355.15-26Q356.15-26 357.03-25.62 357.9-25.24 358.55-24.6 359.2-23.95 359.58-23.07 359.96-22.19 359.96-21.19L359.96-21.19 359.96-16.8 355.15-16.8 355.15-21.19ZM389.96-21.19L389.96-10.55 372.75-10.55 372.75-4.81 389.96-4.81 389.96 0 372.75 0Q371.77 0 370.89-0.38 370.01-0.76 369.36-1.4 368.72-2.05 368.34-2.93 367.96-3.81 367.96-4.81L367.96-4.81 367.96-21.19Q367.96-22.19 368.34-23.07 368.72-23.95 369.36-24.6 370.01-25.24 370.89-25.62 371.77-26 372.75-26L372.75-26 385.15-26Q386.15-26 387.03-25.62 387.91-25.24 388.55-24.6 389.2-23.95 389.58-23.07 389.96-22.19 389.96-21.19L389.96-21.19ZM385.15-21.19L372.75-21.19 372.75-15.36 385.15-15.36 385.15-21.19Z" opacity="1" transform="matrix(1,0,0,1,0,0)" fill="black" class="slogan-text-1" id="SvgjsPath2890"></path></svg></g></svg></g></svg></g></svg></g><g transform="matrix(1,0,0,1,0,84.14712729367898)"><svg viewBox="0 0 63.90093439148938 61.058477533062664" height="61.058477533062664" width="63.90093439148938"><g><svg xmlns="http://www.w3.org/2000/svg" xmlns:xlink="http://www.w3.org/1999/xlink" version="1.0" x="0" y="0" viewBox="13.899 18.333 73.49000000000001 70.221" enable-background="new 0 0 100 100" xml:space="preserve" height="61.058477533062664" width="63.90093439148938" class="icon-icon-0" data-fill-palette-color="accent" id="SvgjsSvg2889"><g fill="black"><g fill="black"><polygon points="75.640625,30.2915039 51.5292969,30.2915039 51.5292969,45.1577148 61.8925781,45.1577148 61.8925781,38.7167969     75.640625,35.5162964   " fill="black"></polygon><path d="M64.893 41.099V88.554H87.389V35.861zM74.14 78.267H70.14V74.267H74.14zM74.14 69.517H70.14V65.517H74.14zM74.14 60.767H70.14V56.767H74.14zM74.14 52.017H70.14V48.017H74.14zM82.14 69.517H78.14V65.517H82.14zM82.14 60.767H78.14V56.767H82.14zM82.14 52.017H78.14V48.017H82.14z" fill="black"></path><path d="M39.396 45.158H48.529V29.413L37.45 18.333H18.823V33.283H39.396zM27.876 28.13H23.877V24.13H27.877zM35.877 28.13H31.877V24.13H35.877z" fill="black"></path><path d="M13.9 88.554H36.395V36.283H13.899zM27.147 42.892H31.148V46.892H27.148zM27.148 51.642H31.148V55.642H27.148zM27.148 60.392H31.148V64.392H27.148zM27.148 69.142H31.148V73.142H27.148zM19.148 42.892H23.148V46.892H19.148zM19.148 51.642H23.148V55.642H19.148zM19.148 60.392H23.148V64.392H19.148zM19.148 69.142H23.148V73.142H19.148z" fill="black"></path><path d="M39.396 88.554H61.893V48.158H39.396zM52.644 54.767H56.644V58.767H52.644zM52.644 63.517H56.644V67.517H52.644zM44.644 54.767H48.644V58.767H44.644zM44.644 63.517H48.644V67.517H44.644zM44.644 72.267H48.644V76.267H44.644z" fill="black"></path></g></g></svg></g></svg></g></svg></g><defs><mask></mask></defs></svg><rect width="188.40144516478705" height="200" fill="black" stroke="none" visibility="hidden"></rect></g></mask></svg><rect width="188.40144516478705" height="200" fill="black" stroke="none" visibility="hidden"></rect></g></mask><linearGradient x1="0.054" x2="0.941" y1="0.5" y2="0.5" id="b4971815-8571-4491-b100-588e57f60ada"><stop stop-color="#9c7945" offset="0"></stop><stop stop-color="#faf3aa" offset="0.498"></stop><stop stop-color="#9c7945" offset="1"></stop></linearGradient><rect width="188.40144516478705" height="200" fill="url(#b4971815-8571-4491-b100-588e57f60ada)" mask="url(#7c641de5-6e32-4019-b7ce-0981e1b9b932)" data-fill-palette-color="secondary"></rect><mask id="ce4da07a-25da-4043-bbf6-1e22da917765"><g id="SvgjsG2926"><svg viewBox="0 0 188.40144516478705 200" height="200" width="188.40144516478705"><g><svg viewBox="0 0 216.0519309198976 229.35273212042063" height="200" width="188.40144516478705"><g></g><g transform="matrix(1,0,0,1,112.6523607071316,0.57052918437914)"><svg viewBox="0 0 103.39957021276598 228.21167375166235" height="228.21167375166235" width="103.39957021276598"><g id="SvgjsG2925"><svg viewBox="0 0 103.39957021276598 228.21167375166235" height="228.21167375166235" width="103.39957021276598" id="SvgjsSvg2924"><g><svg viewBox="0 0 103.39957021276598 198.764" height="198.764" width="103.39957021276598"><g transform="matrix(1,0,0,1,0,0)"><svg width="103.39957021276598" viewBox="-0.9500000000000004 -15.799999999999997 24.450000000000003 39.55" height="198.764" data-palette-color="url(#311c6435-1311-4f1b-a87e-0b655c649297)"><svg></svg><svg></svg><g class="wordmark-text-0" data-fill-palette-color="primary" id="SvgjsG2923"></g></svg></g></svg></g><g transform="matrix(1,0,0,1,0,219.23059375131916)"><svg viewBox="0 0 96.26499986808513 8.981080000343173" height="8.981080000343173" width="96.26499986808513"><g transform="matrix(1,0,0,1,0,0)"><svg width="96.26499986808513" viewBox="4 -36.01 385.96 36.01" height="8.981080000343173" data-palette-color="url(#b4971815-8571-4491-b100-588e57f60ada)"></svg></g></svg></g></svg></g></svg></g><g transform="matrix(1,0,0,1,0,84.14712729367898)"><svg viewBox="0 0 63.90093439148938 61.058477533062664" height="61.058477533062664" width="63.90093439148938"><g><svg xmlns="http://www.w3.org/2000/svg" xmlns:xlink="http://www.w3.org/1999/xlink" version="1.0" x="0" y="0" viewBox="13.899 18.333 73.49000000000001 70.221" enable-background="new 0 0 100 100" xml:space="preserve" height="61.058477533062664" width="63.90093439148938" class="icon-icon-0" data-fill-palette-color="accent" id="SvgjsSvg2922"><g fill="white"><g fill="white"><polygon points="75.640625,30.2915039 51.5292969,30.2915039 51.5292969,45.1577148 61.8925781,45.1577148 61.8925781,38.7167969     75.640625,35.5162964   " fill="white"></polygon><path d="M64.893 41.099V88.554H87.389V35.861zM74.14 78.267H70.14V74.267H74.14zM74.14 69.517H70.14V65.517H74.14zM74.14 60.767H70.14V56.767H74.14zM74.14 52.017H70.14V48.017H74.14zM82.14 69.517H78.14V65.517H82.14zM82.14 60.767H78.14V56.767H82.14zM82.14 52.017H78.14V48.017H82.14z" fill="white"></path><path d="M39.396 45.158H48.529V29.413L37.45 18.333H18.823V33.283H39.396zM27.876 28.13H23.877V24.13H27.877zM35.877 28.13H31.877V24.13H35.877z" fill="white"></path><path d="M13.9 88.554H36.395V36.283H13.899zM27.147 42.892H31.148V46.892H27.148zM27.148 51.642H31.148V55.642H27.148zM27.148 60.392H31.148V64.392H27.148zM27.148 69.142H31.148V73.142H27.148zM19.148 42.892H23.148V46.892H19.148zM19.148 51.642H23.148V55.642H19.148zM19.148 60.392H23.148V64.392H19.148zM19.148 69.142H23.148V73.142H19.148z" fill="white"></path><path d="M39.396 88.554H61.893V48.158H39.396zM52.644 54.767H56.644V58.767H52.644zM52.644 63.517H56.644V67.517H52.644zM44.644 54.767H48.644V58.767H44.644zM44.644 63.517H48.644V67.517H44.644zM44.644 72.267H48.644V76.267H44.644z" fill="white"></path></g></g></svg></g></svg></g></svg></g><defs><mask></mask></defs><mask><g id="SvgjsG2921"><svg viewBox="0 0 188.40144516478705 200" height="200" width="188.40144516478705"><g><svg viewBox="0 0 216.0519309198976 229.35273212042063" height="200" width="188.40144516478705"><g><rect width="7.818238813003917" height="229.35273212042063" x="84.36752814280854" y="0" fill="black" opacity="1" stroke-width="0" stroke="transparent" fill-opacity="1" class="rect-yte-0" rx="1%" id="SvgjsRect2920" data-palette-color="url(#311c6435-1311-4f1b-a87e-0b655c649297)"></rect></g><g transform="matrix(1,0,0,1,112.6523607071316,0.57052918437914)"><svg viewBox="0 0 103.39957021276598 228.21167375166235" height="228.21167375166235" width="103.39957021276598"><g id="SvgjsG2919"><svg viewBox="0 0 103.39957021276598 228.21167375166235" height="228.21167375166235" width="103.39957021276598" id="SvgjsSvg2918"><g><svg viewBox="0 0 103.39957021276598 198.764" height="198.764" width="103.39957021276598"><g transform="matrix(1,0,0,1,0,0)"><svg width="103.39957021276598" viewBox="-0.9500000000000004 -15.799999999999997 24.450000000000003 39.55" height="198.764" data-palette-color="url(#311c6435-1311-4f1b-a87e-0b655c649297)"><svg></svg><svg></svg><g class="wordmark-text-0" data-fill-palette-color="primary" id="SvgjsG2917"><path d="M14 0.3v0c-0.167 0.033-0.523 0.05-1.07 0.05-0.553 0-1.103-0.217-1.65-0.65-0.553-0.433-0.83-0.993-0.83-1.68 0-0.68 0.127-1.437 0.38-2.27 0.247-0.833 0.42-1.467 0.52-1.9v0c-3.833 4.467-6.833 6.7-9 6.7v0c-1.367 0-2.117-0.85-2.25-2.55v0c0-0.133 0-0.25 0-0.35v0c0-1.433 0.867-3.367 2.6-5.8v0c-0.967 0.867-1.95 1.867-2.95 3v0c-0.133 0.133-0.3 0.2-0.5 0.2v0c-0.133 0-0.2-0.083-0.2-0.25 0-0.167 0.15-0.45 0.45-0.85v0l6.9-8.1c0.867-1 1.75-1.5 2.65-1.5 0.9 0 1.35 0.3 1.35 0.9v0c0 0.233-0.1 0.45-0.3 0.65v0c-1.333 1.233-3.007 3.283-5.02 6.15-2.02 2.867-3.03 4.983-3.03 6.35v0c0 0.6 0.2 0.9 0.6 0.9v0c1.4 0 3.433-1.383 6.1-4.15v0c0.933-0.933 2.667-2.993 5.2-6.18 2.533-3.18 4.2-4.77 5-4.77v0c1.2 0 1.8 0.467 1.8 1.4v0c0 0.333-0.7 1.3-2.1 2.9v0c-1.9 2.3-3.35 4.173-4.35 5.62-1 1.453-1.5 2.63-1.5 3.53 0 0.9 0.25 1.35 0.75 1.35v0c0.233 0 0.5-0.067 0.8-0.2v0c2.3-1 5.05-3.333 8.25-7v0c0.2-0.233 0.4-0.35 0.6-0.35 0.2 0 0.3 0.11 0.3 0.33 0 0.213-0.117 0.453-0.35 0.72v0c-1.433 1.667-3.117 3.34-5.05 5.02-1.933 1.687-3.3 2.613-4.1 2.78z" fill="black" fill-rule="nonzero" stroke="none" stroke-width="1" stroke-linecap="butt" stroke-linejoin="miter" stroke-miterlimit="10" stroke-dasharray="" stroke-dashoffset="0" font-family="none" font-weight="none" font-size="none" text-anchor="none" style="mix-blend-mode: normal" opacity="1"></path><path transform="translate(0,23.5)" d="M10.2 0.25v0c-2.5 0-3.75-1.383-3.75-4.15v0c0-1.4 0.367-2.933 1.1-4.6 0.733-1.667 1.533-3.067 2.4-4.2v0c-0.167 0.033-0.383 0.05-0.65 0.05v0c-0.8 0-1.467-0.567-2-1.7v0l-3.7 4.8c-2.067 2.567-3.267 3.85-3.6 3.85v0c-0.167 0-0.25-0.067-0.25-0.2v0c0-0.333 0.283-0.817 0.85-1.45v0c2.9-3.367 4.95-6.217 6.15-8.55v0c0.767-2.9 1.733-4.35 2.9-4.35v0c0.767 0 1.15 0.333 1.15 1 0 0.667-0.417 1.517-1.25 2.55v0l-1.2 1.6c0 0.7 0.517 1.05 1.55 1.05v0c0.6 0 1.267-0.217 2-0.65v0l1.3-0.8c0.067-0.033 0.233-0.05 0.5-0.05 0.267 0 0.55 0.167 0.85 0.5 0.3 0.333 0.4 0.633 0.3 0.9v0l-3.45 4.35c-2.133 2.733-3.2 4.89-3.2 6.47 0 1.587 0.733 2.38 2.2 2.38v0c1.533 0 3.417-0.817 5.65-2.45v0c1.333-0.967 2.55-2.05 3.65-3.25v0c1.033-1.2 1.6-1.8 1.7-1.8v0c0.233 0 0.35 0.123 0.35 0.37 0 0.253-0.15 0.547-0.45 0.88v0l-1.6 1.8c-0.9 0.933-1.9 1.833-3 2.7v0c-2.633 1.967-4.8 2.95-6.5 2.95z" fill="black" fill-rule="nonzero" stroke="none" stroke-width="1" stroke-linecap="butt" stroke-linejoin="miter" stroke-miterlimit="10" stroke-dasharray="" stroke-dashoffset="0" font-family="none" font-weight="none" font-size="none" text-anchor="none" style="mix-blend-mode: normal" opacity="1"></path></g></svg></g></svg></g><g transform="matrix(1,0,0,1,0,219.23059375131916)"><svg viewBox="0 0 96.26499986808513 8.981080000343173" height="8.981080000343173" width="96.26499986808513"><g transform="matrix(1,0,0,1,0,0)"><svg width="96.26499986808513" viewBox="4 -36.01 385.96 36.01" height="8.981080000343173" data-palette-color="url(#b4971815-8571-4491-b100-588e57f60ada)"><path d="M4-4.81L4-26 8.79-26 8.79-4.81 22.19-4.81 22.19-26 27-26 27 0 22.19 0 22.19-4.39Q22.12-3.49 21.7-2.69 21.29-1.88 20.64-1.28 20-0.68 19.17-0.34 18.33 0 17.41 0L17.41 0 8.79 0Q7.81 0 6.93-0.38 6.05-0.76 5.41-1.4 4.76-2.05 4.38-2.93 4-3.81 4-4.81L4-4.81ZM49.7-21.19L39.79-21.19 39.79 0 35.01 0 35.01-26 39.79-26 39.79-21.41Q39.84-22.36 40.23-23.21 40.62-24.05 41.27-24.67 41.92-25.29 42.77-25.65 43.63-26 44.6-26L44.6-26 49.7-26Q50.71-26 51.57-25.62 52.44-25.24 53.1-24.6 53.76-23.95 54.14-23.07 54.51-22.19 54.51-21.19L54.51-21.19 54.51-16.8 49.7-16.8 49.7-21.19ZM83.49-21.19L83.49-4.81Q83.49-3.81 83.11-2.93 82.73-2.05 82.09-1.4 81.44-0.76 80.56-0.38 79.68 0 78.68 0L78.68 0 65.28 0Q64.3 0 63.42-0.38 62.54-0.76 61.9-1.4 61.25-2.05 60.87-2.93 60.49-3.81 60.49-4.81L60.49-4.81 60.49-36.01 65.28-36.01 65.28-21.41Q65.33-22.36 65.72-23.21 66.11-24.05 66.76-24.67 67.4-25.29 68.26-25.65 69.11-26 70.09-26L70.09-26 78.68-26Q79.68-26 80.56-25.62 81.44-25.24 82.09-24.6 82.73-23.95 83.11-23.07 83.49-22.19 83.49-21.19L83.49-21.19ZM78.68-21.19L65.28-21.19 65.28-4.81 78.68-4.81 78.68-21.19ZM91.5-4.81L91.5-11.35Q91.5-12.35 91.87-13.22 92.25-14.09 92.9-14.75 93.55-15.41 94.43-15.78 95.31-16.16 96.28-16.16L96.28-16.16 108.68-16.16 108.68-21.19 92.99-21.19 92.99-26 108.68-26Q109.68-26 110.56-25.62 111.44-25.24 112.09-24.6 112.74-23.95 113.12-23.07 113.49-22.19 113.49-21.19L113.49-21.19 113.49 0 108.68 0 108.68-4.39Q108.61-3.49 108.2-2.69 107.78-1.88 107.13-1.28 106.49-0.68 105.66-0.34 104.83 0 103.9 0L103.9 0 96.28 0Q95.31 0 94.43-0.38 93.55-0.76 92.9-1.4 92.25-2.05 91.87-2.93 91.5-3.81 91.5-4.81L91.5-4.81ZM96.28-11.35L96.28-4.81 108.68-4.81 108.68-11.35 96.28-11.35ZM144.5-21.19L144.5 0 139.69 0 139.69-21.19 126.28-21.19 126.28 0 121.5 0 121.5-26 126.28-26 126.28-21.41Q126.33-22.36 126.72-23.21 127.11-24.05 127.76-24.67 128.41-25.29 129.26-25.65 130.12-26 131.09-26L131.09-26 139.69-26Q140.69-26 141.57-25.62 142.45-25.24 143.09-24.6 143.74-23.95 144.12-23.07 144.5-22.19 144.5-21.19L144.5-21.19ZM182.19-21.19L172.28-21.19 172.28 0 167.49 0 167.49-26 172.28-26 172.28-21.41Q172.32-22.36 172.71-23.21 173.11-24.05 173.75-24.67 174.4-25.29 175.25-25.65 176.11-26 177.08-26L177.08-26 182.19-26Q183.19-26 184.05-25.62 184.92-25.24 185.58-24.6 186.24-23.95 186.62-23.07 187-22.19 187-21.19L187-21.19 187-16.8 182.19-16.8 182.19-21.19ZM214.97-21.19L214.97-10.55 197.76-10.55 197.76-4.81 214.97-4.81 214.97 0 197.76 0Q196.78 0 195.91-0.38 195.03-0.76 194.38-1.4 193.73-2.05 193.35-2.93 192.98-3.81 192.98-4.81L192.98-4.81 192.98-21.19Q192.98-22.19 193.35-23.07 193.73-23.95 194.38-24.6 195.03-25.24 195.91-25.62 196.78-26 197.76-26L197.76-26 210.16-26Q211.16-26 212.04-25.62 212.92-25.24 213.57-24.6 214.22-23.95 214.59-23.07 214.97-22.19 214.97-21.19L214.97-21.19ZM210.16-21.19L197.76-21.19 197.76-15.36 210.16-15.36 210.16-21.19ZM222.47-4.81L238.68-4.81 238.68-10.84 227.27-10.84Q226.27-10.84 225.4-11.22 224.52-11.6 223.87-12.24 223.22-12.89 222.84-13.77 222.47-14.65 222.47-15.65L222.47-15.65 222.47-21.19Q222.47-22.19 222.84-23.07 223.22-23.95 223.87-24.6 224.52-25.24 225.4-25.62 226.27-26 227.27-26L227.27-26 242.48-26 242.48-21.19 227.27-21.19 227.27-15.65 238.68-15.65Q239.68-15.65 240.54-15.27 241.41-14.89 242.07-14.25 242.73-13.6 243.11-12.72 243.49-11.84 243.49-10.84L243.49-10.84 243.49-4.81Q243.49-3.81 243.11-2.93 242.73-2.05 242.07-1.4 241.41-0.76 240.54-0.38 239.68 0 238.68 0L238.68 0 222.47 0 222.47-4.81ZM273.46-21.19L273.46-4.81Q273.46-3.81 273.09-2.93 272.71-2.05 272.06-1.4 271.41-0.76 270.55-0.38 269.68 0 268.68 0L268.68 0 255.76 0Q254.79 0 253.91-0.38 253.03-0.76 252.38-1.4 251.74-2.05 251.36-2.93 250.98-3.81 250.98-4.81L250.98-4.81 250.98-21.19Q250.98-22.19 251.36-23.07 251.74-23.95 252.38-24.6 253.03-25.24 253.91-25.62 254.79-26 255.76-26L255.76-26 268.68-26Q269.68-26 270.55-25.62 271.41-25.24 272.06-24.6 272.71-23.95 273.09-23.07 273.46-22.19 273.46-21.19L273.46-21.19ZM268.68-21.19L255.76-21.19 255.76-4.81 268.68-4.81 268.68-21.19ZM281.47-4.81L281.47-26 286.25-26 286.25-4.81 299.66-4.81 299.66-26 304.47-26 304.47 0 299.66 0 299.66-4.39Q299.58-3.49 299.17-2.69 298.75-1.88 298.11-1.28 297.46-0.68 296.63-0.34 295.8 0 294.87 0L294.87 0 286.25 0Q285.28 0 284.4-0.38 283.52-0.76 282.87-1.4 282.23-2.05 281.85-2.93 281.47-3.81 281.47-4.81L281.47-4.81ZM327.17-21.19L317.26-21.19 317.26 0 312.47 0 312.47-26 317.26-26 317.26-21.41Q317.31-22.36 317.7-23.21 318.09-24.05 318.73-24.67 319.38-25.29 320.24-25.65 321.09-26 322.07-26L322.07-26 327.17-26Q328.17-26 329.04-25.62 329.9-25.24 330.56-24.6 331.22-23.95 331.6-23.07 331.98-22.19 331.98-21.19L331.98-21.19 331.98-16.8 327.17-16.8 327.17-21.19ZM355.15-21.19L342.74-21.19 342.74-4.81 355.15-4.81 355.15-9.2 359.96-9.2 359.96-4.81Q359.96-3.81 359.58-2.93 359.2-2.05 358.55-1.4 357.9-0.76 357.03-0.38 356.15 0 355.15 0L355.15 0 342.74 0Q341.77 0 340.89-0.38 340.01-0.76 339.36-1.4 338.72-2.05 338.34-2.93 337.96-3.81 337.96-4.81L337.96-4.81 337.96-21.19Q337.96-22.19 338.34-23.07 338.72-23.95 339.36-24.6 340.01-25.24 340.89-25.62 341.77-26 342.74-26L342.74-26 355.15-26Q356.15-26 357.03-25.62 357.9-25.24 358.55-24.6 359.2-23.95 359.58-23.07 359.96-22.19 359.96-21.19L359.96-21.19 359.96-16.8 355.15-16.8 355.15-21.19ZM389.96-21.19L389.96-10.55 372.75-10.55 372.75-4.81 389.96-4.81 389.96 0 372.75 0Q371.77 0 370.89-0.38 370.01-0.76 369.36-1.4 368.72-2.05 368.34-2.93 367.96-3.81 367.96-4.81L367.96-4.81 367.96-21.19Q367.96-22.19 368.34-23.07 368.72-23.95 369.36-24.6 370.01-25.24 370.89-25.62 371.77-26 372.75-26L372.75-26 385.15-26Q386.15-26 387.03-25.62 387.91-25.24 388.55-24.6 389.2-23.95 389.58-23.07 389.96-22.19 389.96-21.19L389.96-21.19ZM385.15-21.19L372.75-21.19 372.75-15.36 385.15-15.36 385.15-21.19Z" opacity="1" transform="matrix(1,0,0,1,0,0)" fill="black" class="slogan-text-1" id="SvgjsPath2916"></path></svg></g></svg></g></svg></g></svg></g><g transform="matrix(1,0,0,1,0,84.14712729367898)"><svg viewBox="0 0 63.90093439148938 61.058477533062664" height="61.058477533062664" width="63.90093439148938"><g><svg xmlns="http://www.w3.org/2000/svg" xmlns:xlink="http://www.w3.org/1999/xlink" version="1.0" x="0" y="0" viewBox="13.899 18.333 73.49000000000001 70.221" enable-background="new 0 0 100 100" xml:space="preserve" height="61.058477533062664" width="63.90093439148938" class="icon-icon-0" data-fill-palette-color="accent" id="SvgjsSvg2915"><g fill="black"><g fill="black"><polygon points="75.640625,30.2915039 51.5292969,30.2915039 51.5292969,45.1577148 61.8925781,45.1577148 61.8925781,38.7167969     75.640625,35.5162964   " fill="black"></polygon><path d="M64.893 41.099V88.554H87.389V35.861zM74.14 78.267H70.14V74.267H74.14zM74.14 69.517H70.14V65.517H74.14zM74.14 60.767H70.14V56.767H74.14zM74.14 52.017H70.14V48.017H74.14zM82.14 69.517H78.14V65.517H82.14zM82.14 60.767H78.14V56.767H82.14zM82.14 52.017H78.14V48.017H82.14z" fill="black"></path><path d="M39.396 45.158H48.529V29.413L37.45 18.333H18.823V33.283H39.396zM27.876 28.13H23.877V24.13H27.877zM35.877 28.13H31.877V24.13H35.877z" fill="black"></path><path d="M13.9 88.554H36.395V36.283H13.899zM27.147 42.892H31.148V46.892H27.148zM27.148 51.642H31.148V55.642H27.148zM27.148 60.392H31.148V64.392H27.148zM27.148 69.142H31.148V73.142H27.148zM19.148 42.892H23.148V46.892H19.148zM19.148 51.642H23.148V55.642H19.148zM19.148 60.392H23.148V64.392H19.148zM19.148 69.142H23.148V73.142H19.148z" fill="black"></path><path d="M39.396 88.554H61.893V48.158H39.396zM52.644 54.767H56.644V58.767H52.644zM52.644 63.517H56.644V67.517H52.644zM44.644 54.767H48.644V58.767H44.644zM44.644 63.517H48.644V67.517H44.644zM44.644 72.267H48.644V76.267H44.644z" fill="black"></path></g></g></svg></g></svg></g></svg></g><defs><mask></mask></defs></svg><rect width="188.40144516478705" height="200" fill="black" stroke="none" visibility="hidden"></rect></g></mask><mask><g id="SvgjsG2914"><svg viewBox="0 0 188.40144516478705 200" height="200" width="188.40144516478705"><g><svg viewBox="0 0 216.0519309198976 229.35273212042063" height="200" width="188.40144516478705"><g></g><g transform="matrix(1,0,0,1,112.6523607071316,0.57052918437914)"><svg viewBox="0 0 103.39957021276598 228.21167375166235" height="228.21167375166235" width="103.39957021276598"><g id="SvgjsG2913"><svg viewBox="0 0 103.39957021276598 228.21167375166235" height="228.21167375166235" width="103.39957021276598" id="SvgjsSvg2912"><g><svg viewBox="0 0 103.39957021276598 198.764" height="198.764" width="103.39957021276598"><g transform="matrix(1,0,0,1,0,0)"><svg width="103.39957021276598" viewBox="-0.9500000000000004 -15.799999999999997 24.450000000000003 39.55" height="198.764" data-palette-color="url(#311c6435-1311-4f1b-a87e-0b655c649297)"><svg></svg><svg></svg><g class="wordmark-text-0" data-fill-palette-color="primary" id="SvgjsG2911"></g></svg></g></svg></g><g transform="matrix(1,0,0,1,0,219.23059375131916)"><svg viewBox="0 0 96.26499986808513 8.981080000343173" height="8.981080000343173" width="96.26499986808513"><g transform="matrix(1,0,0,1,0,0)"><svg width="96.26499986808513" viewBox="4 -36.01 385.96 36.01" height="8.981080000343173" data-palette-color="url(#b4971815-8571-4491-b100-588e57f60ada)"><path d="M4-4.81L4-26 8.79-26 8.79-4.81 22.19-4.81 22.19-26 27-26 27 0 22.19 0 22.19-4.39Q22.12-3.49 21.7-2.69 21.29-1.88 20.64-1.28 20-0.68 19.17-0.34 18.33 0 17.41 0L17.41 0 8.79 0Q7.81 0 6.93-0.38 6.05-0.76 5.41-1.4 4.76-2.05 4.38-2.93 4-3.81 4-4.81L4-4.81ZM49.7-21.19L39.79-21.19 39.79 0 35.01 0 35.01-26 39.79-26 39.79-21.41Q39.84-22.36 40.23-23.21 40.62-24.05 41.27-24.67 41.92-25.29 42.77-25.65 43.63-26 44.6-26L44.6-26 49.7-26Q50.71-26 51.57-25.62 52.44-25.24 53.1-24.6 53.76-23.95 54.14-23.07 54.51-22.19 54.51-21.19L54.51-21.19 54.51-16.8 49.7-16.8 49.7-21.19ZM83.49-21.19L83.49-4.81Q83.49-3.81 83.11-2.93 82.73-2.05 82.09-1.4 81.44-0.76 80.56-0.38 79.68 0 78.68 0L78.68 0 65.28 0Q64.3 0 63.42-0.38 62.54-0.76 61.9-1.4 61.25-2.05 60.87-2.93 60.49-3.81 60.49-4.81L60.49-4.81 60.49-36.01 65.28-36.01 65.28-21.41Q65.33-22.36 65.72-23.21 66.11-24.05 66.76-24.67 67.4-25.29 68.26-25.65 69.11-26 70.09-26L70.09-26 78.68-26Q79.68-26 80.56-25.62 81.44-25.24 82.09-24.6 82.73-23.95 83.11-23.07 83.49-22.19 83.49-21.19L83.49-21.19ZM78.68-21.19L65.28-21.19 65.28-4.81 78.68-4.81 78.68-21.19ZM91.5-4.81L91.5-11.35Q91.5-12.35 91.87-13.22 92.25-14.09 92.9-14.75 93.55-15.41 94.43-15.78 95.31-16.16 96.28-16.16L96.28-16.16 108.68-16.16 108.68-21.19 92.99-21.19 92.99-26 108.68-26Q109.68-26 110.56-25.62 111.44-25.24 112.09-24.6 112.74-23.95 113.12-23.07 113.49-22.19 113.49-21.19L113.49-21.19 113.49 0 108.68 0 108.68-4.39Q108.61-3.49 108.2-2.69 107.78-1.88 107.13-1.28 106.49-0.68 105.66-0.34 104.83 0 103.9 0L103.9 0 96.28 0Q95.31 0 94.43-0.38 93.55-0.76 92.9-1.4 92.25-2.05 91.87-2.93 91.5-3.81 91.5-4.81L91.5-4.81ZM96.28-11.35L96.28-4.81 108.68-4.81 108.68-11.35 96.28-11.35ZM144.5-21.19L144.5 0 139.69 0 139.69-21.19 126.28-21.19 126.28 0 121.5 0 121.5-26 126.28-26 126.28-21.41Q126.33-22.36 126.72-23.21 127.11-24.05 127.76-24.67 128.41-25.29 129.26-25.65 130.12-26 131.09-26L131.09-26 139.69-26Q140.69-26 141.57-25.62 142.45-25.24 143.09-24.6 143.74-23.95 144.12-23.07 144.5-22.19 144.5-21.19L144.5-21.19ZM182.19-21.19L172.28-21.19 172.28 0 167.49 0 167.49-26 172.28-26 172.28-21.41Q172.32-22.36 172.71-23.21 173.11-24.05 173.75-24.67 174.4-25.29 175.25-25.65 176.11-26 177.08-26L177.08-26 182.19-26Q183.19-26 184.05-25.62 184.92-25.24 185.58-24.6 186.24-23.95 186.62-23.07 187-22.19 187-21.19L187-21.19 187-16.8 182.19-16.8 182.19-21.19ZM214.97-21.19L214.97-10.55 197.76-10.55 197.76-4.81 214.97-4.81 214.97 0 197.76 0Q196.78 0 195.91-0.38 195.03-0.76 194.38-1.4 193.73-2.05 193.35-2.93 192.98-3.81 192.98-4.81L192.98-4.81 192.98-21.19Q192.98-22.19 193.35-23.07 193.73-23.95 194.38-24.6 195.03-25.24 195.91-25.62 196.78-26 197.76-26L197.76-26 210.16-26Q211.16-26 212.04-25.62 212.92-25.24 213.57-24.6 214.22-23.95 214.59-23.07 214.97-22.19 214.97-21.19L214.97-21.19ZM210.16-21.19L197.76-21.19 197.76-15.36 210.16-15.36 210.16-21.19ZM222.47-4.81L238.68-4.81 238.68-10.84 227.27-10.84Q226.27-10.84 225.4-11.22 224.52-11.6 223.87-12.24 223.22-12.89 222.84-13.77 222.47-14.65 222.47-15.65L222.47-15.65 222.47-21.19Q222.47-22.19 222.84-23.07 223.22-23.95 223.87-24.6 224.52-25.24 225.4-25.62 226.27-26 227.27-26L227.27-26 242.48-26 242.48-21.19 227.27-21.19 227.27-15.65 238.68-15.65Q239.68-15.65 240.54-15.27 241.41-14.89 242.07-14.25 242.73-13.6 243.11-12.72 243.49-11.84 243.49-10.84L243.49-10.84 243.49-4.81Q243.49-3.81 243.11-2.93 242.73-2.05 242.07-1.4 241.41-0.76 240.54-0.38 239.68 0 238.68 0L238.68 0 222.47 0 222.47-4.81ZM273.46-21.19L273.46-4.81Q273.46-3.81 273.09-2.93 272.71-2.05 272.06-1.4 271.41-0.76 270.55-0.38 269.68 0 268.68 0L268.68 0 255.76 0Q254.79 0 253.91-0.38 253.03-0.76 252.38-1.4 251.74-2.05 251.36-2.93 250.98-3.81 250.98-4.81L250.98-4.81 250.98-21.19Q250.98-22.19 251.36-23.07 251.74-23.95 252.38-24.6 253.03-25.24 253.91-25.62 254.79-26 255.76-26L255.76-26 268.68-26Q269.68-26 270.55-25.62 271.41-25.24 272.06-24.6 272.71-23.95 273.09-23.07 273.46-22.19 273.46-21.19L273.46-21.19ZM268.68-21.19L255.76-21.19 255.76-4.81 268.68-4.81 268.68-21.19ZM281.47-4.81L281.47-26 286.25-26 286.25-4.81 299.66-4.81 299.66-26 304.47-26 304.47 0 299.66 0 299.66-4.39Q299.58-3.49 299.17-2.69 298.75-1.88 298.11-1.28 297.46-0.68 296.63-0.34 295.8 0 294.87 0L294.87 0 286.25 0Q285.28 0 284.4-0.38 283.52-0.76 282.87-1.4 282.23-2.05 281.85-2.93 281.47-3.81 281.47-4.81L281.47-4.81ZM327.17-21.19L317.26-21.19 317.26 0 312.47 0 312.47-26 317.26-26 317.26-21.41Q317.31-22.36 317.7-23.21 318.09-24.05 318.73-24.67 319.38-25.29 320.24-25.65 321.09-26 322.07-26L322.07-26 327.17-26Q328.17-26 329.04-25.62 329.9-25.24 330.56-24.6 331.22-23.95 331.6-23.07 331.98-22.19 331.98-21.19L331.98-21.19 331.98-16.8 327.17-16.8 327.17-21.19ZM355.15-21.19L342.74-21.19 342.74-4.81 355.15-4.81 355.15-9.2 359.96-9.2 359.96-4.81Q359.96-3.81 359.58-2.93 359.2-2.05 358.55-1.4 357.9-0.76 357.03-0.38 356.15 0 355.15 0L355.15 0 342.74 0Q341.77 0 340.89-0.38 340.01-0.76 339.36-1.4 338.72-2.05 338.34-2.93 337.96-3.81 337.96-4.81L337.96-4.81 337.96-21.19Q337.96-22.19 338.34-23.07 338.72-23.95 339.36-24.6 340.01-25.24 340.89-25.62 341.77-26 342.74-26L342.74-26 355.15-26Q356.15-26 357.03-25.62 357.9-25.24 358.55-24.6 359.2-23.95 359.58-23.07 359.96-22.19 359.96-21.19L359.96-21.19 359.96-16.8 355.15-16.8 355.15-21.19ZM389.96-21.19L389.96-10.55 372.75-10.55 372.75-4.81 389.96-4.81 389.96 0 372.75 0Q371.77 0 370.89-0.38 370.01-0.76 369.36-1.4 368.72-2.05 368.34-2.93 367.96-3.81 367.96-4.81L367.96-4.81 367.96-21.19Q367.96-22.19 368.34-23.07 368.72-23.95 369.36-24.6 370.01-25.24 370.89-25.62 371.77-26 372.75-26L372.75-26 385.15-26Q386.15-26 387.03-25.62 387.91-25.24 388.55-24.6 389.2-23.95 389.58-23.07 389.96-22.19 389.96-21.19L389.96-21.19ZM385.15-21.19L372.75-21.19 372.75-15.36 385.15-15.36 385.15-21.19Z" opacity="1" transform="matrix(1,0,0,1,0,0)" fill="black" class="slogan-text-1" id="SvgjsPath2910"></path></svg></g></svg></g></svg></g></svg></g><g transform="matrix(1,0,0,1,0,84.14712729367898)"><svg viewBox="0 0 63.90093439148938 61.058477533062664" height="61.058477533062664" width="63.90093439148938"><g><svg xmlns="http://www.w3.org/2000/svg" xmlns:xlink="http://www.w3.org/1999/xlink" version="1.0" x="0" y="0" viewBox="13.899 18.333 73.49000000000001 70.221" enable-background="new 0 0 100 100" xml:space="preserve" height="61.058477533062664" width="63.90093439148938" class="icon-icon-0" data-fill-palette-color="accent" id="SvgjsSvg2909"><g fill="black"><g fill="black"><polygon points="75.640625,30.2915039 51.5292969,30.2915039 51.5292969,45.1577148 61.8925781,45.1577148 61.8925781,38.7167969     75.640625,35.5162964   " fill="black"></polygon><path d="M64.893 41.099V88.554H87.389V35.861zM74.14 78.267H70.14V74.267H74.14zM74.14 69.517H70.14V65.517H74.14zM74.14 60.767H70.14V56.767H74.14zM74.14 52.017H70.14V48.017H74.14zM82.14 69.517H78.14V65.517H82.14zM82.14 60.767H78.14V56.767H82.14zM82.14 52.017H78.14V48.017H82.14z" fill="black"></path><path d="M39.396 45.158H48.529V29.413L37.45 18.333H18.823V33.283H39.396zM27.876 28.13H23.877V24.13H27.877zM35.877 28.13H31.877V24.13H35.877z" fill="black"></path><path d="M13.9 88.554H36.395V36.283H13.899zM27.147 42.892H31.148V46.892H27.148zM27.148 51.642H31.148V55.642H27.148zM27.148 60.392H31.148V64.392H27.148zM27.148 69.142H31.148V73.142H27.148zM19.148 42.892H23.148V46.892H19.148zM19.148 51.642H23.148V55.642H19.148zM19.148 60.392H23.148V64.392H19.148zM19.148 69.142H23.148V73.142H19.148z" fill="black"></path><path d="M39.396 88.554H61.893V48.158H39.396zM52.644 54.767H56.644V58.767H52.644zM52.644 63.517H56.644V67.517H52.644zM44.644 54.767H48.644V58.767H44.644zM44.644 63.517H48.644V67.517H44.644zM44.644 72.267H48.644V76.267H44.644z" fill="black"></path></g></g></svg></g></svg></g></svg></g><defs><mask></mask></defs><mask><g id="SvgjsG2908"><svg viewBox="0 0 188.40144516478705 200" height="200" width="188.40144516478705"><g><svg viewBox="0 0 216.0519309198976 229.35273212042063" height="200" width="188.40144516478705"><g><rect width="7.818238813003917" height="229.35273212042063" x="84.36752814280854" y="0" fill="black" opacity="1" stroke-width="0" stroke="transparent" fill-opacity="1" class="rect-yte-0" rx="1%" id="SvgjsRect2907" data-palette-color="url(#311c6435-1311-4f1b-a87e-0b655c649297)"></rect></g><g transform="matrix(1,0,0,1,112.6523607071316,0.57052918437914)"><svg viewBox="0 0 103.39957021276598 228.21167375166235" height="228.21167375166235" width="103.39957021276598"><g id="SvgjsG2906"><svg viewBox="0 0 103.39957021276598 228.21167375166235" height="228.21167375166235" width="103.39957021276598" id="SvgjsSvg2905"><g><svg viewBox="0 0 103.39957021276598 198.764" height="198.764" width="103.39957021276598"><g transform="matrix(1,0,0,1,0,0)"><svg width="103.39957021276598" viewBox="-0.9500000000000004 -15.799999999999997 24.450000000000003 39.55" height="198.764" data-palette-color="url(#311c6435-1311-4f1b-a87e-0b655c649297)"><svg></svg><svg></svg><g class="wordmark-text-0" data-fill-palette-color="primary" id="SvgjsG2904"><path d="M14 0.3v0c-0.167 0.033-0.523 0.05-1.07 0.05-0.553 0-1.103-0.217-1.65-0.65-0.553-0.433-0.83-0.993-0.83-1.68 0-0.68 0.127-1.437 0.38-2.27 0.247-0.833 0.42-1.467 0.52-1.9v0c-3.833 4.467-6.833 6.7-9 6.7v0c-1.367 0-2.117-0.85-2.25-2.55v0c0-0.133 0-0.25 0-0.35v0c0-1.433 0.867-3.367 2.6-5.8v0c-0.967 0.867-1.95 1.867-2.95 3v0c-0.133 0.133-0.3 0.2-0.5 0.2v0c-0.133 0-0.2-0.083-0.2-0.25 0-0.167 0.15-0.45 0.45-0.85v0l6.9-8.1c0.867-1 1.75-1.5 2.65-1.5 0.9 0 1.35 0.3 1.35 0.9v0c0 0.233-0.1 0.45-0.3 0.65v0c-1.333 1.233-3.007 3.283-5.02 6.15-2.02 2.867-3.03 4.983-3.03 6.35v0c0 0.6 0.2 0.9 0.6 0.9v0c1.4 0 3.433-1.383 6.1-4.15v0c0.933-0.933 2.667-2.993 5.2-6.18 2.533-3.18 4.2-4.77 5-4.77v0c1.2 0 1.8 0.467 1.8 1.4v0c0 0.333-0.7 1.3-2.1 2.9v0c-1.9 2.3-3.35 4.173-4.35 5.62-1 1.453-1.5 2.63-1.5 3.53 0 0.9 0.25 1.35 0.75 1.35v0c0.233 0 0.5-0.067 0.8-0.2v0c2.3-1 5.05-3.333 8.25-7v0c0.2-0.233 0.4-0.35 0.6-0.35 0.2 0 0.3 0.11 0.3 0.33 0 0.213-0.117 0.453-0.35 0.72v0c-1.433 1.667-3.117 3.34-5.05 5.02-1.933 1.687-3.3 2.613-4.1 2.78z" fill="black" fill-rule="nonzero" stroke="none" stroke-width="1" stroke-linecap="butt" stroke-linejoin="miter" stroke-miterlimit="10" stroke-dasharray="" stroke-dashoffset="0" font-family="none" font-weight="none" font-size="none" text-anchor="none" style="mix-blend-mode: normal" opacity="1"></path><path transform="translate(0,23.5)" d="M10.2 0.25v0c-2.5 0-3.75-1.383-3.75-4.15v0c0-1.4 0.367-2.933 1.1-4.6 0.733-1.667 1.533-3.067 2.4-4.2v0c-0.167 0.033-0.383 0.05-0.65 0.05v0c-0.8 0-1.467-0.567-2-1.7v0l-3.7 4.8c-2.067 2.567-3.267 3.85-3.6 3.85v0c-0.167 0-0.25-0.067-0.25-0.2v0c0-0.333 0.283-0.817 0.85-1.45v0c2.9-3.367 4.95-6.217 6.15-8.55v0c0.767-2.9 1.733-4.35 2.9-4.35v0c0.767 0 1.15 0.333 1.15 1 0 0.667-0.417 1.517-1.25 2.55v0l-1.2 1.6c0 0.7 0.517 1.05 1.55 1.05v0c0.6 0 1.267-0.217 2-0.65v0l1.3-0.8c0.067-0.033 0.233-0.05 0.5-0.05 0.267 0 0.55 0.167 0.85 0.5 0.3 0.333 0.4 0.633 0.3 0.9v0l-3.45 4.35c-2.133 2.733-3.2 4.89-3.2 6.47 0 1.587 0.733 2.38 2.2 2.38v0c1.533 0 3.417-0.817 5.65-2.45v0c1.333-0.967 2.55-2.05 3.65-3.25v0c1.033-1.2 1.6-1.8 1.7-1.8v0c0.233 0 0.35 0.123 0.35 0.37 0 0.253-0.15 0.547-0.45 0.88v0l-1.6 1.8c-0.9 0.933-1.9 1.833-3 2.7v0c-2.633 1.967-4.8 2.95-6.5 2.95z" fill="black" fill-rule="nonzero" stroke="none" stroke-width="1" stroke-linecap="butt" stroke-linejoin="miter" stroke-miterlimit="10" stroke-dasharray="" stroke-dashoffset="0" font-family="none" font-weight="none" font-size="none" text-anchor="none" style="mix-blend-mode: normal" opacity="1"></path></g></svg></g></svg></g><g transform="matrix(1,0,0,1,0,219.23059375131916)"><svg viewBox="0 0 96.26499986808513 8.981080000343173" height="8.981080000343173" width="96.26499986808513"><g transform="matrix(1,0,0,1,0,0)"><svg width="96.26499986808513" viewBox="4 -36.01 385.96 36.01" height="8.981080000343173" data-palette-color="url(#b4971815-8571-4491-b100-588e57f60ada)"><path d="M4-4.81L4-26 8.79-26 8.79-4.81 22.19-4.81 22.19-26 27-26 27 0 22.19 0 22.19-4.39Q22.12-3.49 21.7-2.69 21.29-1.88 20.64-1.28 20-0.68 19.17-0.34 18.33 0 17.41 0L17.41 0 8.79 0Q7.81 0 6.93-0.38 6.05-0.76 5.41-1.4 4.76-2.05 4.38-2.93 4-3.81 4-4.81L4-4.81ZM49.7-21.19L39.79-21.19 39.79 0 35.01 0 35.01-26 39.79-26 39.79-21.41Q39.84-22.36 40.23-23.21 40.62-24.05 41.27-24.67 41.92-25.29 42.77-25.65 43.63-26 44.6-26L44.6-26 49.7-26Q50.71-26 51.57-25.62 52.44-25.24 53.1-24.6 53.76-23.95 54.14-23.07 54.51-22.19 54.51-21.19L54.51-21.19 54.51-16.8 49.7-16.8 49.7-21.19ZM83.49-21.19L83.49-4.81Q83.49-3.81 83.11-2.93 82.73-2.05 82.09-1.4 81.44-0.76 80.56-0.38 79.68 0 78.68 0L78.68 0 65.28 0Q64.3 0 63.42-0.38 62.54-0.76 61.9-1.4 61.25-2.05 60.87-2.93 60.49-3.81 60.49-4.81L60.49-4.81 60.49-36.01 65.28-36.01 65.28-21.41Q65.33-22.36 65.72-23.21 66.11-24.05 66.76-24.67 67.4-25.29 68.26-25.65 69.11-26 70.09-26L70.09-26 78.68-26Q79.68-26 80.56-25.62 81.44-25.24 82.09-24.6 82.73-23.95 83.11-23.07 83.49-22.19 83.49-21.19L83.49-21.19ZM78.68-21.19L65.28-21.19 65.28-4.81 78.68-4.81 78.68-21.19ZM91.5-4.81L91.5-11.35Q91.5-12.35 91.87-13.22 92.25-14.09 92.9-14.75 93.55-15.41 94.43-15.78 95.31-16.16 96.28-16.16L96.28-16.16 108.68-16.16 108.68-21.19 92.99-21.19 92.99-26 108.68-26Q109.68-26 110.56-25.62 111.44-25.24 112.09-24.6 112.74-23.95 113.12-23.07 113.49-22.19 113.49-21.19L113.49-21.19 113.49 0 108.68 0 108.68-4.39Q108.61-3.49 108.2-2.69 107.78-1.88 107.13-1.28 106.49-0.68 105.66-0.34 104.83 0 103.9 0L103.9 0 96.28 0Q95.31 0 94.43-0.38 93.55-0.76 92.9-1.4 92.25-2.05 91.87-2.93 91.5-3.81 91.5-4.81L91.5-4.81ZM96.28-11.35L96.28-4.81 108.68-4.81 108.68-11.35 96.28-11.35ZM144.5-21.19L144.5 0 139.69 0 139.69-21.19 126.28-21.19 126.28 0 121.5 0 121.5-26 126.28-26 126.28-21.41Q126.33-22.36 126.72-23.21 127.11-24.05 127.76-24.67 128.41-25.29 129.26-25.65 130.12-26 131.09-26L131.09-26 139.69-26Q140.69-26 141.57-25.62 142.45-25.24 143.09-24.6 143.74-23.95 144.12-23.07 144.5-22.19 144.5-21.19L144.5-21.19ZM182.19-21.19L172.28-21.19 172.28 0 167.49 0 167.49-26 172.28-26 172.28-21.41Q172.32-22.36 172.71-23.21 173.11-24.05 173.75-24.67 174.4-25.29 175.25-25.65 176.11-26 177.08-26L177.08-26 182.19-26Q183.19-26 184.05-25.62 184.92-25.24 185.58-24.6 186.24-23.95 186.62-23.07 187-22.19 187-21.19L187-21.19 187-16.8 182.19-16.8 182.19-21.19ZM214.97-21.19L214.97-10.55 197.76-10.55 197.76-4.81 214.97-4.81 214.97 0 197.76 0Q196.78 0 195.91-0.38 195.03-0.76 194.38-1.4 193.73-2.05 193.35-2.93 192.98-3.81 192.98-4.81L192.98-4.81 192.98-21.19Q192.98-22.19 193.35-23.07 193.73-23.95 194.38-24.6 195.03-25.24 195.91-25.62 196.78-26 197.76-26L197.76-26 210.16-26Q211.16-26 212.04-25.62 212.92-25.24 213.57-24.6 214.22-23.95 214.59-23.07 214.97-22.19 214.97-21.19L214.97-21.19ZM210.16-21.19L197.76-21.19 197.76-15.36 210.16-15.36 210.16-21.19ZM222.47-4.81L238.68-4.81 238.68-10.84 227.27-10.84Q226.27-10.84 225.4-11.22 224.52-11.6 223.87-12.24 223.22-12.89 222.84-13.77 222.47-14.65 222.47-15.65L222.47-15.65 222.47-21.19Q222.47-22.19 222.84-23.07 223.22-23.95 223.87-24.6 224.52-25.24 225.4-25.62 226.27-26 227.27-26L227.27-26 242.48-26 242.48-21.19 227.27-21.19 227.27-15.65 238.68-15.65Q239.68-15.65 240.54-15.27 241.41-14.89 242.07-14.25 242.73-13.6 243.11-12.72 243.49-11.84 243.49-10.84L243.49-10.84 243.49-4.81Q243.49-3.81 243.11-2.93 242.73-2.05 242.07-1.4 241.41-0.76 240.54-0.38 239.68 0 238.68 0L238.68 0 222.47 0 222.47-4.81ZM273.46-21.19L273.46-4.81Q273.46-3.81 273.09-2.93 272.71-2.05 272.06-1.4 271.41-0.76 270.55-0.38 269.68 0 268.68 0L268.68 0 255.76 0Q254.79 0 253.91-0.38 253.03-0.76 252.38-1.4 251.74-2.05 251.36-2.93 250.98-3.81 250.98-4.81L250.98-4.81 250.98-21.19Q250.98-22.19 251.36-23.07 251.74-23.95 252.38-24.6 253.03-25.24 253.91-25.62 254.79-26 255.76-26L255.76-26 268.68-26Q269.68-26 270.55-25.62 271.41-25.24 272.06-24.6 272.71-23.95 273.09-23.07 273.46-22.19 273.46-21.19L273.46-21.19ZM268.68-21.19L255.76-21.19 255.76-4.81 268.68-4.81 268.68-21.19ZM281.47-4.81L281.47-26 286.25-26 286.25-4.81 299.66-4.81 299.66-26 304.47-26 304.47 0 299.66 0 299.66-4.39Q299.58-3.49 299.17-2.69 298.75-1.88 298.11-1.28 297.46-0.68 296.63-0.34 295.8 0 294.87 0L294.87 0 286.25 0Q285.28 0 284.4-0.38 283.52-0.76 282.87-1.4 282.23-2.05 281.85-2.93 281.47-3.81 281.47-4.81L281.47-4.81ZM327.17-21.19L317.26-21.19 317.26 0 312.47 0 312.47-26 317.26-26 317.26-21.41Q317.31-22.36 317.7-23.21 318.09-24.05 318.73-24.67 319.38-25.29 320.24-25.65 321.09-26 322.07-26L322.07-26 327.17-26Q328.17-26 329.04-25.62 329.9-25.24 330.56-24.6 331.22-23.95 331.6-23.07 331.98-22.19 331.98-21.19L331.98-21.19 331.98-16.8 327.17-16.8 327.17-21.19ZM355.15-21.19L342.74-21.19 342.74-4.81 355.15-4.81 355.15-9.2 359.96-9.2 359.96-4.81Q359.96-3.81 359.58-2.93 359.2-2.05 358.55-1.4 357.9-0.76 357.03-0.38 356.15 0 355.15 0L355.15 0 342.74 0Q341.77 0 340.89-0.38 340.01-0.76 339.36-1.4 338.72-2.05 338.34-2.93 337.96-3.81 337.96-4.81L337.96-4.81 337.96-21.19Q337.96-22.19 338.34-23.07 338.72-23.95 339.36-24.6 340.01-25.24 340.89-25.62 341.77-26 342.74-26L342.74-26 355.15-26Q356.15-26 357.03-25.62 357.9-25.24 358.55-24.6 359.2-23.95 359.58-23.07 359.96-22.19 359.96-21.19L359.96-21.19 359.96-16.8 355.15-16.8 355.15-21.19ZM389.96-21.19L389.96-10.55 372.75-10.55 372.75-4.81 389.96-4.81 389.96 0 372.75 0Q371.77 0 370.89-0.38 370.01-0.76 369.36-1.4 368.72-2.05 368.34-2.93 367.96-3.81 367.96-4.81L367.96-4.81 367.96-21.19Q367.96-22.19 368.34-23.07 368.72-23.95 369.36-24.6 370.01-25.24 370.89-25.62 371.77-26 372.75-26L372.75-26 385.15-26Q386.15-26 387.03-25.62 387.91-25.24 388.55-24.6 389.2-23.95 389.58-23.07 389.96-22.19 389.96-21.19L389.96-21.19ZM385.15-21.19L372.75-21.19 372.75-15.36 385.15-15.36 385.15-21.19Z" opacity="1" transform="matrix(1,0,0,1,0,0)" fill="black" class="slogan-text-1" id="SvgjsPath2903"></path></svg></g></svg></g></svg></g></svg></g><g transform="matrix(1,0,0,1,0,84.14712729367898)"><svg viewBox="0 0 63.90093439148938 61.058477533062664" height="61.058477533062664" width="63.90093439148938"><g><svg xmlns="http://www.w3.org/2000/svg" xmlns:xlink="http://www.w3.org/1999/xlink" version="1.0" x="0" y="0" viewBox="13.899 18.333 73.49000000000001 70.221" enable-background="new 0 0 100 100" xml:space="preserve" height="61.058477533062664" width="63.90093439148938" class="icon-icon-0" data-fill-palette-color="accent" id="SvgjsSvg2902"><g fill="black"><g fill="black"><polygon points="75.640625,30.2915039 51.5292969,30.2915039 51.5292969,45.1577148 61.8925781,45.1577148 61.8925781,38.7167969     75.640625,35.5162964   " fill="black"></polygon><path d="M64.893 41.099V88.554H87.389V35.861zM74.14 78.267H70.14V74.267H74.14zM74.14 69.517H70.14V65.517H74.14zM74.14 60.767H70.14V56.767H74.14zM74.14 52.017H70.14V48.017H74.14zM82.14 69.517H78.14V65.517H82.14zM82.14 60.767H78.14V56.767H82.14zM82.14 52.017H78.14V48.017H82.14z" fill="black"></path><path d="M39.396 45.158H48.529V29.413L37.45 18.333H18.823V33.283H39.396zM27.876 28.13H23.877V24.13H27.877zM35.877 28.13H31.877V24.13H35.877z" fill="black"></path><path d="M13.9 88.554H36.395V36.283H13.899zM27.147 42.892H31.148V46.892H27.148zM27.148 51.642H31.148V55.642H27.148zM27.148 60.392H31.148V64.392H27.148zM27.148 69.142H31.148V73.142H27.148zM19.148 42.892H23.148V46.892H19.148zM19.148 51.642H23.148V55.642H19.148zM19.148 60.392H23.148V64.392H19.148zM19.148 69.142H23.148V73.142H19.148z" fill="black"></path><path d="M39.396 88.554H61.893V48.158H39.396zM52.644 54.767H56.644V58.767H52.644zM52.644 63.517H56.644V67.517H52.644zM44.644 54.767H48.644V58.767H44.644zM44.644 63.517H48.644V67.517H44.644zM44.644 72.267H48.644V76.267H44.644z" fill="black"></path></g></g></svg></g></svg></g></svg></g><defs><mask></mask></defs></svg><rect width="188.40144516478705" height="200" fill="black" stroke="none" visibility="hidden"></rect></g></mask></svg><rect width="188.40144516478705" height="200" fill="black" stroke="none" visibility="hidden"></rect></g></mask></svg><rect width="188.40144516478705" height="200" fill="black" stroke="none" visibility="hidden"></rect></g></mask><linearGradient x1="0.054" x2="0.941" y1="0.5" y2="0.5" id="8976ab1b-27e3-4cf9-b129-3534213f8986"><stop stop-color="#9c7945" offset="0"></stop><stop stop-color="#faf3aa" offset="0.498"></stop><stop stop-color="#9c7945" offset="1"></stop></linearGradient><rect width="188.40144516478705" height="200" fill="url(#8976ab1b-27e3-4cf9-b129-3534213f8986)" mask="url(#ce4da07a-25da-4043-bbf6-1e22da917765)" data-fill-palette-color="accent"></rect></svg><rect width="188.40144516478705" height="200" fill="none" stroke="none" visibility="hidden"></rect></g></svg></g></svg>