<svg xmlns="http://www.w3.org/2000/svg" version="1.1" xmlns:xlink="http://www.w3.org/1999/xlink" xmlns:svgjs="http://svgjs.dev/svgjs" width="2000" height="308" viewBox="0 0 2000 308"><g transform="matrix(1,0,0,1,-1.2121212121212466,-0.891624540355366)"><svg viewBox="0 0 396 61" data-background-color="#333b6a" preserveAspectRatio="xMidYMid meet" height="308" width="2000" xmlns="http://www.w3.org/2000/svg" xmlns:xlink="http://www.w3.org/1999/xlink"><g id="tight-bounds" transform="matrix(1,0,0,1,0.2400000000000091,0.17658797714830143)"><svg viewBox="0 0 395.52 60.64682404570339" height="60.64682404570339" width="395.52"><g><svg viewBox="0 0 482.06356835886305 73.91693064599484" height="60.64682404570339" width="395.52"><g transform="matrix(1,0,0,1,0,10.215726304909566)"><svg viewBox="0 0 395.52 53.48547803617571" height="53.48547803617571" width="395.52"><g id="textblocktransform"><svg viewBox="0 0 395.52 53.48547803617571" height="53.48547803617571" width="395.52" id="textblock"><g><svg viewBox="0 0 395.52 53.48547803617571" height="53.48547803617571" width="395.52"><g transform="matrix(1,0,0,1,0,0)"><svg width="395.52" viewBox="2.6 -38.7 290.21999999999997 39.25" height="53.48547803617571" data-palette-color="#b7feae"><path d="M8.9 0L8.9 0Q6.2 0 4.53-1.78 2.85-3.55 2.85-6.45L2.85-6.45 3.15-12.2 2.6-24.2 9.3-25.45 8.65-10.25Q8.65-8.1 9.43-7.1 10.2-6.1 11.9-6.1 13.6-6.1 16.6-7.8L16.6-7.8 16.6-10.8 16.05-23.95 22.8-25.2 22.2-12.7 22.25-8.6Q22.25-5.4 23.9-2.15L23.9-2.15 18.7 0.15Q17.05-3.1 16.7-5.05L16.7-5.05Q12.2 0 8.9 0ZM27.85-24.15L27.85-24.15 33.9-25.45Q34.35-21.6 34.5-18.15L34.5-18.15Q39.05-25.2 43.05-25.2L43.05-25.2 42.5-17.4Q39.6-17.4 37.92-16.88 36.25-16.35 34.5-14.8L34.5-14.8 34.5-13 35.05-1.25 28.35 0 28.95-12.15Q28.75-18.85 27.85-24.15ZM59.45-25.25L59.45-25.25Q62.8-25.25 64.9-22.35 67-19.45 67-14.9L67-14.9Q67-8.35 63.57-4.17 60.15 0 54.7 0L54.7 0Q52.2 0 46.3-0.8L46.3-0.8 46.8-12.15 46.2-37.45 53.05-38.7 52.4-25.8 52.4-20.4Q52.95-21.2 53.75-22.1 54.55-23 56.25-24.13 57.95-25.25 59.45-25.25ZM57.5-18.75L57.5-18.75Q55.2-18.75 52.4-17.35L52.4-17.35 52.4-13 52.7-5.65Q54.8-5.4 56.65-5.4L56.65-5.4Q61.45-5.4 61.45-12.08 61.45-18.75 57.5-18.75ZM76.14 0Q73.19 0 71.32-1.88 69.44-3.75 69.44-6.93 69.44-10.1 72.34-12.43 75.24-14.75 79.39-14.75L79.39-14.75 82.79-14.75 82.79-15.6Q82.79-18.05 81.79-18.95 80.79-19.85 78.04-19.85L78.04-19.85Q76.89-19.85 75.32-19.38 73.74-18.9 71.79-17.9L71.79-17.9 70.34-21.85Q72.49-23.35 75.57-24.55 78.64-25.75 80.64-25.75L80.64-25.75Q88.49-25.75 88.49-18.15L88.49-18.15 88.49-8.35Q88.49-5.55 90.24-2.1L90.24-2.1 84.94 0.15Q83.69-2.25 83.09-4.15L83.09-4.15Q80.34 0 76.14 0L76.14 0ZM78.24-5.1L78.24-5.1Q80.24-5.1 82.79-7.15L82.79-7.15 82.79-10.5Q80.14-11.1 78.49-11.1L78.49-11.1Q75.34-11.1 75.34-8.3L75.34-8.3Q75.34-6.85 76.14-5.98 76.94-5.1 78.24-5.1ZM109.09-12.65Q109.09-16.1 108.49-17.25 107.89-18.4 105.69-18.4 103.49-18.4 100.69-16.65L100.69-16.65 100.69-13 101.24-1.25 94.54 0 95.14-12.15Q94.94-18.85 94.04-24.15L94.04-24.15 100.09-25.45Q100.44-22.55 100.59-19.8L100.59-19.8Q101.34-20.8 102.29-21.78 103.24-22.75 105.29-23.98 107.34-25.2 109.62-25.2 111.89-25.2 113.44-23.43 114.99-21.65 114.99-18.6L114.99-18.6 114.69-13 115.24-1 108.49 0.25 109.09-12.65ZM127.89-24.15L127.89-24.15 133.94-25.45Q134.39-21.6 134.54-18.15L134.54-18.15Q139.09-25.2 143.09-25.2L143.09-25.2 142.54-17.4Q139.64-17.4 137.96-16.88 136.29-16.35 134.54-14.8L134.54-14.8 134.54-13 135.09-1.25 128.39 0 128.99-12.15Q128.79-18.85 127.89-24.15ZM155.23-5.1L155.23-5.1Q156.68-5.1 158.28-5.85 159.88-6.6 160.78-7.35L160.78-7.35 161.68-8.1 163.98-5.3Q163.48-4.45 162.43-3.35 161.38-2.25 160.31-1.48 159.23-0.7 157.46-0.08 155.68 0.55 153.78 0.55L153.78 0.55Q149.73 0.55 147.18-2.53 144.63-5.6 144.63-10.45L144.63-10.45Q144.63-16.55 148.18-21.15 151.73-25.75 156.48-25.75L156.48-25.75Q160.13-25.75 162.16-23.7 164.18-21.65 164.18-17.95L164.18-17.95Q164.18-15.75 163.43-12.95L163.43-12.95 162.43-11.9 149.93-10.75Q150.78-5.1 155.23-5.1ZM155.23-20.6L155.23-20.6Q153.03-20.6 151.53-18.82 150.03-17.05 149.78-14.3L149.78-14.3 158.28-15.35Q158.43-16.5 158.43-17.25L158.43-17.25Q158.43-20.6 155.23-20.6ZM176.08-4.65L176.08-4.65Q178.68-4.65 178.68-6.95L178.68-6.95Q178.68-7.75 177.56-8.45 176.43-9.15 174.81-9.85 173.18-10.55 171.56-11.43 169.93-12.3 168.81-13.85 167.68-15.4 167.68-17.4L167.68-17.4Q167.68-20.75 170.63-23.25 173.58-25.75 177.43-25.75L177.43-25.75Q179.23-25.75 180.96-25.33 182.68-24.9 184.28-24L184.28-24 180.93-17.9Q180.58-18.2 180.03-18.65 179.48-19.1 177.96-19.83 176.43-20.55 175.26-20.55 174.08-20.55 173.46-20.03 172.83-19.5 172.83-18.57 172.83-17.65 174.56-16.73 176.28-15.8 178.33-15.03 180.38-14.25 182.11-12.48 183.83-10.7 183.83-8.25L183.83-8.25Q183.83-4.75 180.96-2.1 178.08 0.55 174.33 0.55L174.33 0.55Q171.93 0.55 169.86-0.5 167.78-1.55 166.88-2.6L166.88-2.6 165.98-3.65 169.93-8.25Q170.23-7.85 170.78-7.25 171.33-6.65 172.96-5.65 174.58-4.65 176.08-4.65ZM186.73-10.45Q186.73-16.85 190.18-21.3 193.63-25.75 198.25-25.75 202.88-25.75 205.45-22.75 208.03-19.75 208.03-14.8L208.03-14.8Q208.03-8.2 204.7-3.83 201.38 0.55 196.33 0.55L196.33 0.55Q192.18 0.55 189.45-2.58 186.73-5.7 186.73-10.45L186.73-10.45ZM202.43-12.2L202.43-12.2Q202.43-19.45 197.48-19.45L197.48-19.45Q192.33-19.45 192.33-12.65L192.33-12.65Q192.33-9.1 193.78-7.1 195.23-5.1 197.6-5.1 199.98-5.1 201.2-6.93 202.43-8.75 202.43-12.2ZM218.33 0L218.33 0Q215.63 0 213.95-1.78 212.28-3.55 212.28-6.45L212.28-6.45 212.58-12.2 212.03-24.2 218.73-25.45 218.08-10.25Q218.08-8.1 218.85-7.1 219.63-6.1 221.33-6.1 223.03-6.1 226.03-7.8L226.03-7.8 226.03-10.8 225.48-23.95 232.23-25.2 231.63-12.7 231.68-8.6Q231.68-5.4 233.33-2.15L233.33-2.15 228.13 0.15Q226.48-3.1 226.13-5.05L226.13-5.05Q221.63 0 218.33 0ZM237.27-24.15L237.27-24.15 243.32-25.45Q243.77-21.6 243.92-18.15L243.92-18.15Q248.47-25.2 252.47-25.2L252.47-25.2 251.92-17.4Q249.02-17.4 247.35-16.88 245.67-16.35 243.92-14.8L243.92-14.8 243.92-13 244.47-1.25 237.77 0 238.37-12.15Q238.17-18.85 237.27-24.15ZM264.22-19.25Q262.02-19.25 260.82-17.68 259.62-16.1 259.62-12.85 259.62-9.6 260.85-7.63 262.07-5.65 264.42-5.65L264.42-5.65Q265.62-5.65 266.77-6.4 267.92-7.15 268.52-7.9L268.52-7.9 269.07-8.7 271.57-6.1Q271.42-5.85 271.2-5.4 270.97-4.95 270.1-3.8 269.22-2.65 268.25-1.78 267.27-0.9 265.72-0.18 264.17 0.55 262.47 0.55L262.47 0.55Q258.72 0.55 256.37-2.5 254.02-5.55 254.02-10.45L254.02-10.45Q254.02-16.55 257.57-21.15 261.12-25.75 265.87-25.75L265.87-25.75Q267.32-25.75 268.77-25.33 270.22-24.9 271.72-24L271.72-24 268.22-17.85Q266.42-19.25 264.22-19.25ZM283.87-5.1L283.87-5.1Q285.32-5.1 286.92-5.85 288.52-6.6 289.42-7.35L289.42-7.35 290.32-8.1 292.62-5.3Q292.12-4.45 291.07-3.35 290.02-2.25 288.94-1.48 287.87-0.7 286.09-0.08 284.32 0.55 282.42 0.55L282.42 0.55Q278.37 0.55 275.82-2.53 273.27-5.6 273.27-10.45L273.27-10.45Q273.27-16.55 276.82-21.15 280.37-25.75 285.12-25.75L285.12-25.75Q288.77-25.75 290.79-23.7 292.82-21.65 292.82-17.95L292.82-17.95Q292.82-15.75 292.07-12.95L292.07-12.95 291.07-11.9 278.57-10.75Q279.42-5.1 283.87-5.1ZM283.87-20.6L283.87-20.6Q281.67-20.6 280.17-18.82 278.67-17.05 278.42-14.3L278.42-14.3 286.92-15.35Q287.07-16.5 287.07-17.25L287.07-17.25Q287.07-20.6 283.87-20.6Z" opacity="1" transform="matrix(1,0,0,1,0,0)" fill="#000000" class="wordmark-text-0" data-fill-palette-color="primary" id="text-0"></path></svg></g></svg></g></svg></g></svg></g><g transform="matrix(1,0,0,1,408.1466377128682,0)"><svg viewBox="0 0 73.91693064599484 73.91693064599484" height="73.91693064599484" width="73.91693064599484"><g data-palette-color="#cafbff"><rect width="20.20396104323859" height="73.91693064599484" fill="#000000" stroke="transparent" data-fill-palette-color="accent" x="0" fill-opacity="1"></rect><rect width="20.20396104323859" height="73.91693064599484" fill="#000000" stroke="transparent" data-fill-palette-color="accent" x="24.63897688199828" fill-opacity="0.75"></rect><rect width="20.20396104323859" height="73.91693064599484" fill="#000000" stroke="transparent" data-fill-palette-color="accent" x="49.27795376399656" fill-opacity="0.5"></rect></g></svg></g></svg></g><defs></defs></svg><rect width="395.52" height="60.64682404570339" fill="none" stroke="none" visibility="hidden"></rect></g></svg></g></svg>